<svg width="81" height="95" viewBox="0 0 81 95" fill="none" xmlns="http://www.w3.org/2000/svg">
<path d="M14.9214 93.8994V83.8779H16.9449V93.8994H14.9214ZM25.6093 93.8994H23.6884V90.1943C23.6884 89.4105 23.6474 88.9046 23.5654 88.6768C23.4833 88.4443 23.3489 88.2643 23.162 88.1367C22.9797 88.0091 22.7587 87.9453 22.4989 87.9453C22.1663 87.9453 21.8678 88.0365 21.6034 88.2188C21.3391 88.401 21.1568 88.6426 21.0566 88.9434C20.9609 89.2441 20.913 89.8001 20.913 90.6113V93.8994H18.9921V86.6396H20.7763V87.7061C21.4098 86.8857 22.2073 86.4756 23.1689 86.4756C23.5927 86.4756 23.9801 86.5531 24.331 86.708C24.6819 86.8584 24.9462 87.0521 25.1239 87.2891C25.3062 87.526 25.4316 87.7949 25.4999 88.0957C25.5728 88.3965 25.6093 88.8271 25.6093 89.3877V93.8994ZM27.7044 85.6553V83.8779H29.6253V85.6553H27.7044ZM27.7044 93.8994V86.6396H29.6253V93.8994H27.7044ZM35.07 86.6396V88.1709H33.7575V91.0967C33.7575 91.6891 33.7689 92.0355 33.7916 92.1357C33.819 92.2314 33.876 92.3112 33.9625 92.375C34.0537 92.4388 34.1631 92.4707 34.2907 92.4707C34.4684 92.4707 34.7259 92.4092 35.0631 92.2861L35.2272 93.7764C34.7806 93.9678 34.2747 94.0635 33.7096 94.0635C33.3633 94.0635 33.0511 94.0065 32.7731 93.8926C32.4951 93.7741 32.29 93.6237 32.1579 93.4414C32.0302 93.2546 31.9414 93.0039 31.8913 92.6895C31.8502 92.4661 31.8297 92.015 31.8297 91.3359V88.1709H30.9479V86.6396H31.8297V85.1973L33.7575 84.0762V86.6396H35.07ZM36.543 85.6553V83.8779H38.4639V85.6553H36.543ZM36.543 93.8994V86.6396H38.4639V93.8994H36.543ZM42.015 88.8545L40.2718 88.54C40.4678 87.8382 40.805 87.3187 41.2836 86.9814C41.7621 86.6442 42.473 86.4756 43.4164 86.4756C44.2731 86.4756 44.9112 86.5781 45.3304 86.7832C45.7497 86.9837 46.0436 87.2412 46.2123 87.5557C46.3854 87.8656 46.472 88.4375 46.472 89.2715L46.4515 91.5137C46.4515 92.1517 46.4811 92.6234 46.5404 92.9287C46.6042 93.2295 46.7204 93.5531 46.889 93.8994H44.9886C44.9385 93.7718 44.877 93.5827 44.8041 93.332C44.7722 93.2181 44.7494 93.1429 44.7357 93.1064C44.4076 93.4255 44.0567 93.6647 43.683 93.8242C43.3093 93.9837 42.9105 94.0635 42.4867 94.0635C41.7393 94.0635 41.1491 93.8607 40.7162 93.4551C40.2878 93.0495 40.0736 92.5368 40.0736 91.917C40.0736 91.5068 40.1716 91.1423 40.3675 90.8232C40.5635 90.4997 40.8369 90.2536 41.1879 90.085C41.5433 89.9118 42.0537 89.7614 42.7191 89.6338C43.6169 89.4652 44.239 89.3079 44.5853 89.1621V88.9707C44.5853 88.6016 44.4942 88.3395 44.3119 88.1846C44.1296 88.0251 43.7855 87.9453 43.2796 87.9453C42.9379 87.9453 42.6713 88.0137 42.4798 88.1504C42.2884 88.2826 42.1335 88.5173 42.015 88.8545ZM44.5853 90.4131C44.3392 90.4951 43.9496 90.5931 43.4164 90.707C42.8832 90.821 42.5345 90.9326 42.3705 91.042C42.1198 91.2197 41.9945 91.4453 41.9945 91.7188C41.9945 91.9876 42.0948 92.2201 42.2953 92.416C42.4958 92.612 42.751 92.71 43.0609 92.71C43.4073 92.71 43.7377 92.596 44.0521 92.3682C44.2845 92.195 44.4372 91.9831 44.5101 91.7324C44.5602 91.5684 44.5853 91.2562 44.5853 90.7959V90.4131ZM48.5124 93.8994V83.8779H50.4333V93.8994H48.5124ZM56.753 91.5889L58.6671 91.9102C58.421 92.612 58.0313 93.1475 57.4981 93.5166C56.9695 93.8812 56.3064 94.0635 55.5089 94.0635C54.2465 94.0635 53.3123 93.651 52.7061 92.8262C52.2276 92.1654 51.9884 91.3314 51.9884 90.3242C51.9884 89.1211 52.3028 88.18 52.9317 87.501C53.5606 86.8174 54.3559 86.4756 55.3175 86.4756C56.3975 86.4756 57.2498 86.8333 57.8741 87.5488C58.4984 88.2598 58.797 89.3512 58.7696 90.8232H53.9571C53.9708 91.3929 54.1257 91.8372 54.422 92.1562C54.7182 92.4707 55.0873 92.6279 55.5294 92.6279C55.8302 92.6279 56.0831 92.5459 56.2882 92.3818C56.4932 92.2178 56.6482 91.9535 56.753 91.5889ZM56.8624 89.6475C56.8487 89.0915 56.7052 88.6699 56.4317 88.3828C56.1583 88.0911 55.8256 87.9453 55.4337 87.9453C55.0144 87.9453 54.668 88.098 54.3946 88.4033C54.1212 88.7087 53.9867 89.1234 53.9913 89.6475H56.8624ZM67.0854 93.8994H65.1645V90.1943C65.1645 89.4105 65.1235 88.9046 65.0414 88.6768C64.9594 88.4443 64.825 88.2643 64.6381 88.1367C64.4558 88.0091 64.2348 87.9453 63.975 87.9453C63.6424 87.9453 63.3439 88.0365 63.0795 88.2188C62.8152 88.401 62.6329 88.6426 62.5327 88.9434C62.437 89.2441 62.3891 89.8001 62.3891 90.6113V93.8994H60.4682V86.6396H62.2524V87.7061C62.8858 86.8857 63.6834 86.4756 64.645 86.4756C65.0688 86.4756 65.4562 86.5531 65.8071 86.708C66.158 86.8584 66.4223 87.0521 66.6 87.2891C66.7823 87.526 66.9077 87.7949 66.976 88.0957C67.0489 88.3965 67.0854 88.8271 67.0854 89.3877V93.8994Z" fill="black"/>
<ellipse cx="10.3901" cy="69.1546" rx="10.5499" ry="6.5" transform="rotate(-147.453 10.3901 69.1546)" fill="#23CD64"/>
<ellipse cx="10.3901" cy="69.1546" rx="10.5499" ry="6.5" transform="rotate(-147.453 10.3901 69.1546)" fill="black" fill-opacity="0.27"/>
<ellipse cx="32.4013" cy="69.3203" rx="10.4887" ry="6.58732" transform="rotate(-33.7388 32.4013 69.3203)" fill="#23CD64"/>
<ellipse cx="32.4013" cy="69.3203" rx="10.4887" ry="6.58732" transform="rotate(-33.7388 32.4013 69.3203)" fill="black" fill-opacity="0.27"/>
<path d="M3.11312 65.3079C3.10379 68.3632 4.74318 71.7582 7.81352 74.0775C10.0189 75.7492 12.5437 76.5572 14.8709 76.556H14.871C16.4602 76.5548 17.9512 76.1815 19.2087 75.4699L19.3996 75.3619L19.6601 73.2841C19.6601 73.2839 19.6601 73.2837 19.6601 73.2835C19.6695 70.227 18.0301 66.8341 14.9601 64.5139C12.7555 62.8419 10.2308 62.0341 7.90255 62.0353H7.90243C6.31298 62.0365 4.82223 62.4099 3.56468 63.1213L3.37364 63.2294L3.32388 63.4431C3.18412 64.0436 3.11318 64.6678 3.11312 65.3079ZM3.11312 65.3079C3.11312 65.3082 3.11312 65.3085 3.11312 65.3087H3.61312L3.11312 65.3072C3.11312 65.3074 3.11312 65.3077 3.11312 65.3079ZM35.9122 62.0354H35.9122C37.5017 62.0365 38.9925 62.4099 40.2501 63.1215L40.4415 63.2298L40.491 63.4441C40.6295 64.0436 40.7015 64.6686 40.7016 65.3081M35.9122 62.0354L40.2016 65.3089M35.9122 62.0354C33.5839 62.0342 31.0593 62.842 28.8548 64.5139M35.9122 62.0354L28.8548 64.5139M40.7016 65.3081C40.7016 65.3084 40.7016 65.3086 40.7016 65.3089H40.2016M40.7016 65.3081C40.7016 65.3078 40.7016 65.3076 40.7016 65.3073L40.2016 65.3089M40.7016 65.3081C40.7109 68.3635 39.0714 71.7588 36.001 74.078M40.2016 65.3089C40.2107 68.1926 38.6569 71.4453 35.6996 73.679M36.001 74.078C36.0012 74.0778 36.0014 74.0776 36.0016 74.0775L35.6996 73.679M36.001 74.078L35.6996 73.679M36.001 74.078C33.7955 75.7494 31.2722 76.5573 28.944 76.5561H28.9439C27.3545 76.5549 25.8636 76.1815 24.6071 75.47L24.4173 75.3625L24.3669 75.1503C24.2241 74.5478 24.1546 73.9218 24.1546 73.2836M35.6996 73.679L28.8544 64.5142C28.8545 64.5141 28.8547 64.514 28.8548 64.5139M24.1546 73.2836C24.1546 73.2834 24.1546 73.2831 24.1546 73.2828H24.6546L24.1546 73.2844C24.1546 73.2842 24.1546 73.2839 24.1546 73.2836ZM24.1546 73.2836C24.1451 70.227 25.7846 66.8341 28.8548 64.5139M26.8828 55.517C28.5878 53.4651 30.6272 51.9829 34.7405 49.3052L35.6679 50.8401C32.0615 53.0934 30.1535 54.6513 28.601 56.5908C27.4729 57.9999 26.5326 59.6152 25.249 61.8204C24.7271 62.7169 24.1485 63.711 23.4774 64.8283L24.3054 65.3864C25.1295 64.2919 26.1274 63.283 27.2864 62.4021C29.9354 60.3969 32.9897 59.398 35.9118 59.3958C38.2111 59.3959 40.4397 60.0203 42.2883 61.2929C42.2883 61.2929 42.2884 61.293 42.2884 61.293L42.6535 61.5445L42.7928 61.9689C42.7929 61.969 42.7929 61.9691 42.793 61.9693C43.1449 63.0464 43.3148 64.1728 43.3149 65.3076C43.3062 69.3049 41.2503 73.3936 37.5685 76.1894C34.9195 78.1945 31.8653 79.1934 28.9432 79.1956C26.6428 79.1955 24.4153 78.571 22.5666 77.2982L22.2056 77.0491L22.0774 76.9606H21.9216H21.8933H21.738L21.61 77.0486L21.2472 77.2981L21.247 77.2982C19.3983 78.5709 17.1697 79.1955 14.8705 79.1956C11.9484 79.1934 8.89395 78.1946 6.2463 76.1894C2.56353 73.3936 0.507609 69.3052 0.5 65.3083C0.500046 64.1734 0.66988 63.0465 1.02089 61.969C1.02095 61.9688 1.021 61.9686 1.02106 61.9684L1.16033 61.5445L1.52534 61.293C1.5254 61.293 1.52546 61.2929 1.52552 61.2929C3.37413 60.0203 5.60268 59.3959 7.90194 59.3958C10.8252 59.398 13.8784 60.3969 16.5275 62.4022C17.8677 63.4194 18.9902 64.6111 19.8799 65.9072L20.3421 66.5806L20.7316 65.8626C21.0433 65.2879 21.338 64.743 21.6178 64.2255C23.9854 59.8475 25.2919 57.4316 26.8828 55.517Z" fill="#23CD64" stroke="black"/>
<ellipse cx="11.9778" cy="16.5518" rx="11.9778" ry="16.5518" transform="matrix(0.968226 -0.249881 0.238185 0.971174 33.7598 23.9854)" fill="#FF2323"/>
<ellipse cx="11.9778" cy="16.5518" rx="11.9778" ry="16.5518" transform="matrix(0.968226 -0.249881 0.238185 0.971174 33.7598 23.9854)" fill="black" fill-opacity="0.27"/>
<ellipse cx="11.1917" cy="20.5266" rx="11.1917" ry="20.5266" transform="matrix(0.231829 0.972712 -0.969738 0.243952 66.811 21.1699)" fill="#FF2323"/>
<ellipse cx="11.1917" cy="20.5266" rx="11.1917" ry="20.5266" transform="matrix(0.231829 0.972712 -0.969738 0.243952 66.811 21.1699)" fill="black" fill-opacity="0.27"/>
<ellipse cx="10.3837" cy="12.393" rx="10.3837" ry="12.393" transform="matrix(-0.6297 0.776729 -0.794721 -0.60684 71.8691 44.6504)" fill="#FF2323"/>
<ellipse cx="10.3837" cy="12.393" rx="10.3837" ry="12.393" transform="matrix(-0.6297 0.776729 -0.794721 -0.60684 71.8691 44.6504)" fill="black" fill-opacity="0.27"/>
<ellipse cx="10.3643" cy="12.4148" rx="10.3643" ry="12.4148" transform="matrix(-0.994287 -0.106806 0.137857 -0.990459 55.5757 59.8516)" fill="#FF2323"/>
<ellipse cx="10.3643" cy="12.4148" rx="10.3643" ry="12.4148" transform="matrix(-0.994287 -0.106806 0.137857 -0.990459 55.5757 59.8516)" fill="black" fill-opacity="0.27"/>
<path d="M66.9799 40.7033L67.2158 40.411C68.4873 38.836 69.259 36.9415 69.4682 34.9781L69.4682 34.9778C69.717 32.655 69.1864 30.2273 67.7983 28.1377L67.7981 28.1374C66.4113 26.0469 64.3873 24.6267 62.1628 23.9734L62.1625 23.9733C60.2825 23.42 58.2504 23.4159 56.3205 23.9995L55.9626 24.1077L55.7599 23.7925C55.7428 23.7658 55.7262 23.7386 55.7136 23.7177C55.7119 23.715 55.7103 23.7124 55.7088 23.7099C55.6942 23.6858 55.684 23.6693 55.6747 23.6553L66.9799 40.7033ZM66.9799 40.7033L67.1917 41.0125M66.9799 40.7033L67.1917 41.0125M67.1917 41.0125C67.2099 41.039 67.2286 41.0649 67.243 41.0848L67.2482 41.0919C67.2647 41.1148 67.2758 41.1304 67.2851 41.1444C68.4881 42.958 69.0736 45.0912 69.0062 47.2246C68.9388 49.3568 68.214 51.4965 66.8019 53.3022M67.1917 41.0125L66.8019 53.3022M50.7554 19.7325L50.7551 19.7324C48.7748 18.9817 46.5357 18.8414 44.3423 19.4698L44.3419 19.47C43.2763 19.7744 42.2953 20.2391 41.4199 20.8296L50.7554 19.7325ZM50.7554 19.7325C52.738 20.4829 54.4706 21.843 55.6746 23.6552L50.7554 19.7325ZM36.8474 29.5701L36.486 29.6673C35.3808 29.9647 34.3448 30.4427 33.4164 31.069C32.0957 31.9609 30.9888 33.1503 30.1939 34.5497L30.1937 34.55C29.3985 35.9483 28.9155 37.5587 28.8491 39.2756L28.849 39.2763C28.7585 41.5398 29.4015 43.67 30.562 45.4168L30.5621 45.4169C31.4894 46.8137 32.8319 47.9317 34.3501 48.744L34.4605 48.803L34.5299 48.9075L35.9805 51.0927L36.0522 51.2007L36.0627 51.3304C36.2052 53.098 36.7863 54.7926 37.7509 56.2457L37.751 56.2458C38.9109 57.9942 40.6186 59.405 42.7295 60.1848L42.7296 60.1849C44.33 60.7768 45.9905 60.9412 47.5759 60.7335L47.5761 60.7335C49.1635 60.526 50.6768 59.9487 51.9977 59.0577C52.9258 58.4316 53.7584 57.6483 54.4534 56.7321L54.6805 56.4327L55.029 56.5675C58.1442 57.7727 61.6656 57.3767 64.4398 55.5071L36.8474 29.5701ZM36.8474 29.5701L36.8567 29.1938M36.8474 29.5701L36.8567 29.1938M36.8567 29.1938C36.9402 25.8312 38.6472 22.702 41.4197 20.8297L36.8567 29.1938ZM43.2896 58.6572L43.2893 58.6571C41.5045 57.9969 40.076 56.8147 39.0954 55.3391L39.0952 55.3388C37.8993 53.5358 37.3829 51.301 37.7481 49.0778C37.7481 49.0778 37.7481 49.0778 37.7481 49.0778L37.8716 48.3255L37.1351 48.1541L37.1349 48.1541C34.9569 47.6465 33.1049 46.3137 31.9066 44.5104L31.9062 44.5098C30.928 43.0331 30.3879 41.2516 30.4636 39.337L30.9615 39.3555L30.4636 39.337C30.5211 37.8833 30.9264 36.5343 31.5955 35.356L31.5956 35.3559C32.2651 34.1779 33.1997 33.1719 34.3136 32.4204C35.3478 31.7228 36.5358 31.2447 37.8101 31.0465C37.8101 31.0465 37.8102 31.0465 37.8102 31.0465L38.5579 30.9301L38.4943 30.1714C38.2264 26.9978 39.7264 23.9264 42.3167 22.1801L42.3169 22.1799C43.054 21.6837 43.8784 21.2926 44.781 21.0349C46.6365 20.5043 48.51 20.6237 50.1838 21.2566L50.184 21.2566C51.8554 21.8894 53.3182 23.037 54.3304 24.5618C54.526 24.8563 54.7048 25.1652 54.8653 25.4872L54.8654 25.4873L55.2037 26.1666L55.901 25.87C57.7745 25.0716 59.8276 24.9824 61.7059 25.5356L61.706 25.5356C63.5853 26.0895 65.2797 27.2771 66.4539 29.0442L66.4541 29.0445C67.6267 30.8125 68.0701 32.845 67.8609 34.8069L43.2896 58.6572ZM43.2896 58.6572C44.644 59.1573 46.0357 59.2943 47.3719 59.1197C48.7085 58.9458 49.987 58.4578 51.1008 57.7065C52.1349 57.0089 53.0269 56.0849 53.6945 54.9719L54.0862 54.3198M43.2896 58.6572L54.0862 54.3198M64.9195 41.5293L65.2966 41.2003C65.5303 41.4721 65.7454 41.7566 65.9409 42.0512C66.9531 43.5759 67.4486 45.378 67.3914 47.1769L67.3914 47.1773C67.3329 48.9779 66.7266 50.769 65.5328 52.2961L65.5326 52.2963C64.9521 53.0381 64.2801 53.6574 63.5425 54.155L64.9195 41.5293ZM64.9195 41.5293L65.2966 41.2003L64.8022 40.6254L65.3401 40.0888C65.3402 40.0887 65.3402 40.0887 65.3403 40.0886M64.9195 41.5293L65.3403 40.0886M66.8019 53.3022C66.1157 54.1787 65.3159 54.9161 64.44 55.507L66.8019 53.3022ZM54.0862 54.3198L54.7574 54.6683L54.0862 54.3198ZM65.3403 40.0886C66.7873 38.648 67.6521 36.7689 67.8608 34.8071L65.3403 40.0886ZM54.7579 54.6685C57.5658 56.1295 60.9536 55.9036 63.5423 54.1552L54.7579 54.6685Z" fill="#FF2323" stroke="black"/>
<path d="M46.0924 34.0283C49.4137 31.7879 53.9028 32.678 56.1188 36.016C58.3358 39.3555 57.4398 43.8782 54.1186 46.1186C50.7974 48.359 46.3082 47.4691 44.0912 44.1296C41.8752 40.7916 42.7711 36.2688 46.0924 34.0283Z" fill="#FF2323" stroke="black"/>
</svg>
