<svg width="81" height="95" viewBox="0 0 81 95" fill="none" xmlns="http://www.w3.org/2000/svg">
<ellipse cx="12.3901" cy="68.1546" rx="10.5499" ry="6.5" transform="rotate(-147.453 12.3901 68.1546)" fill="#23CD64"/>
<ellipse cx="12.3901" cy="68.1546" rx="10.5499" ry="6.5" transform="rotate(-147.453 12.3901 68.1546)" fill="black" fill-opacity="0.27"/>
<ellipse cx="32.4013" cy="68.3203" rx="10.4887" ry="6.58732" transform="rotate(-33.7388 32.4013 68.3203)" fill="#23CD64"/>
<ellipse cx="32.4013" cy="68.3203" rx="10.4887" ry="6.58732" transform="rotate(-33.7388 32.4013 68.3203)" fill="black" fill-opacity="0.27"/>
<path d="M3.2147 63.8923C3.20512 67.0194 4.88871 70.4947 8.04202 72.8689C10.3072 74.5803 12.8999 75.4071 15.289 75.4059H15.2891C16.9205 75.4046 18.4508 75.0227 19.7411 74.2949L19.9324 74.1871L20.1988 72.0655C20.1988 72.0653 20.1988 72.0651 20.1988 72.0649C20.2085 68.9363 18.5246 65.463 15.3714 63.0879C13.1072 61.3764 10.5148 60.5499 8.12473 60.5512H8.12461C6.49295 60.5524 4.96292 60.9345 3.67244 61.6621L3.48106 61.77L3.4311 61.9839C3.28761 62.5984 3.21476 63.2372 3.2147 63.8923ZM3.2147 63.8923C3.2147 63.8926 3.2147 63.8929 3.2147 63.8932H3.7147L3.2147 63.8916C3.2147 63.8918 3.2147 63.8921 3.2147 63.8923ZM36.9218 60.5513H36.9219C38.5536 60.5524 40.0836 60.9345 41.3741 61.6623L41.5659 61.7704L41.6156 61.9849C41.7578 62.5983 41.8318 63.238 41.8318 63.8925M36.9218 60.5513L41.3318 63.8933M36.9218 60.5513C34.5317 60.5501 31.9393 61.3766 29.6751 63.0881M36.9218 60.5513L29.6751 63.0881M41.8318 63.8925C41.8318 63.8928 41.8318 63.893 41.8318 63.8933H41.3318M41.8318 63.8925C41.8318 63.8923 41.8318 63.892 41.8318 63.8917L41.3318 63.8933M41.8318 63.8925C41.8414 67.0196 40.1578 70.4951 37.0047 72.8691M41.3318 63.8933C41.3411 66.8482 39.7437 70.1813 36.7033 72.4702M37.0047 72.8691L36.7033 72.4702M37.0047 72.8691C37.0044 72.8693 37.0042 72.8695 37.004 72.8696L36.7033 72.4702M37.0047 72.8691C34.7394 74.5804 32.148 75.4073 29.7578 75.406H29.7576C28.126 75.4048 26.5959 75.0227 25.3065 74.295L25.1163 74.1877L25.0658 73.9753C24.9191 73.3588 24.8478 72.7182 24.8477 72.065M36.7033 72.4702L29.6748 63.0883C29.6749 63.0882 29.675 63.0882 29.6751 63.0881M24.8477 72.065C24.8477 72.0648 24.8477 72.0645 24.8477 72.0642H25.3477L24.8477 72.0658C24.8477 72.0656 24.8477 72.0653 24.8477 72.065ZM24.8477 72.065C24.838 68.9364 26.5218 65.4632 29.6751 63.0881M40.6285 50.5164C38.9749 49.8953 37.4401 49.811 36.0008 50.1697C34.3686 50.5765 32.9072 51.5409 31.5612 52.8376C29.053 55.2537 26.8404 58.9331 24.5982 62.6615C24.4489 62.9097 24.2995 63.1582 24.1498 63.4065L24.9771 63.966C25.8251 62.8434 26.8519 61.8086 28.0447 60.9051C30.7705 58.8488 33.9137 57.824 36.9214 57.8218C39.2883 57.8219 41.5826 58.4625 43.4859 59.7685L43.8649 60.0287L44.0094 60.4674C44.3718 61.5725 44.5466 62.7279 44.5467 63.8921C44.5378 67.9913 42.4226 72.1842 38.6345 75.0515C35.9085 77.1082 32.765 78.1332 29.757 78.1354C27.389 78.1353 25.0958 77.4945 23.1925 76.1885L22.8212 75.9332L22.6932 75.8452H22.5379H22.5088H22.3539L22.2262 75.9328L21.8532 76.1884L21.8529 76.1885C19.9496 77.4945 17.6552 78.1353 15.2886 78.1354C12.2805 78.1332 9.13687 77.1084 6.41234 75.0516C2.62313 72.1844 0.507825 67.9917 0.5 63.8927C0.500047 62.7287 0.674804 61.5729 1.03604 60.4676C1.03611 60.4674 1.03618 60.4672 1.03625 60.467L1.18072 60.0287L1.55961 59.7685C1.55967 59.7684 1.55973 59.7684 1.5598 59.7684C3.46304 58.4625 5.75733 57.8219 8.12411 57.8218C11.1331 57.824 14.2753 58.8488 17.0011 60.9053C18.3803 61.9486 19.5354 63.1709 20.4508 64.5L20.9126 65.1705L21.3018 64.4554C24.3204 58.9083 27.3223 54.0037 30.5513 51.0255C32.1598 49.5419 33.7956 48.5645 35.4879 48.2061C37.092 47.8665 38.7911 48.0735 40.6285 49.0035V50.5164Z" fill="#23CD64" stroke="black"/>
<ellipse cx="11.6372" cy="16.5231" rx="11.6372" ry="16.5231" transform="matrix(0.902037 0.431639 -0.455511 0.890221 55.9551 30)" fill="#FF2323"/>
<ellipse cx="11.6372" cy="16.5231" rx="11.6372" ry="16.5231" transform="matrix(0.902037 0.431639 -0.455511 0.890221 55.9551 30)" fill="black" fill-opacity="0.27"/>
<ellipse cx="11.1734" cy="19.9411" rx="11.1734" ry="19.9411" transform="matrix(-0.461166 0.887305 -0.899306 -0.437302 82.1626 48.6621)" fill="#FF2323"/>
<ellipse cx="11.1734" cy="19.9411" rx="11.1734" ry="19.9411" transform="matrix(-0.461166 0.887305 -0.899306 -0.437302 82.1626 48.6621)" fill="black" fill-opacity="0.27"/>
<ellipse cx="10.2592" cy="12.1561" rx="10.2592" ry="12.1561" transform="matrix(-0.980435 0.196842 -0.196037 -0.980596 70.6519 69.707)" fill="#FF2323"/>
<ellipse cx="10.2592" cy="12.1561" rx="10.2592" ry="12.1561" transform="matrix(-0.980435 0.196842 -0.196037 -0.980596 70.6519 69.707)" fill="black" fill-opacity="0.27"/>
<ellipse cx="10.0538" cy="12.4078" rx="10.0538" ry="12.4078" transform="matrix(-0.684588 -0.728935 0.745038 -0.667027 48.7656 71.0146)" fill="#FF2323"/>
<ellipse cx="10.0538" cy="12.4078" rx="10.0538" ry="12.4078" transform="matrix(-0.684588 -0.728935 0.745038 -0.667027 48.7656 71.0146)" fill="black" fill-opacity="0.27"/>
<path d="M41.7605 65.7855C40.4235 64.8556 39.2816 63.5942 38.474 62.0532C37.4082 60.0211 37.072 57.7892 37.3773 55.6783C37.6307 53.9222 38.3366 52.2492 39.421 50.8228L39.7841 48.3066C39.1933 46.6728 38.9308 44.9119 39.1765 43.2093C39.4802 41.0991 40.4335 39.055 42.0295 37.4134C43.2385 36.1668 44.6904 35.2849 46.2351 34.7768C47.7797 34.2677 49.4174 34.1306 51.0151 34.3637M41.7605 65.7855L57.5367 72.6346C54.3429 72.1657 51.5587 70.1536 50.0954 67.2582L49.9258 66.9226L49.5567 66.9916C48.4686 67.195 47.3672 67.2135 46.2983 67.057C44.7769 66.8344 43.319 66.2614 42.0454 65.3751L42.0453 65.375C40.773 64.4902 39.6859 63.2895 38.9166 61.8216L38.9165 61.8214C37.9013 59.8859 37.5813 57.7608 37.872 55.7509L37.872 55.7507C38.1131 54.08 38.785 52.4862 39.8191 51.1261L39.8973 51.0232L39.9157 50.8952L40.2788 48.379L40.2967 48.2551L40.2541 48.1373C39.6853 46.5643 39.4396 44.8872 39.6713 43.2817L39.6713 43.2815C39.9605 41.2723 40.868 39.326 42.3882 37.7625L42.3886 37.7621C43.5401 36.5747 44.9221 35.7355 46.392 35.2519L46.3923 35.2519C47.8627 34.7673 49.4222 34.6366 50.944 34.8586M41.7605 65.7855C43.0982 66.7164 44.6293 67.3181 46.2269 67.5519M41.7605 65.7855L46.2269 67.5519M51.0151 34.3637L50.9437 34.8585C50.9438 34.8585 50.9439 34.8585 50.944 34.8586M51.0151 34.3637C52.1384 34.528 53.2428 34.8777 54.2776 35.4108L63.2948 32.7353C60.1004 32.2694 56.863 33.3987 54.6415 35.7544L54.3838 36.0277L54.0494 35.8554C53.0645 35.3479 52.0132 35.0151 50.944 34.8586M51.0151 34.3637L50.944 34.8586M68.8782 63.6681L69.248 63.6105C71.1736 63.3108 72.9456 62.4563 74.358 61.1855L74.3582 61.1853C76.0301 59.6825 77.2096 57.5963 77.5557 55.1929L77.5557 55.1926C77.9033 52.7894 77.3621 50.4513 76.1839 48.5323L76.1838 48.5321C75.1889 46.9096 73.7318 45.5817 71.9705 44.7416L71.6324 44.5803L71.6913 44.2105C71.6962 44.18 71.7018 44.1495 71.7062 44.1262C71.7067 44.1232 71.7073 44.1203 71.7078 44.1175C71.7128 44.0907 71.716 44.0725 71.7183 44.0567L68.8782 63.6681ZM68.8782 63.6681L68.8301 64.0395M68.8782 63.6681L68.8301 64.0395M68.8301 64.0395C68.8261 64.0706 68.8229 64.1017 68.8204 64.1253M68.8301 64.0395L68.8204 64.1253M70.7058 38.0362L70.7056 38.036C69.7656 36.2064 68.2472 34.6459 66.2679 33.6662L66.2676 33.666C65.3065 33.1894 64.3033 32.8829 63.2951 32.7353L70.7058 38.0362ZM70.7058 38.0362C71.6478 39.8671 72.0183 41.972 71.7183 44.0565L70.7058 38.0362ZM68.1102 62.1846L68.1107 62.1846C70.0835 62.0953 71.9191 61.3095 73.3349 60.0352C74.7513 58.7611 75.7426 57.0092 76.0376 54.9707L76.0376 54.9703C76.331 52.9316 75.8757 50.9689 74.8782 49.3408L74.8782 49.3407C73.8811 47.7139 72.3435 46.4344 70.4775 45.7825L68.1102 62.1846ZM68.1102 62.1846L67.3929 62.2178M68.1102 62.1846L67.3929 62.2178M57.7572 71.1083C54.7621 70.6718 52.1737 68.6167 51.0922 65.7283L50.839 65.0544L50.153 65.262C50.1529 65.262 50.1528 65.2621 50.1527 65.2621C48.9533 65.6258 47.7141 65.7066 46.5185 65.5316C45.2307 65.3432 43.9941 64.8575 42.9183 64.1079C41.8421 63.3589 40.9271 62.3495 40.2733 61.1036L40.2732 61.1033C39.4125 59.4606 39.1453 57.6758 39.3901 55.9733L39.3902 55.9729C39.691 53.8941 40.7601 51.9491 42.4574 50.5891L43.0199 50.1382L42.6081 49.5454L42.608 49.5453C41.3653 47.755 40.8901 45.5848 41.1894 43.5042L41.1895 43.5035C41.4368 41.8017 42.1964 40.1672 43.4859 38.8398L43.8446 39.1887L43.4859 38.8397C44.4649 37.8319 45.6274 37.1268 46.87 36.7171L46.8701 36.717C48.1128 36.3078 49.4357 36.1958 50.7238 36.3843C51.9196 36.5593 53.0847 36.993 54.1314 37.6844C54.1314 37.6845 54.1314 37.6845 54.1314 37.6845L54.7307 38.0802L55.164 37.5066C55.164 37.5065 55.1641 37.5064 55.1642 37.5063C57.018 35.0488 60.0807 33.821 63.0752 34.2601L63.0755 34.2601C63.9271 34.3856 64.7738 34.6438 65.5908 35.0491C67.2711 35.8818 68.5448 37.1939 69.3432 38.7443L69.3433 38.7445C70.1399 40.2933 70.4541 42.0755 70.2003 43.8342C70.1513 44.1739 70.081 44.513 69.9891 44.8496L69.989 44.8498L69.7988 45.5448L70.4772 45.7823L57.7572 71.1083ZM57.7572 71.1083C57.7571 71.1083 57.757 71.1083 57.7569 71.1083L57.8283 70.6134L57.7572 71.1083ZM57.7572 71.1083C58.6102 71.2331 59.4943 71.2274 60.3914 71.0737L60.3917 71.0737C62.2377 70.7565 63.8302 69.8648 65.0338 68.6081L65.034 68.6079C66.2355 67.3515 67.0406 65.7314 67.2943 63.9728C67.3433 63.6331 67.3718 63.2878 67.3787 62.9394L67.3929 62.2178M57.7572 71.1083L67.3929 62.2178M67.3929 62.2178L67.402 61.7506L66.9023 61.7398M67.3929 62.2178L66.9023 61.7398M67.3929 62.2178L66.9263 62.2394L66.9023 61.7398M67.3929 62.2178L66.9023 61.7398M60.6506 72.5945C62.8252 72.2212 64.7211 71.1603 66.1402 69.6761C67.56 68.1908 68.5108 66.2797 68.8124 64.195L60.6506 72.5945ZM60.6506 72.5945C59.5943 72.7753 58.5458 72.7823 57.5369 72.6346L60.6506 72.5945ZM68.8204 64.1253L68.8195 64.1338M68.8204 64.1253L68.8195 64.1338M68.8195 64.1338C68.8167 64.1609 68.8147 64.179 68.8124 64.1948L68.8195 64.1338ZM46.2269 67.5519C47.35 67.7163 48.5069 67.6968 49.6494 67.4832L46.2269 67.5519Z" fill="#FF2323" stroke="black"/>
<path d="M58.1583 45.2619C61.9802 45.8212 64.6323 49.3833 64.0787 53.2199C63.5248 57.0581 59.9757 59.7126 56.1538 59.1532C52.3319 58.5938 49.6797 55.0318 50.2335 51.1936C50.7871 47.357 54.3364 44.7025 58.1583 45.2619Z" fill="#FF2323" stroke="black"/>
<path d="M14.9214 94V83.9785H16.9449V94H14.9214ZM25.6093 94H23.6884V90.2949C23.6884 89.5111 23.6474 89.0052 23.5654 88.7773C23.4833 88.5449 23.3489 88.3649 23.162 88.2373C22.9797 88.1097 22.7587 88.0459 22.4989 88.0459C22.1663 88.0459 21.8678 88.137 21.6034 88.3193C21.3391 88.5016 21.1568 88.7432 21.0566 89.0439C20.9609 89.3447 20.913 89.9007 20.913 90.7119V94H18.9921V86.7402H20.7763V87.8066C21.4098 86.9863 22.2073 86.5762 23.1689 86.5762C23.5927 86.5762 23.9801 86.6536 24.331 86.8086C24.6819 86.959 24.9462 87.1527 25.1239 87.3896C25.3062 87.6266 25.4316 87.8955 25.4999 88.1963C25.5728 88.4971 25.6093 88.9277 25.6093 89.4883V94ZM27.7044 85.7559V83.9785H29.6253V85.7559H27.7044ZM27.7044 94V86.7402H29.6253V94H27.7044ZM35.07 86.7402V88.2715H33.7575V91.1973C33.7575 91.7897 33.7689 92.1361 33.7916 92.2363C33.819 92.332 33.876 92.4118 33.9625 92.4756C34.0537 92.5394 34.1631 92.5713 34.2907 92.5713C34.4684 92.5713 34.7259 92.5098 35.0631 92.3867L35.2272 93.877C34.7806 94.0684 34.2747 94.1641 33.7096 94.1641C33.3633 94.1641 33.0511 94.1071 32.7731 93.9932C32.4951 93.8747 32.29 93.7243 32.1579 93.542C32.0302 93.3551 31.9414 93.1045 31.8913 92.79C31.8502 92.5667 31.8297 92.1156 31.8297 91.4365V88.2715H30.9479V86.7402H31.8297V85.2979L33.7575 84.1768V86.7402H35.07ZM36.543 85.7559V83.9785H38.4639V85.7559H36.543ZM36.543 94V86.7402H38.4639V94H36.543ZM42.015 88.9551L40.2718 88.6406C40.4678 87.9388 40.805 87.4193 41.2836 87.082C41.7621 86.7448 42.473 86.5762 43.4164 86.5762C44.2731 86.5762 44.9112 86.6787 45.3304 86.8838C45.7497 87.0843 46.0436 87.3418 46.2123 87.6562C46.3854 87.9661 46.472 88.5381 46.472 89.3721L46.4515 91.6143C46.4515 92.2523 46.4811 92.724 46.5404 93.0293C46.6042 93.3301 46.7204 93.6536 46.889 94H44.9886C44.9385 93.8724 44.877 93.6833 44.8041 93.4326C44.7722 93.3187 44.7494 93.2435 44.7357 93.207C44.4076 93.526 44.0567 93.7653 43.683 93.9248C43.3093 94.0843 42.9105 94.1641 42.4867 94.1641C41.7393 94.1641 41.1491 93.9613 40.7162 93.5557C40.2878 93.1501 40.0736 92.6374 40.0736 92.0176C40.0736 91.6074 40.1716 91.2428 40.3675 90.9238C40.5635 90.6003 40.8369 90.3542 41.1879 90.1855C41.5433 90.0124 42.0537 89.862 42.7191 89.7344C43.6169 89.5658 44.239 89.4085 44.5853 89.2627V89.0713C44.5853 88.7021 44.4942 88.4401 44.3119 88.2852C44.1296 88.1257 43.7855 88.0459 43.2796 88.0459C42.9379 88.0459 42.6713 88.1143 42.4798 88.251C42.2884 88.3831 42.1335 88.6178 42.015 88.9551ZM44.5853 90.5137C44.3392 90.5957 43.9496 90.6937 43.4164 90.8076C42.8832 90.9215 42.5345 91.0332 42.3705 91.1426C42.1198 91.3203 41.9945 91.5459 41.9945 91.8193C41.9945 92.0882 42.0948 92.3206 42.2953 92.5166C42.4958 92.7126 42.751 92.8105 43.0609 92.8105C43.4073 92.8105 43.7377 92.6966 44.0521 92.4688C44.2845 92.2956 44.4372 92.0837 44.5101 91.833C44.5602 91.6689 44.5853 91.3568 44.5853 90.8965V90.5137ZM48.5124 94V83.9785H50.4333V94H48.5124ZM56.753 91.6895L58.6671 92.0107C58.421 92.7126 58.0313 93.248 57.4981 93.6172C56.9695 93.9818 56.3064 94.1641 55.5089 94.1641C54.2465 94.1641 53.3123 93.7516 52.7061 92.9268C52.2276 92.266 51.9884 91.432 51.9884 90.4248C51.9884 89.2217 52.3028 88.2806 52.9317 87.6016C53.5606 86.918 54.3559 86.5762 55.3175 86.5762C56.3975 86.5762 57.2498 86.9339 57.8741 87.6494C58.4984 88.3604 58.797 89.4518 58.7696 90.9238H53.9571C53.9708 91.4935 54.1257 91.9378 54.422 92.2568C54.7182 92.5713 55.0873 92.7285 55.5294 92.7285C55.8302 92.7285 56.0831 92.6465 56.2882 92.4824C56.4932 92.3184 56.6482 92.054 56.753 91.6895ZM56.8624 89.748C56.8487 89.1921 56.7052 88.7705 56.4317 88.4834C56.1583 88.1917 55.8256 88.0459 55.4337 88.0459C55.0144 88.0459 54.668 88.1986 54.3946 88.5039C54.1212 88.8092 53.9867 89.224 53.9913 89.748H56.8624ZM67.0854 94H65.1645V90.2949C65.1645 89.5111 65.1235 89.0052 65.0414 88.7773C64.9594 88.5449 64.825 88.3649 64.6381 88.2373C64.4558 88.1097 64.2348 88.0459 63.975 88.0459C63.6424 88.0459 63.3439 88.137 63.0795 88.3193C62.8152 88.5016 62.6329 88.7432 62.5327 89.0439C62.437 89.3447 62.3891 89.9007 62.3891 90.7119V94H60.4682V86.7402H62.2524V87.8066C62.8858 86.9863 63.6834 86.5762 64.645 86.5762C65.0688 86.5762 65.4562 86.6536 65.8071 86.8086C66.158 86.959 66.4223 87.1527 66.6 87.3896C66.7823 87.6266 66.9077 87.8955 66.976 88.1963C67.0489 88.4971 67.0854 88.9277 67.0854 89.4883V94Z" fill="black"/>
</svg>
