<svg width="81" height="95" viewBox="0 0 81 95" fill="none" xmlns="http://www.w3.org/2000/svg">
<path d="M13.0587 94V83.2627H15.2267V94H13.0587ZM24.51 94H22.4519V90.0303C22.4519 89.1904 22.4079 88.6484 22.32 88.4043C22.2321 88.1553 22.0881 87.9624 21.8879 87.8257C21.6926 87.689 21.4558 87.6206 21.1774 87.6206C20.821 87.6206 20.5012 87.7183 20.218 87.9136C19.9348 88.1089 19.7395 88.3677 19.632 88.6899C19.5295 89.0122 19.4782 89.6079 19.4782 90.4771V94H17.4201V86.2217H19.3317V87.3643C20.0104 86.4854 20.8649 86.0459 21.8952 86.0459C22.3493 86.0459 22.7644 86.1289 23.1403 86.2949C23.5163 86.4561 23.7995 86.6636 23.9899 86.9175C24.1853 87.1714 24.3195 87.4595 24.3928 87.7817C24.4709 88.104 24.51 88.5654 24.51 89.166V94ZM26.7547 85.167V83.2627H28.8128V85.167H26.7547ZM26.7547 94V86.2217H28.8128V94H26.7547ZM34.6464 86.2217V87.8623H33.2401V90.9971C33.2401 91.6318 33.2523 92.0029 33.2768 92.1104C33.3061 92.2129 33.3671 92.2983 33.4599 92.3667C33.5575 92.4351 33.6747 92.4692 33.8114 92.4692C34.0019 92.4692 34.2777 92.4033 34.6391 92.2715L34.8148 93.8682C34.3363 94.0732 33.7943 94.1758 33.1889 94.1758C32.8178 94.1758 32.4833 94.1147 32.1854 93.9927C31.8876 93.8657 31.6679 93.7046 31.5263 93.5093C31.3896 93.3091 31.2943 93.0405 31.2406 92.7036C31.1967 92.4644 31.1747 91.981 31.1747 91.2534V87.8623H30.2299V86.2217H31.1747V84.6763L33.2401 83.4751V86.2217H34.6464ZM36.2246 85.167V83.2627H38.2827V85.167H36.2246ZM36.2246 94V86.2217H38.2827V94H36.2246ZM42.0875 88.5947L40.2198 88.2578C40.4298 87.5059 40.7911 86.9492 41.3038 86.5879C41.8165 86.2266 42.5782 86.0459 43.589 86.0459C44.5069 86.0459 45.1905 86.1558 45.6397 86.3755C46.089 86.5903 46.4039 86.8662 46.5846 87.2031C46.7701 87.5352 46.8629 88.1479 46.8629 89.0415L46.8409 91.4438C46.8409 92.1274 46.8727 92.6328 46.9361 92.96C47.0045 93.2822 47.129 93.6289 47.3097 94H45.2735C45.2198 93.8633 45.1539 93.6606 45.0758 93.3921C45.0416 93.27 45.0172 93.1895 45.0025 93.1504C44.651 93.4922 44.275 93.7485 43.8746 93.9194C43.4742 94.0903 43.047 94.1758 42.5929 94.1758C41.7921 94.1758 41.1598 93.9585 40.6959 93.5239C40.2369 93.0894 40.0074 92.54 40.0074 91.876C40.0074 91.4365 40.1124 91.0459 40.3224 90.7041C40.5323 90.3574 40.8253 90.0938 41.2013 89.9131C41.5821 89.7275 42.129 89.5664 42.8419 89.4297C43.8038 89.249 44.4703 89.0806 44.8414 88.9243V88.7192C44.8414 88.3237 44.7437 88.043 44.5484 87.877C44.3531 87.7061 43.9845 87.6206 43.4425 87.6206C43.0763 87.6206 42.7906 87.6938 42.5855 87.8403C42.3805 87.9819 42.2145 88.2334 42.0875 88.5947ZM44.8414 90.2646C44.5777 90.3525 44.1603 90.4575 43.589 90.5796C43.0177 90.7017 42.6441 90.8213 42.4684 90.9385C42.1998 91.1289 42.0655 91.3706 42.0655 91.6636C42.0655 91.9517 42.1729 92.2007 42.3878 92.4106C42.6026 92.6206 42.8761 92.7256 43.2081 92.7256C43.5792 92.7256 43.9332 92.6035 44.2701 92.3594C44.5191 92.1738 44.6827 91.9468 44.7608 91.6782C44.8146 91.5024 44.8414 91.168 44.8414 90.6748V90.2646ZM49.049 94V83.2627H51.1071V94H49.049ZM57.8782 91.5244L59.929 91.8687C59.6653 92.6206 59.2478 93.1943 58.6766 93.5898C58.1102 93.9805 57.3997 94.1758 56.5452 94.1758C55.1927 94.1758 54.1917 93.7339 53.5423 92.8501C53.0296 92.1421 52.7732 91.2485 52.7732 90.1694C52.7732 88.8804 53.1102 87.8721 53.784 87.1445C54.4578 86.4121 55.3099 86.0459 56.3401 86.0459C57.4974 86.0459 58.4104 86.4292 59.0794 87.1958C59.7483 87.9575 60.0682 89.127 60.0389 90.7041H54.8826C54.8973 91.3145 55.0633 91.7905 55.3807 92.1323C55.698 92.4692 56.0936 92.6377 56.5672 92.6377C56.8895 92.6377 57.1604 92.5498 57.3802 92.374C57.5999 92.1982 57.7659 91.915 57.8782 91.5244ZM57.9954 89.4443C57.9808 88.8486 57.827 88.397 57.534 88.0894C57.241 87.7769 56.8846 87.6206 56.4646 87.6206C56.0154 87.6206 55.6443 87.7842 55.3514 88.1113C55.0584 88.4385 54.9144 88.8828 54.9192 89.4443H57.9954ZM68.9486 94H66.8905V90.0303C66.8905 89.1904 66.8466 88.6484 66.7587 88.4043C66.6708 88.1553 66.5268 87.9624 66.3266 87.8257C66.1312 87.689 65.8944 87.6206 65.6161 87.6206C65.2597 87.6206 64.9398 87.7183 64.6566 87.9136C64.3734 88.1089 64.1781 88.3677 64.0707 88.6899C63.9682 89.0122 63.9169 89.6079 63.9169 90.4771V94H61.8588V86.2217H63.7704V87.3643C64.4491 86.4854 65.3036 86.0459 66.3339 86.0459C66.788 86.0459 67.203 86.1289 67.579 86.2949C67.955 86.4561 68.2382 86.6636 68.4286 86.9175C68.6239 87.1714 68.7582 87.4595 68.8314 87.7817C68.9096 88.104 68.9486 88.5654 68.9486 89.166V94Z" fill="black"/>
<ellipse cx="30.0566" cy="70.5804" rx="10.5499" ry="6.5" transform="rotate(-147.453 30.0566 70.5804)" fill="#23CD64"/>
<ellipse cx="30.0566" cy="70.5804" rx="10.5499" ry="6.5" transform="rotate(-147.453 30.0566 70.5804)" fill="black" fill-opacity="0.27"/>
<ellipse cx="50.0678" cy="70.7461" rx="10.4887" ry="6.58732" transform="rotate(-33.7388 50.0678 70.7461)" fill="#23CD64"/>
<ellipse cx="50.0678" cy="70.7461" rx="10.4887" ry="6.58732" transform="rotate(-33.7388 50.0678 70.7461)" fill="black" fill-opacity="0.27"/>
<path d="M39.0892 46.8037V46.8296V46.8699V46.9102V46.9505V46.9907V47.031V47.0712V47.1114V47.1516V47.1918V47.2319V47.2721V47.3122V47.3523V47.3924V47.4324V47.4725V47.5125V47.5525V47.5925V47.6325V47.6725V47.7125V47.7524V47.7923V47.8322V47.8721V47.912V47.9519V47.9917V48.0315V48.0713V48.1111V48.1509V48.1907V48.2305V48.2702V48.3099V48.3496V48.3893V48.429V48.4687V48.5084V48.548V48.5877V48.6273V48.6669V48.7065V48.7461V48.7856V48.8252V48.8647V48.9043V48.9438V48.9833V49.0228V49.0623V49.1018V49.1412V49.1807V49.2201V49.2595V49.299V49.3384V49.3778V49.4172V49.4565V49.4959V49.5353V49.5746V49.6139V49.6533V49.6926V49.7319V49.7712V49.8105V49.8498V49.889V49.9283V49.9676V50.0068V50.046V50.0853V50.1245V50.1637V50.2029V50.2421V50.2813V50.3205V50.3597V50.3988V50.438V50.4771V50.5163V50.5554V50.5946V50.6337V50.6728V50.7119V50.751V50.7901V50.8292V50.8683V50.9074V50.9465V50.9856V51.0246V51.0637V51.1028V51.1418V51.1809V51.2199V51.2589V51.298V51.337V51.376V51.4151V51.4541V51.4931V51.5321V51.5711V51.6101V51.6491V51.6881V51.7271V51.7661V51.8051V51.8441V51.8831V51.9221V51.9611V52.0001V52.039V52.078V52.117V52.156V52.1949V52.2339V52.2729V52.3119V52.3508V52.3898V52.4288V52.4677V52.5067V52.5457V52.5846V52.6236V52.6626V52.7015V52.7405V52.7795V52.8184V52.8574V52.8964V52.9354V52.9743V53.0133V53.0523V53.0913V53.1302V53.1692V53.2082V53.2472V53.2862V53.3252V53.3642V53.4032V53.4422V53.4812V53.5202V53.5592V53.5982V53.6372V53.6762V53.7153V53.7543V53.7933V53.8324V53.8714V53.9104V53.9495V53.9885V54.0276V54.0667V54.1057V54.1448V54.1839V54.223V54.262V54.3011V54.3402V54.3793V54.4184V54.4576V54.4967V54.5358V54.575V54.6141V54.6533V54.6924V54.7316V54.7707V54.8099V54.8491V54.8883V54.9275V54.9667V55.0059V55.0452V55.0844V55.1236V55.1629V55.2021V55.2414V55.2807V55.32V55.3593V55.3986V55.4379V55.4772V55.5165V55.5559V55.5952V55.6346V55.674V55.7133V55.7527V55.7921V55.8316V55.871V55.9104V55.9499V55.9893V56.0288V56.0683V56.1078V56.1473V56.1868V56.2263V56.2659V56.3054V56.345V56.3845V56.4241V56.4637V56.5034V56.543V56.5826V56.6223V56.6619V56.7016V56.7413V56.781V56.8208V56.8605V56.9002V56.94V56.9798V57.0196V57.0594V57.0992V57.139V57.1789V57.2188V57.2586V57.2985V57.3385V57.3784V57.4183V57.4583V57.4983V57.5383V57.5783V57.6183V57.6584V57.6984V57.7385V57.7786V57.8187V57.8588V57.899V57.9391V57.9793V58.0195V58.0597V58.1V58.1402V58.1805V58.2208V58.2611V58.3014V58.3418V58.3821V58.4225V58.4629V58.5033V58.5438V58.5842V58.6247V58.6652V58.7057V58.7463V58.7868V58.8274V58.868V58.9086V58.9493V58.9899V59.0306V59.0713V59.112V59.1528V59.1936V59.2344V59.2752V59.316V59.3569V59.3977V59.4386V59.4796V59.5205V59.5615V59.6025V59.6435V59.6845V59.7256V59.7667V59.8078V59.8489V59.8901V59.9312V59.9724V60.0137V60.0549V60.0962V60.1375V60.1788V60.2201V60.2615V60.3029V60.3443V60.3858V60.4273V60.4688V60.5103V60.5518V60.5934V60.635V60.6766V60.7183V60.76V60.8017V60.8434V60.8852V60.927V60.9688V61.0106V61.0525V61.0944V61.1363V61.1783V61.2202V61.2622V61.3043V61.3463V61.3884V61.4306V61.4727V61.5149V61.5571V61.5993V61.6416V61.6839V61.7262V61.7686V61.8109V61.8534V61.8958V61.9383V61.9808V62.0233V62.0659V62.1085V62.1511V62.1937V62.2364V62.2791V62.3219V62.3647V62.4075V62.4503V62.4932V62.5361V62.579V62.622V62.665V62.708V62.7511V62.7942V62.8373V62.8805V62.9237V62.9669V63.0102V63.0535V63.0968V63.1402V63.1835V63.227V63.2704V63.3139V63.3575V63.401V63.4446V63.4883V63.5319V63.5757V63.6194V63.6632V63.707V63.7508V63.7947V63.8386V63.8826V63.9266V63.9706V64.0147V64.0588V64.1029V64.1471V64.1913V64.2355V64.2798V64.3241V64.3685V64.4129V64.4573V64.5018V64.5463V64.5908V64.6354V64.68V64.7247V64.7694V64.8141V64.8589V64.9037V64.9485V64.9934V65.0384V65.0833V65.1283V65.1734V65.2185V65.2636V65.3088V65.354V65.3992V65.4445V65.4898V65.5352V65.5806V65.626V65.6715V65.7171V65.7626V65.8083V65.8539V65.8996V65.9453V65.9911V66.0369V66.0828V66.1287V66.1747V66.2207V66.2667V66.3128V66.3589V66.405V66.4513V66.4975V66.5438V66.5901V66.6365V66.6829V66.7294V66.7759V66.8225V66.8691V66.9157V66.9624V67.0091V67.0559V67.1027V67.1496V67.1965V67.2435V67.2905V68.8788L38.1794 67.5769C37.3223 66.3504 36.2405 65.2221 34.9484 64.2587L39.0892 46.8037ZM39.0892 46.8037H41.578V46.8221V46.8529V46.8838V46.9148V46.9457V46.9767V47.0078V47.0389V47.07V47.1012V47.1324V47.1637V47.195V47.2264V47.2577V47.2892V47.3206V47.3521V47.3837V47.4153V47.4469V47.4785V47.5102V47.542V47.5738V47.6056V47.6375V47.6694V47.7013V47.7333V47.7653V47.7974V47.8295V47.8616V47.8938V47.9261V47.9583V47.9906V48.023V48.0554V48.0878V48.1203V48.1528V48.1853V48.2179V48.2505V48.2832V48.3159V48.3487V48.3814V48.4143V48.4471V48.48V48.513V48.546V48.579V48.6121V48.6452V48.6783V48.7115V48.7447V48.778V48.8113V48.8446V48.878V48.9114V48.9449V48.9784V49.0119V49.0455V49.0791V49.1128V49.1465V49.1802V49.214V49.2478V49.2817V49.3156V49.3495V49.3835V49.4175V49.4516V49.4857V49.5198V49.554V49.5882V49.6224V49.6567V49.6911V49.7254V49.7599V49.7943V49.8288V49.8633V49.8979V49.9325V49.9671V50.0018V50.0365V50.0713V50.1061V50.141V50.1758V50.2108V50.2457V50.2807V50.3158V50.3508V50.3859V50.4211V50.4563V50.4915V50.5268V50.5621V50.5975V50.6329V50.6683V50.7037V50.7393V50.7748V50.8104V50.846V50.8817V50.9174V50.9531V50.9889V51.0247V51.0606V51.0965V51.1324V51.1684V51.2044V51.2404V51.2765V51.3126V51.3488V51.385V51.4213V51.4575V51.4939V51.5302V51.5666V51.603V51.6395V51.676V51.7126V51.7492V51.7858V51.8225V51.8592V51.8959V51.9327V51.9695V52.0064V52.0433V52.0802V52.1172V52.1542V52.1913V52.2284V52.2655V52.3027V52.3399V52.3771V52.4144V52.4517V52.4891V52.5265V52.5639V52.6014V52.6389V52.6765V52.7141V52.7517V52.7894V52.8271V52.8648V52.9026V52.9404V52.9783V53.0162V53.0541V53.0921V53.1301V53.1681V53.2062V53.2443V53.2825V53.3207V53.3589V53.3972V53.4355V53.4739V53.5123V53.5507V53.5891V53.6277V53.6662V53.7048V53.7434V53.782V53.8207V53.8595V53.8982V53.937V53.9759V54.0148V54.0537V54.0926V54.1316V54.1707V54.2097V54.2488V54.288V54.3272V54.3664V54.4057V54.445V54.4843V54.5237V54.5631V54.6025V54.642V54.6815V54.7211V54.7607V54.8003V54.84V54.8797V54.9194V54.9592V54.999V55.0389V55.0788V55.1187V55.1587V55.1987V55.2388V55.2788V55.319V55.3591V55.3993V55.4396V55.4798V55.5201V55.5605V55.6009V55.6413V55.6817V55.7222V55.7628V55.8033V55.8439V55.8846V55.9252V55.966V56.0067V56.0475V56.0883V56.1292V56.1701V56.211V56.252V56.293V56.3341V56.3752V56.4163V56.4574V56.4986V56.5399V56.5812V56.6225V56.6638V56.7052V56.7466V56.7881V56.8296V56.8711V56.9127V56.9543V56.9959V57.0376V57.0793V57.121V57.1628V57.2046V57.2465V57.2884V57.3303V57.3723V57.4143V57.4564V57.4984V57.5406V57.5827V57.6249V57.6671V57.7094V57.7517V57.794V57.8364V57.8788V57.9212V57.9637V58.0062V58.0488V58.0914V58.134V58.1767V58.2194V58.2621V58.3049V58.3477V58.3905V58.4334V58.4763V58.5193V58.5623V58.6053V58.6484V58.6915V58.7346V58.7778V58.821V58.8642V58.9075V58.9508V58.9942V59.0376V59.081V59.1245V59.168V59.2115V59.2551V59.2987V59.3423V59.386V59.4297V59.4735V59.5173V59.5611V59.6049V59.6488V59.6928V59.7367V59.7807V59.8248V59.8688V59.9129V59.9571V60.0013V60.0455V60.0897V60.134V60.1783V60.2227V60.2671V60.3115V60.356V60.4005V60.445V60.4896V60.5342V60.5789V60.6236V60.6683V60.713V60.7578V60.8026V60.8475V60.8924V60.9373V60.9823V61.0273V61.0723V61.1174V61.1625V61.2076V61.2528V61.298V61.3433V61.3886V61.4339V61.4793V61.5246V61.5701V61.6155V61.661V61.7066V61.7521V61.7977V61.8434V61.889V61.9348V61.9805V62.0263V62.0721V62.1179V62.1638V62.2097V62.2557V62.3017V62.3477V62.3938V62.4399V62.486V62.5322V62.5784V62.6246V62.6709V62.7172V62.7635V62.8099V62.8563V62.9028V62.9492V62.9958V63.0423V63.0889V63.1355V63.1822V63.2289V63.2756V63.3224V63.3692V63.416V63.4628V63.5097V63.5567V63.6037V63.6507V63.6977V63.7448V63.7919V63.839V63.8862V63.9334V63.9807V64.0279V64.0753V64.1226V64.17V64.2174V64.2649V64.3124V64.3599V64.4074V64.455V64.5027V64.5503V64.598V64.6458V64.6935V64.7413V64.7892V64.837V64.8849V64.9329V64.9808V65.0288V65.0769V65.125V65.1731V65.2212V65.2694V65.3176V65.3658V65.4141V65.4624V65.5108V65.5592V65.6076V65.656V65.7045V65.753V65.8016V65.8502V65.8988V65.9475V65.9962V66.0449V66.0936V66.1424V66.1913V66.2401V66.289V66.338V66.3869V66.4359V66.4849V66.534V66.5831V66.6322V66.6814V66.7306V66.7798V68.2541L42.4748 67.084C43.2689 66.0481 44.2307 65.0928 45.3481 64.2585C47.9025 62.3592 50.8487 61.4124 53.668 61.4103C55.8864 61.4104 58.0355 62.0022 59.8172 63.207C59.8173 63.2071 59.8173 63.2071 59.8173 63.2071L60.1635 63.4414L60.295 63.8349C60.6337 64.8529 60.7972 65.9175 60.7973 66.9902C60.789 70.7679 58.8108 74.6371 55.2607 77.2853C52.7063 79.1847 49.7601 80.1315 46.9408 80.1336C44.7212 80.1335 42.5732 79.5415 40.7914 78.3366L40.4429 78.1004L40.3158 78.0143H40.1623H40.135H39.982L39.8552 78.0999L39.5049 78.3364L39.5047 78.3366C37.7229 79.5415 35.5738 80.1335 33.3555 80.1336C30.5362 80.1315 27.59 79.1849 25.037 77.2856C21.4857 74.6375 19.5073 70.7684 19.5 66.9909C19.5 65.9183 19.6634 64.8534 20.0011 63.8351C20.0012 63.8349 20.0013 63.8347 20.0013 63.8345L20.1328 63.4414L20.4789 63.2071C20.4789 63.2071 20.479 63.207 20.4791 63.207C22.2608 62.0022 24.4098 61.4104 26.6282 61.4103C29.4485 61.4124 32.3935 62.3591 34.9479 64.2583L39.0892 46.8037ZM37.7412 76.5439L37.5485 76.651C36.3324 77.327 34.8913 77.6812 33.3559 77.6823H33.3558C31.1077 77.6834 28.668 76.9168 26.5361 75.3296M37.7412 76.5439L33.1505 66.6155L33.4492 66.2146C33.449 66.2144 33.4488 66.2143 33.4487 66.2142C31.3176 64.6267 28.878 63.8603 26.6288 63.8614H26.6287C25.0932 63.8626 23.6523 64.2169 22.436 64.8927L22.2432 64.9999L22.1923 65.2145C22.0568 65.7864 21.988 66.381 21.988 66.9906C21.979 69.9004 23.5681 73.1274 26.5361 75.3296M37.7412 76.5439L37.7921 76.3294C37.9279 75.7573 37.9964 75.1618 37.9965 74.5534L37.7412 76.5439ZM26.5361 75.3296C26.5359 75.3295 26.5357 75.3294 26.5356 75.3292L26.8342 74.9282L26.5363 75.3298C26.5362 75.3297 26.5361 75.3296 26.5361 75.3296ZM53.6683 63.8616H53.6684C55.204 63.8626 56.6449 64.2169 57.8612 64.8929L58.0544 65.0003L58.105 65.2155C58.2393 65.7864 58.3091 66.3817 58.3092 66.9907M53.6683 63.8616L46.848 66.2147M53.6683 63.8616C51.419 63.8604 48.9792 64.627 46.848 66.2147M53.6683 63.8616L46.848 66.2147M58.3092 66.9907C58.3092 66.991 58.3092 66.9912 58.3092 66.9915H57.8092L58.3092 66.9899C58.3092 66.9902 58.3092 66.9904 58.3092 66.9907ZM58.3092 66.9907C58.3182 69.9005 56.7292 73.1276 53.7614 75.3297C53.7615 75.3296 53.7616 75.3295 53.7617 75.3294L53.4631 74.9284L53.761 75.3299C51.6291 76.917 49.1907 77.6836 46.9415 77.6825H46.9414C45.4059 77.6813 43.9649 77.327 42.7496 76.6511L42.558 76.5445L42.5066 76.3314C42.3681 75.7574 42.3007 75.1612 42.3007 74.5535M42.3007 74.5535C42.3007 74.5532 42.3007 74.553 42.3007 74.5527H42.8007L42.3007 74.5543C42.3007 74.5541 42.3007 74.5538 42.3007 74.5535ZM42.3007 74.5535C42.2915 71.6425 43.8805 68.4177 46.848 66.2147" fill="#23CD64" stroke="black"/>
<ellipse cx="41" cy="22" rx="14" ry="20" fill="#FF2323"/>
<ellipse cx="41" cy="22" rx="14" ry="20" fill="black" fill-opacity="0.27"/>
<ellipse cx="41.2301" cy="22.0567" rx="13.5223" ry="23.9939" transform="rotate(90.3625 41.2301 22.0567)" fill="#FF2323"/>
<ellipse cx="41.2301" cy="22.0567" rx="13.5223" ry="23.9939" transform="rotate(90.3625 41.2301 22.0567)" fill="black" fill-opacity="0.27"/>
<ellipse cx="45.7567" cy="33.379" rx="12.2143" ry="14.8735" transform="rotate(142.338 45.7567 33.379)" fill="#FF2323"/>
<ellipse cx="45.7567" cy="33.379" rx="12.2143" ry="14.8735" transform="rotate(142.338 45.7567 33.379)" fill="black" fill-opacity="0.27"/>
<ellipse cx="35.7582" cy="32.2788" rx="12.2143" ry="14.8735" transform="rotate(-158.849 35.7582 32.2788)" fill="#FF2323"/>
<ellipse cx="35.7582" cy="32.2788" rx="12.2143" ry="14.8735" transform="rotate(-158.849 35.7582 32.2788)" fill="black" fill-opacity="0.27"/>
<path d="M52.7475 9.36068L52.6365 9.00393C51.9344 6.74808 50.5896 4.77159 48.8047 3.2979L48.8045 3.29772C46.6938 1.55298 43.9646 0.499083 40.9993 0.500001L40.9989 0.500001C38.0336 0.499083 35.3045 1.55299 33.1948 3.29777L33.1946 3.29795C31.4105 4.77175 30.0647 6.74822 29.3617 9.00424L29.2506 9.36088L28.8771 9.35543C28.8412 9.35491 28.805 9.35346 28.7763 9.35231C28.7726 9.35216 28.769 9.35201 28.7655 9.35188C28.7324 9.35057 28.7082 9.34977 28.6864 9.34976L52.7475 9.36068ZM52.7475 9.36068L53.1211 9.3553M52.7475 9.36068L53.1211 9.3553M53.1211 9.3553C53.1575 9.35477 53.1939 9.35331 53.2227 9.35215M53.1211 9.3553L53.2227 9.35215M21.5918 11.6059L21.5916 11.606C19.5477 13.0499 17.9316 15.1403 17.0985 17.682L17.0984 17.6823C16.6928 18.9165 16.5 20.1719 16.5 21.4058L21.5918 11.6059ZM21.5918 11.6059C23.6367 10.1595 26.1144 9.35072 28.6862 9.34976L21.5918 11.6059ZM21.9858 31.4726L21.8621 31.8301C21.4234 33.0983 21.2074 34.4159 21.2074 35.7244C21.2083 37.5863 21.6415 39.4327 22.4865 41.1114L22.4866 41.1116C23.3303 42.79 24.5881 44.3019 26.2259 45.4771L26.2264 45.4775C28.3838 47.0298 30.8958 47.7817 33.3749 47.7807H33.3751C35.3598 47.7807 37.3425 47.1947 39.1386 46.2423L39.2485 46.1841H39.3729H42.4497H42.5782L42.6907 46.246C44.5162 47.2505 46.5606 47.7807 48.6225 47.7807H48.6227C51.1029 47.7815 53.6139 47.0297 55.7724 45.4774L55.7726 45.4773C57.4097 44.301 58.6675 42.7898 59.5112 41.1116L59.5113 41.1115C60.3564 39.4316 60.7904 37.5853 60.7904 35.7237C60.7904 34.4155 60.5735 33.0987 60.1357 31.8299L60.0124 31.4725L60.3226 31.2565C63.5613 29.0008 65.4982 25.3153 65.5 21.4068L21.9858 31.4726ZM21.9858 31.4726L21.6754 31.2564M21.9858 31.4726L21.6754 31.2564M21.6754 31.2564C18.4371 29.0002 16.5019 25.3147 16.5 21.406L21.6754 31.2564ZM54.5487 43.827L54.5484 43.8271C52.7507 45.1187 50.6824 45.7357 48.6229 45.7367H48.6225C46.1073 45.7357 43.6171 44.8084 41.7108 43.0424L40.9991 42.3832L40.2883 43.0423L40.2881 43.0424C38.3818 44.8084 35.8926 45.7357 33.3755 45.7367H33.3748C31.3157 45.7347 29.2473 45.1188 27.4504 43.8271L27.7422 43.4211L27.4504 43.8271C26.0859 42.8461 25.0483 41.598 24.3469 40.205L24.3468 40.2049C23.6459 38.8116 23.2834 37.2731 23.2834 35.7243C23.2834 34.2866 23.5955 32.8413 24.2337 31.4918C24.2338 31.4918 24.2338 31.4917 24.2338 31.4917L24.6421 30.6281L23.796 30.166C23.7959 30.166 23.7958 30.1659 23.7957 30.1659C20.5621 28.4024 18.5738 25.0063 18.5748 21.4056L18.5748 21.4053C18.5758 20.3813 18.735 19.3406 19.0739 18.3098C19.7698 16.19 21.1045 14.4684 22.8036 13.2659L22.8038 13.2657C24.5013 12.0654 26.5587 11.3935 28.6861 11.3935C29.097 11.3935 29.5109 11.4186 29.9257 11.4697L29.9258 11.4697L30.8901 11.5887L31.0739 10.648C31.5231 8.34039 32.7736 6.31318 34.5291 4.86351L34.5292 4.86345C36.286 3.41333 38.5325 2.54491 40.9989 2.5439L40.9993 2.5439C43.4656 2.54491 45.7131 3.41325 47.469 4.86345C49.2254 6.31326 50.476 8.34055 50.9242 10.6482L51.108 11.5888L52.0731 11.4697C52.487 11.4186 52.9011 11.3935 53.312 11.3935C55.4392 11.3935 57.4987 12.0654 59.1962 13.2657L59.1965 13.2659C60.8948 14.4687 62.2283 16.1912 62.9249 18.3107L62.925 18.311C63.263 19.3413 63.4233 20.3812 63.4233 21.4065L54.5487 43.827ZM54.5487 43.827C55.912 42.8462 56.9498 41.5982 57.6511 40.2043M54.5487 43.827L57.3561 30.6273M64.9016 17.6821C64.0666 15.1403 62.4504 13.0507 60.4065 11.6058C58.3615 10.1604 55.8845 9.35058 53.312 9.34962L64.9016 17.6821ZM64.9016 17.6821C65.3063 18.9167 65.5 20.1719 65.5 21.4066L64.9016 17.6821ZM53.2227 9.35215L53.2331 9.35174M53.2227 9.35215L53.2331 9.35174M53.2331 9.35174C53.2661 9.35043 53.2901 9.34963 53.3118 9.34962L53.2331 9.35174ZM57.3561 30.6273L57.7643 31.4906C58.4038 32.8407 58.7148 34.2859 58.7148 35.7235C58.7148 37.272 58.3533 38.8106 57.6511 40.2043M57.3561 30.6273L58.2019 30.1653C58.202 30.1653 58.202 30.1653 58.2021 30.1652C61.4369 28.4028 63.4254 25.0077 63.4233 21.4068L57.3561 30.6273ZM57.6511 40.2043L57.2046 39.9793M57.6511 40.2043C57.6511 40.2042 57.6512 40.2041 57.6512 40.204L57.2046 39.9793M57.2046 39.9793C56.5388 41.3027 55.5535 42.4881 54.2567 43.4211M57.2046 39.9793C57.8714 38.6559 58.2148 37.1945 58.2148 35.7235C58.2148 34.3582 57.9195 32.9863 57.3124 31.7047L54.2567 43.4211M54.2567 43.4211C52.5471 44.6494 50.5815 45.2358 48.6227 45.2367L54.2567 43.4211Z" fill="#FF2323" stroke="black"/>
<path d="M32.4014 25.3632C32.4014 20.6715 36.2461 16.8594 40.9989 16.8594C45.7538 16.8594 49.5984 20.6716 49.5984 25.3632C49.5984 30.0548 45.7538 33.8672 40.9989 33.8672C36.2461 33.8672 32.4014 30.0549 32.4014 25.3632Z" fill="#FF2323" stroke="black"/>
</svg>
