<svg width="556" height="680" viewBox="0 0 556 680" fill="none" xmlns="http://www.w3.org/2000/svg">
<g clip-path="url(#clip0_975_15685)">
<path d="M0 680H556C553 678.5 508 677 473 665.5C437 653.671 370.034 639.887 303.738 633.901C264.5 630.358 210 632.335 155 644.5C135.362 648.844 73.5974 666.207 55.4999 671.5C35.5862 677.325 10.5 677.835 0 680Z" fill="#AAD07C"/>
<path d="M79.0896 245.447C74.5692 135.569 132.026 99.0284 168.606 112.902C147.887 58.4753 188.472 -12.2792 266.747 18.4558C345.022 49.1908 354.382 112.902 354.382 112.902C354.382 112.902 552.01 76.3401 499.906 173.411C477.548 215.065 467.497 234.235 462.446 242.547C538.729 225.96 608.736 291.052 499.906 361.983C504.632 378.174 511.943 383.214 523.601 463.381C535.259 543.548 436.761 558.681 383.527 532.534C364.992 593.044 291.632 593.684 254.457 542.779C227.691 606.17 152.45 587.601 118.844 556.546C90.8847 530.709 84.6457 460.549 99.0256 443.51C53.4686 485.267 -15.603 408.772 3.15677 352.286C16.1366 313.204 23.7309 296.095 79.0896 245.447Z" fill="#BFD58D"/>
<path d="M79.0896 245.447C74.5692 135.569 132.026 99.0284 168.606 112.902C147.887 58.4753 188.472 -12.2792 266.747 18.4558C345.022 49.1908 354.382 112.902 354.382 112.902C354.382 112.902 552.01 76.3401 499.906 173.411C447.802 270.483 462.536 245.447 451.631 245.447C531.73 219.834 613.868 287.707 499.906 361.983C504.632 378.174 511.943 383.214 523.601 463.381C535.259 543.548 436.761 558.681 383.527 532.534C364.992 593.044 291.632 593.684 254.457 542.779C227.691 606.17 152.45 587.601 118.844 556.546C89.6792 529.595 84.1481 454.416 101.001 441.61C55.4989 487.499 -15.8762 409.594 3.15677 352.286C16.1366 313.204 23.7309 296.095 79.0896 245.447Z" stroke="#BFD58D"/>
<path d="M365.5 427.5C364.893 432.477 355.5 440.435 358 439.755C370.324 436.403 373.756 435.265 383.474 433.148C379.534 430.277 379 425.42 379 412.5C379 395.584 388.025 370.595 384.648 356.5C381.291 342.485 413.76 278.551 420 255.5C426.24 232.449 391.973 299.513 384.648 320.5C377.014 342.376 372.371 357.864 374.5 373.5C376.629 389.136 369.758 392.63 365.5 427.5Z" fill="#6D5C3F" stroke="#6D5C3F" stroke-width="0.146821"/>
<path d="M323.568 503.558H284.312L284.313 502.648C284.331 476.26 284.339 464.459 286.691 447.364C296.208 375.231 286.989 343.081 284.312 308.5C281.635 273.919 309.001 132 311 145C313 158 300.026 260.605 303 286C307.904 327.872 316 355.476 316 396C313.866 417.636 314.052 436.558 323.568 503.558Z" fill="#6D5C3F" stroke="#6D5C3F"/>
<path d="M174.379 310.291C156.761 282.541 136.963 266.4 145.165 281.082C157.072 302.395 175.187 328.812 179.165 344.582C182.106 356.243 186.933 372.5 187.633 389C188.215 402.715 190.717 412.024 190.5 416.5C190.283 420.976 186.933 425.362 186.933 425.362L187.633 425.406C194.413 425.834 201.485 426.28 208.368 426.28C208.368 426.28 203.4 412.8 200.165 402.082C195.499 386.624 196.497 375.336 192.952 359.582C188.519 339.88 183.297 324.336 174.379 310.291Z" fill="#6D5C3F"/>
<path d="M186.933 425.362C186.933 425.362 190.283 420.976 190.5 416.5C190.717 412.024 188.215 402.715 187.633 389C186.933 372.5 182.106 356.243 179.165 344.582C175.187 328.812 157.072 302.395 145.165 281.082C136.963 266.4 156.761 282.541 174.379 310.291C183.297 324.336 188.519 339.88 192.952 359.582C196.497 375.336 195.499 386.624 200.165 402.082C203.4 412.8 208.368 426.28 208.368 426.28C201.485 426.28 194.413 425.834 187.633 425.406M186.933 425.362L187.633 425.406M186.933 425.362C187.166 425.377 187.399 425.391 187.633 425.406" stroke="#6D5C3F" stroke-width="0.146821"/>
<path d="M246.5 225C242.999 209 239.499 153.5 243 162.5C246.5 171.5 250 222.5 261 241C268.075 252.899 275.785 270.504 282.832 276.523C286.062 279.282 289.679 282.881 292.574 281.001C292.318 287.03 292.154 292.553 292.087 297.333C294.813 299.959 292.064 300.65 292.053 301.965C292.053 300.514 292.064 298.967 292.087 297.333C290.98 296.266 288.967 294.878 285.499 293C273.5 286.5 250 241 246.5 225Z" fill="#6D5C3F"/>
<path d="M292.053 301.965C292.053 296.27 292.231 289.091 292.574 281.001C289.679 282.881 286.062 279.282 282.832 276.523C275.785 270.504 268.075 252.899 261 241C250 222.5 246.5 171.5 243 162.5C239.499 153.5 242.999 209 246.5 225C250 241 273.5 286.5 285.499 293C297.499 299.5 292.069 300.116 292.053 301.965Z" stroke="#6D5C3F" stroke-width="0.146821"/>
<path d="M284.198 585.04C284.198 640.363 272.6 650.032 243.752 653.874C214.905 657.715 183.678 667 206.578 667C229.477 667 246.726 663.158 265.759 661.237C284.793 659.316 304.718 642.988 316.912 644.909C329.105 646.83 404.049 662.358 379.365 650.032C361.883 641.302 337.612 630.257 329.105 610.012C323.455 596.566 323.455 504.041 323.455 504.041H284.198V585.04Z" fill="#6D5C3F" stroke="#6D5C3F"/>
<path d="M323.271 503.375H284.015C270.731 479.684 232.445 433.453 185.575 438.063C138.705 442.673 96.6536 416.292 81.4863 402.526C87.4343 402.526 111.226 418.79 142.155 423.656C180.817 429.739 192.415 420.134 220.965 428.458C243.805 435.118 280.346 460.581 298.288 476.162C304.336 462.822 330.918 439.6 349 438.063C371.602 436.142 397.398 420.454 420 402.526C442.602 384.597 480.73 296.342 469 333C457 370.5 432.117 421.735 405.351 438.063C391.346 446.607 345.277 449.589 335.76 464.956C328.147 477.25 325.352 494.304 323.271 503.375Z" fill="#6D5C3F" stroke="#6D5C3F"/>
<path d="M415.641 475.57L412.547 485H410.055L414.281 473.625H415.867L415.641 475.57ZM418.211 485L415.109 475.57L414.859 473.625H416.461L420.711 485H418.211ZM418.07 480.766V482.602H412.062V480.766H418.07ZM426.617 483.156V473H428.883V485H426.844L426.617 483.156ZM421.273 480.875V480.711C421.273 480.065 421.346 479.479 421.492 478.953C421.638 478.422 421.852 477.966 422.133 477.586C422.414 477.206 422.76 476.911 423.172 476.703C423.583 476.495 424.052 476.391 424.578 476.391C425.073 476.391 425.505 476.495 425.875 476.703C426.25 476.911 426.568 477.208 426.828 477.594C427.094 477.974 427.307 478.424 427.469 478.945C427.63 479.461 427.747 480.026 427.82 480.641V481C427.747 481.589 427.63 482.135 427.469 482.641C427.307 483.146 427.094 483.589 426.828 483.969C426.568 484.344 426.25 484.635 425.875 484.844C425.5 485.052 425.062 485.156 424.562 485.156C424.036 485.156 423.568 485.049 423.156 484.836C422.75 484.622 422.406 484.323 422.125 483.938C421.849 483.552 421.638 483.099 421.492 482.578C421.346 482.057 421.273 481.49 421.273 480.875ZM423.523 480.711V480.875C423.523 481.224 423.549 481.549 423.602 481.852C423.659 482.154 423.75 482.422 423.875 482.656C424.005 482.885 424.172 483.065 424.375 483.195C424.583 483.32 424.836 483.383 425.133 483.383C425.518 483.383 425.836 483.297 426.086 483.125C426.336 482.948 426.526 482.706 426.656 482.398C426.792 482.091 426.87 481.737 426.891 481.336V480.312C426.875 479.984 426.828 479.69 426.75 479.43C426.677 479.164 426.568 478.938 426.422 478.75C426.281 478.562 426.104 478.417 425.891 478.312C425.682 478.208 425.435 478.156 425.148 478.156C424.857 478.156 424.607 478.224 424.398 478.359C424.19 478.49 424.021 478.669 423.891 478.898C423.766 479.128 423.672 479.398 423.609 479.711C423.552 480.018 423.523 480.352 423.523 480.711ZM432.891 478.297V485H430.633V476.547H432.75L432.891 478.297ZM432.578 480.477H431.953C431.953 479.888 432.023 479.346 432.164 478.852C432.31 478.352 432.521 477.919 432.797 477.555C433.078 477.185 433.424 476.898 433.836 476.695C434.247 476.492 434.724 476.391 435.266 476.391C435.641 476.391 435.984 476.448 436.297 476.562C436.609 476.672 436.878 476.846 437.102 477.086C437.331 477.32 437.508 477.628 437.633 478.008C437.758 478.383 437.82 478.833 437.82 479.359V485H435.57V479.609C435.57 479.224 435.518 478.927 435.414 478.719C435.31 478.51 435.161 478.365 434.969 478.281C434.781 478.198 434.555 478.156 434.289 478.156C433.997 478.156 433.742 478.216 433.523 478.336C433.31 478.456 433.133 478.622 432.992 478.836C432.852 479.044 432.747 479.289 432.68 479.57C432.612 479.852 432.578 480.154 432.578 480.477ZM437.609 480.219L436.805 480.32C436.805 479.768 436.872 479.255 437.008 478.781C437.148 478.307 437.354 477.891 437.625 477.531C437.901 477.172 438.242 476.893 438.648 476.695C439.055 476.492 439.523 476.391 440.055 476.391C440.461 476.391 440.831 476.451 441.164 476.57C441.497 476.685 441.781 476.87 442.016 477.125C442.255 477.375 442.438 477.703 442.562 478.109C442.693 478.516 442.758 479.013 442.758 479.602V485H440.5V479.602C440.5 479.211 440.448 478.914 440.344 478.711C440.245 478.503 440.099 478.359 439.906 478.281C439.719 478.198 439.495 478.156 439.234 478.156C438.964 478.156 438.727 478.211 438.523 478.32C438.32 478.424 438.151 478.57 438.016 478.758C437.88 478.945 437.779 479.164 437.711 479.414C437.643 479.659 437.609 479.927 437.609 480.219ZM446.875 476.547V485H444.617V476.547H446.875ZM444.477 474.344C444.477 474.016 444.591 473.745 444.82 473.531C445.049 473.318 445.357 473.211 445.742 473.211C446.122 473.211 446.427 473.318 446.656 473.531C446.891 473.745 447.008 474.016 447.008 474.344C447.008 474.672 446.891 474.943 446.656 475.156C446.427 475.37 446.122 475.477 445.742 475.477C445.357 475.477 445.049 475.37 444.82 475.156C444.591 474.943 444.477 474.672 444.477 474.344ZM450.938 478.352V485H448.688V476.547H450.797L450.938 478.352ZM450.609 480.477H450C450 479.852 450.081 479.289 450.242 478.789C450.404 478.284 450.63 477.854 450.922 477.5C451.214 477.141 451.56 476.867 451.961 476.68C452.367 476.487 452.82 476.391 453.32 476.391C453.716 476.391 454.078 476.448 454.406 476.562C454.734 476.677 455.016 476.859 455.25 477.109C455.49 477.359 455.672 477.69 455.797 478.102C455.927 478.513 455.992 479.016 455.992 479.609V485H453.727V479.602C453.727 479.227 453.674 478.935 453.57 478.727C453.466 478.518 453.312 478.372 453.109 478.289C452.911 478.201 452.667 478.156 452.375 478.156C452.073 478.156 451.81 478.216 451.586 478.336C451.367 478.456 451.185 478.622 451.039 478.836C450.898 479.044 450.792 479.289 450.719 479.57C450.646 479.852 450.609 480.154 450.609 480.477Z" fill="#6D5C3F"/>
<path d="M414 438L434.5 470" stroke="#6D5C3F"/>
<path d="M453.359 284.047V284.586C453.359 285.451 453.242 286.227 453.008 286.914C452.773 287.602 452.443 288.188 452.016 288.672C451.589 289.151 451.078 289.518 450.484 289.773C449.896 290.029 449.242 290.156 448.523 290.156C447.81 290.156 447.156 290.029 446.562 289.773C445.974 289.518 445.464 289.151 445.031 288.672C444.599 288.188 444.263 287.602 444.023 286.914C443.789 286.227 443.672 285.451 443.672 284.586V284.047C443.672 283.177 443.789 282.401 444.023 281.719C444.258 281.031 444.589 280.445 445.016 279.961C445.448 279.477 445.958 279.107 446.547 278.852C447.141 278.596 447.794 278.469 448.508 278.469C449.227 278.469 449.88 278.596 450.469 278.852C451.062 279.107 451.573 279.477 452 279.961C452.432 280.445 452.766 281.031 453 281.719C453.24 282.401 453.359 283.177 453.359 284.047ZM450.992 284.586V284.031C450.992 283.427 450.938 282.896 450.828 282.438C450.719 281.979 450.557 281.594 450.344 281.281C450.13 280.969 449.87 280.734 449.562 280.578C449.255 280.417 448.904 280.336 448.508 280.336C448.112 280.336 447.76 280.417 447.453 280.578C447.151 280.734 446.893 280.969 446.68 281.281C446.471 281.594 446.312 281.979 446.203 282.438C446.094 282.896 446.039 283.427 446.039 284.031V284.586C446.039 285.185 446.094 285.716 446.203 286.18C446.312 286.638 446.474 287.026 446.688 287.344C446.901 287.656 447.161 287.893 447.469 288.055C447.776 288.216 448.128 288.297 448.523 288.297C448.919 288.297 449.271 288.216 449.578 288.055C449.885 287.893 450.143 287.656 450.352 287.344C450.56 287.026 450.719 286.638 450.828 286.18C450.938 285.716 450.992 285.185 450.992 284.586ZM459.906 287.977V281.547H462.156V290H460.039L459.906 287.977ZM460.156 286.242L460.82 286.227C460.82 286.789 460.755 287.312 460.625 287.797C460.495 288.276 460.299 288.693 460.039 289.047C459.779 289.396 459.451 289.669 459.055 289.867C458.659 290.06 458.193 290.156 457.656 290.156C457.245 290.156 456.865 290.099 456.516 289.984C456.172 289.865 455.875 289.68 455.625 289.43C455.38 289.174 455.188 288.849 455.047 288.453C454.911 288.052 454.844 287.57 454.844 287.008V281.547H457.094V287.023C457.094 287.273 457.122 287.484 457.18 287.656C457.242 287.828 457.328 287.969 457.438 288.078C457.547 288.188 457.674 288.266 457.82 288.312C457.971 288.359 458.138 288.383 458.32 288.383C458.784 288.383 459.148 288.289 459.414 288.102C459.685 287.914 459.875 287.659 459.984 287.336C460.099 287.008 460.156 286.643 460.156 286.242ZM468.016 281.547V283.141H463.094V281.547H468.016ZM464.312 279.461H466.562V287.453C466.562 287.698 466.594 287.885 466.656 288.016C466.724 288.146 466.823 288.237 466.953 288.289C467.083 288.336 467.247 288.359 467.445 288.359C467.586 288.359 467.711 288.354 467.82 288.344C467.935 288.328 468.031 288.312 468.109 288.297L468.117 289.953C467.924 290.016 467.716 290.065 467.492 290.102C467.268 290.138 467.021 290.156 466.75 290.156C466.255 290.156 465.823 290.076 465.453 289.914C465.089 289.747 464.807 289.482 464.609 289.117C464.411 288.753 464.312 288.273 464.312 287.68V279.461ZM474.289 288.156V278H476.555V290H474.516L474.289 288.156ZM468.945 285.875V285.711C468.945 285.065 469.018 284.479 469.164 283.953C469.31 283.422 469.523 282.966 469.805 282.586C470.086 282.206 470.432 281.911 470.844 281.703C471.255 281.495 471.724 281.391 472.25 281.391C472.745 281.391 473.177 281.495 473.547 281.703C473.922 281.911 474.24 282.208 474.5 282.594C474.766 282.974 474.979 283.424 475.141 283.945C475.302 284.461 475.419 285.026 475.492 285.641V286C475.419 286.589 475.302 287.135 475.141 287.641C474.979 288.146 474.766 288.589 474.5 288.969C474.24 289.344 473.922 289.635 473.547 289.844C473.172 290.052 472.734 290.156 472.234 290.156C471.708 290.156 471.24 290.049 470.828 289.836C470.422 289.622 470.078 289.323 469.797 288.938C469.521 288.552 469.31 288.099 469.164 287.578C469.018 287.057 468.945 286.49 468.945 285.875ZM471.195 285.711V285.875C471.195 286.224 471.221 286.549 471.273 286.852C471.331 287.154 471.422 287.422 471.547 287.656C471.677 287.885 471.844 288.065 472.047 288.195C472.255 288.32 472.508 288.383 472.805 288.383C473.19 288.383 473.508 288.297 473.758 288.125C474.008 287.948 474.198 287.706 474.328 287.398C474.464 287.091 474.542 286.737 474.562 286.336V285.312C474.547 284.984 474.5 284.69 474.422 284.43C474.349 284.164 474.24 283.938 474.094 283.75C473.953 283.562 473.776 283.417 473.562 283.312C473.354 283.208 473.107 283.156 472.82 283.156C472.529 283.156 472.279 283.224 472.07 283.359C471.862 283.49 471.693 283.669 471.562 283.898C471.438 284.128 471.344 284.398 471.281 284.711C471.224 285.018 471.195 285.352 471.195 285.711ZM477.953 285.859V285.695C477.953 285.076 478.042 284.505 478.219 283.984C478.396 283.458 478.654 283.003 478.992 282.617C479.331 282.232 479.747 281.932 480.242 281.719C480.737 281.5 481.305 281.391 481.945 281.391C482.586 281.391 483.156 281.5 483.656 281.719C484.156 281.932 484.576 282.232 484.914 282.617C485.258 283.003 485.518 283.458 485.695 283.984C485.872 284.505 485.961 285.076 485.961 285.695V285.859C485.961 286.474 485.872 287.044 485.695 287.57C485.518 288.091 485.258 288.547 484.914 288.938C484.576 289.323 484.159 289.622 483.664 289.836C483.169 290.049 482.602 290.156 481.961 290.156C481.32 290.156 480.75 290.049 480.25 289.836C479.755 289.622 479.336 289.323 478.992 288.938C478.654 288.547 478.396 288.091 478.219 287.57C478.042 287.044 477.953 286.474 477.953 285.859ZM480.203 285.695V285.859C480.203 286.214 480.234 286.544 480.297 286.852C480.359 287.159 480.458 287.43 480.594 287.664C480.734 287.893 480.917 288.073 481.141 288.203C481.365 288.333 481.638 288.398 481.961 288.398C482.273 288.398 482.542 288.333 482.766 288.203C482.99 288.073 483.169 287.893 483.305 287.664C483.44 287.43 483.539 287.159 483.602 286.852C483.669 286.544 483.703 286.214 483.703 285.859V285.695C483.703 285.352 483.669 285.029 483.602 284.727C483.539 284.419 483.438 284.148 483.297 283.914C483.161 283.674 482.982 283.487 482.758 283.352C482.534 283.216 482.263 283.148 481.945 283.148C481.628 283.148 481.357 283.216 481.133 283.352C480.914 283.487 480.734 283.674 480.594 283.914C480.458 284.148 480.359 284.419 480.297 284.727C480.234 285.029 480.203 285.352 480.203 285.695ZM486.984 285.859V285.695C486.984 285.076 487.073 284.505 487.25 283.984C487.427 283.458 487.685 283.003 488.023 282.617C488.362 282.232 488.779 281.932 489.273 281.719C489.768 281.5 490.336 281.391 490.977 281.391C491.617 281.391 492.188 281.5 492.688 281.719C493.188 281.932 493.607 282.232 493.945 282.617C494.289 283.003 494.549 283.458 494.727 283.984C494.904 284.505 494.992 285.076 494.992 285.695V285.859C494.992 286.474 494.904 287.044 494.727 287.57C494.549 288.091 494.289 288.547 493.945 288.938C493.607 289.323 493.19 289.622 492.695 289.836C492.201 290.049 491.633 290.156 490.992 290.156C490.352 290.156 489.781 290.049 489.281 289.836C488.786 289.622 488.367 289.323 488.023 288.938C487.685 288.547 487.427 288.091 487.25 287.57C487.073 287.044 486.984 286.474 486.984 285.859ZM489.234 285.695V285.859C489.234 286.214 489.266 286.544 489.328 286.852C489.391 287.159 489.49 287.43 489.625 287.664C489.766 287.893 489.948 288.073 490.172 288.203C490.396 288.333 490.669 288.398 490.992 288.398C491.305 288.398 491.573 288.333 491.797 288.203C492.021 288.073 492.201 287.893 492.336 287.664C492.471 287.43 492.57 287.159 492.633 286.852C492.701 286.544 492.734 286.214 492.734 285.859V285.695C492.734 285.352 492.701 285.029 492.633 284.727C492.57 284.419 492.469 284.148 492.328 283.914C492.193 283.674 492.013 283.487 491.789 283.352C491.565 283.216 491.294 283.148 490.977 283.148C490.659 283.148 490.388 283.216 490.164 283.352C489.945 283.487 489.766 283.674 489.625 283.914C489.49 284.148 489.391 284.419 489.328 284.727C489.266 285.029 489.234 285.352 489.234 285.695ZM498.625 283.391V290H496.375V281.547H498.492L498.625 283.391ZM501.172 281.492L501.133 283.578C501.023 283.562 500.891 283.549 500.734 283.539C500.583 283.523 500.445 283.516 500.32 283.516C500.003 283.516 499.727 283.557 499.492 283.641C499.263 283.719 499.07 283.836 498.914 283.992C498.763 284.148 498.648 284.339 498.57 284.562C498.497 284.786 498.456 285.042 498.445 285.328L497.992 285.188C497.992 284.641 498.047 284.138 498.156 283.68C498.266 283.216 498.424 282.812 498.633 282.469C498.846 282.125 499.107 281.859 499.414 281.672C499.721 281.484 500.073 281.391 500.469 281.391C500.594 281.391 500.721 281.401 500.852 281.422C500.982 281.438 501.089 281.461 501.172 281.492Z" fill="#6D5C3F"/>
<path d="M401 316.5L442.5 294" stroke="#6D5C3F"/>
<path d="M137.609 481.227H139.945C139.898 481.992 139.688 482.672 139.312 483.266C138.943 483.859 138.424 484.323 137.758 484.656C137.096 484.99 136.299 485.156 135.367 485.156C134.638 485.156 133.984 485.031 133.406 484.781C132.828 484.526 132.333 484.161 131.922 483.688C131.516 483.214 131.206 482.641 130.992 481.969C130.779 481.297 130.672 480.544 130.672 479.711V478.922C130.672 478.089 130.781 477.336 131 476.664C131.224 475.987 131.542 475.411 131.953 474.938C132.37 474.464 132.867 474.099 133.445 473.844C134.023 473.589 134.669 473.461 135.383 473.461C136.331 473.461 137.13 473.633 137.781 473.977C138.438 474.32 138.945 474.794 139.305 475.398C139.669 476.003 139.888 476.69 139.961 477.461H137.617C137.591 477.003 137.5 476.615 137.344 476.297C137.188 475.974 136.951 475.732 136.633 475.57C136.32 475.404 135.904 475.32 135.383 475.32C134.992 475.32 134.651 475.393 134.359 475.539C134.068 475.685 133.823 475.906 133.625 476.203C133.427 476.5 133.279 476.875 133.18 477.328C133.086 477.776 133.039 478.302 133.039 478.906V479.711C133.039 480.299 133.083 480.818 133.172 481.266C133.26 481.708 133.396 482.083 133.578 482.391C133.766 482.693 134.005 482.922 134.297 483.078C134.594 483.229 134.951 483.305 135.367 483.305C135.857 483.305 136.26 483.227 136.578 483.07C136.896 482.914 137.138 482.682 137.305 482.375C137.477 482.068 137.578 481.685 137.609 481.227ZM143.719 473V485H141.461V473H143.719ZM149.469 485.156C148.812 485.156 148.224 485.052 147.703 484.844C147.182 484.63 146.74 484.336 146.375 483.961C146.016 483.586 145.74 483.151 145.547 482.656C145.354 482.156 145.258 481.625 145.258 481.062V480.75C145.258 480.109 145.349 479.523 145.531 478.992C145.714 478.461 145.974 478 146.312 477.609C146.656 477.219 147.073 476.919 147.562 476.711C148.052 476.497 148.604 476.391 149.219 476.391C149.818 476.391 150.349 476.49 150.812 476.688C151.276 476.885 151.664 477.167 151.977 477.531C152.294 477.896 152.534 478.333 152.695 478.844C152.857 479.349 152.938 479.911 152.938 480.531V481.469H146.219V479.969H150.727V479.797C150.727 479.484 150.669 479.206 150.555 478.961C150.445 478.711 150.279 478.513 150.055 478.367C149.831 478.221 149.544 478.148 149.195 478.148C148.898 478.148 148.643 478.214 148.43 478.344C148.216 478.474 148.042 478.656 147.906 478.891C147.776 479.125 147.677 479.401 147.609 479.719C147.547 480.031 147.516 480.375 147.516 480.75V481.062C147.516 481.401 147.562 481.714 147.656 482C147.755 482.286 147.893 482.534 148.07 482.742C148.253 482.951 148.471 483.112 148.727 483.227C148.987 483.341 149.281 483.398 149.609 483.398C150.016 483.398 150.393 483.32 150.742 483.164C151.096 483.003 151.401 482.76 151.656 482.438L152.75 483.625C152.573 483.88 152.331 484.125 152.023 484.359C151.721 484.594 151.357 484.786 150.93 484.938C150.503 485.083 150.016 485.156 149.469 485.156ZM158.781 483.094V479.328C158.781 479.057 158.737 478.826 158.648 478.633C158.56 478.435 158.422 478.281 158.234 478.172C158.052 478.062 157.815 478.008 157.523 478.008C157.273 478.008 157.057 478.052 156.875 478.141C156.693 478.224 156.552 478.346 156.453 478.508C156.354 478.664 156.305 478.849 156.305 479.062H154.055C154.055 478.703 154.138 478.362 154.305 478.039C154.471 477.716 154.714 477.432 155.031 477.188C155.349 476.938 155.727 476.742 156.164 476.602C156.607 476.461 157.102 476.391 157.648 476.391C158.305 476.391 158.888 476.5 159.398 476.719C159.909 476.938 160.31 477.266 160.602 477.703C160.898 478.141 161.047 478.688 161.047 479.344V482.961C161.047 483.424 161.076 483.805 161.133 484.102C161.19 484.393 161.273 484.648 161.383 484.867V485H159.109C159 484.771 158.917 484.484 158.859 484.141C158.807 483.792 158.781 483.443 158.781 483.094ZM159.078 479.852L159.094 481.125H157.836C157.539 481.125 157.281 481.159 157.062 481.227C156.844 481.294 156.664 481.391 156.523 481.516C156.383 481.635 156.279 481.776 156.211 481.938C156.148 482.099 156.117 482.276 156.117 482.469C156.117 482.661 156.161 482.836 156.25 482.992C156.339 483.143 156.466 483.263 156.633 483.352C156.799 483.435 156.995 483.477 157.219 483.477C157.557 483.477 157.852 483.409 158.102 483.273C158.352 483.138 158.544 482.971 158.68 482.773C158.82 482.576 158.893 482.388 158.898 482.211L159.492 483.164C159.409 483.378 159.294 483.599 159.148 483.828C159.008 484.057 158.828 484.273 158.609 484.477C158.391 484.674 158.128 484.839 157.82 484.969C157.513 485.094 157.148 485.156 156.727 485.156C156.19 485.156 155.703 485.049 155.266 484.836C154.833 484.617 154.49 484.318 154.234 483.938C153.984 483.552 153.859 483.115 153.859 482.625C153.859 482.182 153.943 481.789 154.109 481.445C154.276 481.102 154.521 480.812 154.844 480.578C155.172 480.339 155.581 480.159 156.07 480.039C156.56 479.914 157.128 479.852 157.773 479.852H159.078ZM164.984 478.352V485H162.734V476.547H164.844L164.984 478.352ZM164.656 480.477H164.047C164.047 479.852 164.128 479.289 164.289 478.789C164.451 478.284 164.677 477.854 164.969 477.5C165.26 477.141 165.607 476.867 166.008 476.68C166.414 476.487 166.867 476.391 167.367 476.391C167.763 476.391 168.125 476.448 168.453 476.562C168.781 476.677 169.062 476.859 169.297 477.109C169.536 477.359 169.719 477.69 169.844 478.102C169.974 478.513 170.039 479.016 170.039 479.609V485H167.773V479.602C167.773 479.227 167.721 478.935 167.617 478.727C167.513 478.518 167.359 478.372 167.156 478.289C166.958 478.201 166.714 478.156 166.422 478.156C166.12 478.156 165.857 478.216 165.633 478.336C165.414 478.456 165.232 478.622 165.086 478.836C164.945 479.044 164.839 479.289 164.766 479.57C164.693 479.852 164.656 480.154 164.656 480.477ZM174.125 476.547V485H171.867V476.547H174.125ZM171.727 474.344C171.727 474.016 171.841 473.745 172.07 473.531C172.299 473.318 172.607 473.211 172.992 473.211C173.372 473.211 173.677 473.318 173.906 473.531C174.141 473.745 174.258 474.016 174.258 474.344C174.258 474.672 174.141 474.943 173.906 475.156C173.677 475.37 173.372 475.477 172.992 475.477C172.607 475.477 172.299 475.37 172.07 475.156C171.841 474.943 171.727 474.672 171.727 474.344ZM178.188 478.352V485H175.938V476.547H178.047L178.188 478.352ZM177.859 480.477H177.25C177.25 479.852 177.331 479.289 177.492 478.789C177.654 478.284 177.88 477.854 178.172 477.5C178.464 477.141 178.81 476.867 179.211 476.68C179.617 476.487 180.07 476.391 180.57 476.391C180.966 476.391 181.328 476.448 181.656 476.562C181.984 476.677 182.266 476.859 182.5 477.109C182.74 477.359 182.922 477.69 183.047 478.102C183.177 478.513 183.242 479.016 183.242 479.609V485H180.977V479.602C180.977 479.227 180.924 478.935 180.82 478.727C180.716 478.518 180.562 478.372 180.359 478.289C180.161 478.201 179.917 478.156 179.625 478.156C179.323 478.156 179.06 478.216 178.836 478.336C178.617 478.456 178.435 478.622 178.289 478.836C178.148 479.044 178.042 479.289 177.969 479.57C177.896 479.852 177.859 480.154 177.859 480.477ZM190.305 476.547H192.344V484.719C192.344 485.49 192.172 486.143 191.828 486.68C191.49 487.221 191.016 487.63 190.406 487.906C189.797 488.188 189.089 488.328 188.281 488.328C187.927 488.328 187.552 488.281 187.156 488.188C186.766 488.094 186.391 487.948 186.031 487.75C185.677 487.552 185.38 487.302 185.141 487L186.133 485.672C186.393 485.974 186.695 486.208 187.039 486.375C187.383 486.547 187.763 486.633 188.18 486.633C188.586 486.633 188.93 486.557 189.211 486.406C189.492 486.26 189.708 486.044 189.859 485.758C190.01 485.477 190.086 485.135 190.086 484.734V478.5L190.305 476.547ZM184.617 480.875V480.711C184.617 480.065 184.695 479.479 184.852 478.953C185.013 478.422 185.24 477.966 185.531 477.586C185.828 477.206 186.188 476.911 186.609 476.703C187.031 476.495 187.508 476.391 188.039 476.391C188.602 476.391 189.073 476.495 189.453 476.703C189.833 476.911 190.146 477.208 190.391 477.594C190.635 477.974 190.826 478.424 190.961 478.945C191.102 479.461 191.211 480.026 191.289 480.641V481C191.211 481.589 191.094 482.135 190.938 482.641C190.781 483.146 190.576 483.589 190.32 483.969C190.065 484.344 189.747 484.635 189.367 484.844C188.992 485.052 188.544 485.156 188.023 485.156C187.503 485.156 187.031 485.049 186.609 484.836C186.193 484.622 185.836 484.323 185.539 483.938C185.242 483.552 185.013 483.099 184.852 482.578C184.695 482.057 184.617 481.49 184.617 480.875ZM186.867 480.711V480.875C186.867 481.224 186.901 481.549 186.969 481.852C187.036 482.154 187.141 482.422 187.281 482.656C187.427 482.885 187.607 483.065 187.82 483.195C188.039 483.32 188.297 483.383 188.594 483.383C189.005 483.383 189.341 483.297 189.602 483.125C189.862 482.948 190.057 482.706 190.188 482.398C190.318 482.091 190.393 481.737 190.414 481.336V480.312C190.404 479.984 190.359 479.69 190.281 479.43C190.203 479.164 190.094 478.938 189.953 478.75C189.812 478.562 189.63 478.417 189.406 478.312C189.182 478.208 188.917 478.156 188.609 478.156C188.312 478.156 188.055 478.224 187.836 478.359C187.622 478.49 187.443 478.669 187.297 478.898C187.156 479.128 187.049 479.398 186.977 479.711C186.904 480.018 186.867 480.352 186.867 480.711Z" fill="#6D5C3F"/>
<path d="M136 436.5L146 470.5" stroke="#6D5C3F"/>
<path d="M94.3281 359.172V361H88.6016V359.172H94.3281ZM89.3594 349.625V361H87.0156V349.625H89.3594ZM100.094 359.094V355.328C100.094 355.057 100.049 354.826 99.9609 354.633C99.8724 354.435 99.7344 354.281 99.5469 354.172C99.3646 354.062 99.1276 354.008 98.8359 354.008C98.5859 354.008 98.3698 354.052 98.1875 354.141C98.0052 354.224 97.8646 354.346 97.7656 354.508C97.6667 354.664 97.6172 354.849 97.6172 355.062H95.3672C95.3672 354.703 95.4505 354.362 95.6172 354.039C95.7839 353.716 96.026 353.432 96.3438 353.188C96.6615 352.938 97.0391 352.742 97.4766 352.602C97.9193 352.461 98.4141 352.391 98.9609 352.391C99.6172 352.391 100.201 352.5 100.711 352.719C101.221 352.938 101.622 353.266 101.914 353.703C102.211 354.141 102.359 354.688 102.359 355.344V358.961C102.359 359.424 102.388 359.805 102.445 360.102C102.503 360.393 102.586 360.648 102.695 360.867V361H100.422C100.312 360.771 100.229 360.484 100.172 360.141C100.12 359.792 100.094 359.443 100.094 359.094ZM100.391 355.852L100.406 357.125H99.1484C98.8516 357.125 98.5938 357.159 98.375 357.227C98.1562 357.294 97.9766 357.391 97.8359 357.516C97.6953 357.635 97.5911 357.776 97.5234 357.938C97.4609 358.099 97.4297 358.276 97.4297 358.469C97.4297 358.661 97.474 358.836 97.5625 358.992C97.651 359.143 97.7786 359.263 97.9453 359.352C98.112 359.435 98.3073 359.477 98.5312 359.477C98.8698 359.477 99.1641 359.409 99.4141 359.273C99.6641 359.138 99.8568 358.971 99.9922 358.773C100.133 358.576 100.206 358.388 100.211 358.211L100.805 359.164C100.721 359.378 100.607 359.599 100.461 359.828C100.32 360.057 100.141 360.273 99.9219 360.477C99.7031 360.674 99.4401 360.839 99.1328 360.969C98.8255 361.094 98.4609 361.156 98.0391 361.156C97.5026 361.156 97.0156 361.049 96.5781 360.836C96.1458 360.617 95.8021 360.318 95.5469 359.938C95.2969 359.552 95.1719 359.115 95.1719 358.625C95.1719 358.182 95.2552 357.789 95.4219 357.445C95.5885 357.102 95.8333 356.812 96.1562 356.578C96.4844 356.339 96.8932 356.159 97.3828 356.039C97.8724 355.914 98.4401 355.852 99.0859 355.852H100.391ZM109.094 358.977V352.547H111.344V361H109.227L109.094 358.977ZM109.344 357.242L110.008 357.227C110.008 357.789 109.943 358.312 109.812 358.797C109.682 359.276 109.487 359.693 109.227 360.047C108.966 360.396 108.638 360.669 108.242 360.867C107.846 361.06 107.38 361.156 106.844 361.156C106.432 361.156 106.052 361.099 105.703 360.984C105.359 360.865 105.062 360.68 104.812 360.43C104.568 360.174 104.375 359.849 104.234 359.453C104.099 359.052 104.031 358.57 104.031 358.008V352.547H106.281V358.023C106.281 358.273 106.31 358.484 106.367 358.656C106.43 358.828 106.516 358.969 106.625 359.078C106.734 359.188 106.862 359.266 107.008 359.312C107.159 359.359 107.326 359.383 107.508 359.383C107.971 359.383 108.336 359.289 108.602 359.102C108.872 358.914 109.062 358.659 109.172 358.336C109.286 358.008 109.344 357.643 109.344 357.242ZM115.266 354.352V361H113.016V352.547H115.125L115.266 354.352ZM114.938 356.477H114.328C114.328 355.852 114.409 355.289 114.57 354.789C114.732 354.284 114.958 353.854 115.25 353.5C115.542 353.141 115.888 352.867 116.289 352.68C116.695 352.487 117.148 352.391 117.648 352.391C118.044 352.391 118.406 352.448 118.734 352.562C119.062 352.677 119.344 352.859 119.578 353.109C119.818 353.359 120 353.69 120.125 354.102C120.255 354.513 120.32 355.016 120.32 355.609V361H118.055V355.602C118.055 355.227 118.003 354.935 117.898 354.727C117.794 354.518 117.641 354.372 117.438 354.289C117.24 354.201 116.995 354.156 116.703 354.156C116.401 354.156 116.138 354.216 115.914 354.336C115.695 354.456 115.513 354.622 115.367 354.836C115.227 355.044 115.12 355.289 115.047 355.57C114.974 355.852 114.938 356.154 114.938 356.477ZM127.023 359.156V349H129.289V361H127.25L127.023 359.156ZM121.68 356.875V356.711C121.68 356.065 121.753 355.479 121.898 354.953C122.044 354.422 122.258 353.966 122.539 353.586C122.82 353.206 123.167 352.911 123.578 352.703C123.99 352.495 124.458 352.391 124.984 352.391C125.479 352.391 125.911 352.495 126.281 352.703C126.656 352.911 126.974 353.208 127.234 353.594C127.5 353.974 127.714 354.424 127.875 354.945C128.036 355.461 128.154 356.026 128.227 356.641V357C128.154 357.589 128.036 358.135 127.875 358.641C127.714 359.146 127.5 359.589 127.234 359.969C126.974 360.344 126.656 360.635 126.281 360.844C125.906 361.052 125.469 361.156 124.969 361.156C124.443 361.156 123.974 361.049 123.562 360.836C123.156 360.622 122.812 360.323 122.531 359.938C122.255 359.552 122.044 359.099 121.898 358.578C121.753 358.057 121.68 357.49 121.68 356.875ZM123.93 356.711V356.875C123.93 357.224 123.956 357.549 124.008 357.852C124.065 358.154 124.156 358.422 124.281 358.656C124.411 358.885 124.578 359.065 124.781 359.195C124.99 359.32 125.242 359.383 125.539 359.383C125.924 359.383 126.242 359.297 126.492 359.125C126.742 358.948 126.932 358.706 127.062 358.398C127.198 358.091 127.276 357.737 127.297 357.336V356.312C127.281 355.984 127.234 355.69 127.156 355.43C127.083 355.164 126.974 354.938 126.828 354.75C126.688 354.562 126.51 354.417 126.297 354.312C126.089 354.208 125.841 354.156 125.555 354.156C125.263 354.156 125.013 354.224 124.805 354.359C124.596 354.49 124.427 354.669 124.297 354.898C124.172 355.128 124.078 355.398 124.016 355.711C123.958 356.018 123.93 356.352 123.93 356.711ZM133.297 354.391V361H131.047V352.547H133.164L133.297 354.391ZM135.844 352.492L135.805 354.578C135.695 354.562 135.562 354.549 135.406 354.539C135.255 354.523 135.117 354.516 134.992 354.516C134.674 354.516 134.398 354.557 134.164 354.641C133.935 354.719 133.742 354.836 133.586 354.992C133.435 355.148 133.32 355.339 133.242 355.562C133.169 355.786 133.128 356.042 133.117 356.328L132.664 356.188C132.664 355.641 132.719 355.138 132.828 354.68C132.938 354.216 133.096 353.812 133.305 353.469C133.518 353.125 133.779 352.859 134.086 352.672C134.393 352.484 134.745 352.391 135.141 352.391C135.266 352.391 135.393 352.401 135.523 352.422C135.654 352.438 135.76 352.461 135.844 352.492ZM139.555 360.047L141.797 352.547H144.211L140.812 362.273C140.74 362.487 140.641 362.716 140.516 362.961C140.396 363.206 140.232 363.438 140.023 363.656C139.82 363.88 139.562 364.062 139.25 364.203C138.943 364.344 138.565 364.414 138.117 364.414C137.904 364.414 137.729 364.401 137.594 364.375C137.458 364.349 137.297 364.312 137.109 364.266V362.617C137.167 362.617 137.227 362.617 137.289 362.617C137.352 362.622 137.411 362.625 137.469 362.625C137.766 362.625 138.008 362.591 138.195 362.523C138.383 362.456 138.534 362.352 138.648 362.211C138.763 362.076 138.854 361.898 138.922 361.68L139.555 360.047ZM138.617 352.547L140.453 358.672L140.773 361.055L139.242 361.219L136.203 352.547H138.617Z" fill="#6D5C3F"/>
<path d="M162 325L135 345.5" stroke="#6D5C3F"/>
<path d="M192.609 278.727H194.945C194.898 279.492 194.688 280.172 194.312 280.766C193.943 281.359 193.424 281.823 192.758 282.156C192.096 282.49 191.299 282.656 190.367 282.656C189.638 282.656 188.984 282.531 188.406 282.281C187.828 282.026 187.333 281.661 186.922 281.188C186.516 280.714 186.206 280.141 185.992 279.469C185.779 278.797 185.672 278.044 185.672 277.211V276.422C185.672 275.589 185.781 274.836 186 274.164C186.224 273.487 186.542 272.911 186.953 272.438C187.37 271.964 187.867 271.599 188.445 271.344C189.023 271.089 189.669 270.961 190.383 270.961C191.331 270.961 192.13 271.133 192.781 271.477C193.438 271.82 193.945 272.294 194.305 272.898C194.669 273.503 194.888 274.19 194.961 274.961H192.617C192.591 274.503 192.5 274.115 192.344 273.797C192.188 273.474 191.951 273.232 191.633 273.07C191.32 272.904 190.904 272.82 190.383 272.82C189.992 272.82 189.651 272.893 189.359 273.039C189.068 273.185 188.823 273.406 188.625 273.703C188.427 274 188.279 274.375 188.18 274.828C188.086 275.276 188.039 275.802 188.039 276.406V277.211C188.039 277.799 188.083 278.318 188.172 278.766C188.26 279.208 188.396 279.583 188.578 279.891C188.766 280.193 189.005 280.422 189.297 280.578C189.594 280.729 189.951 280.805 190.367 280.805C190.857 280.805 191.26 280.727 191.578 280.57C191.896 280.414 192.138 280.182 192.305 279.875C192.477 279.568 192.578 279.185 192.609 278.727ZM195.984 278.359V278.195C195.984 277.576 196.073 277.005 196.25 276.484C196.427 275.958 196.685 275.503 197.023 275.117C197.362 274.732 197.779 274.432 198.273 274.219C198.768 274 199.336 273.891 199.977 273.891C200.617 273.891 201.188 274 201.688 274.219C202.188 274.432 202.607 274.732 202.945 275.117C203.289 275.503 203.549 275.958 203.727 276.484C203.904 277.005 203.992 277.576 203.992 278.195V278.359C203.992 278.974 203.904 279.544 203.727 280.07C203.549 280.591 203.289 281.047 202.945 281.438C202.607 281.823 202.19 282.122 201.695 282.336C201.201 282.549 200.633 282.656 199.992 282.656C199.352 282.656 198.781 282.549 198.281 282.336C197.786 282.122 197.367 281.823 197.023 281.438C196.685 281.047 196.427 280.591 196.25 280.07C196.073 279.544 195.984 278.974 195.984 278.359ZM198.234 278.195V278.359C198.234 278.714 198.266 279.044 198.328 279.352C198.391 279.659 198.49 279.93 198.625 280.164C198.766 280.393 198.948 280.573 199.172 280.703C199.396 280.833 199.669 280.898 199.992 280.898C200.305 280.898 200.573 280.833 200.797 280.703C201.021 280.573 201.201 280.393 201.336 280.164C201.471 279.93 201.57 279.659 201.633 279.352C201.701 279.044 201.734 278.714 201.734 278.359V278.195C201.734 277.852 201.701 277.529 201.633 277.227C201.57 276.919 201.469 276.648 201.328 276.414C201.193 276.174 201.013 275.987 200.789 275.852C200.565 275.716 200.294 275.648 199.977 275.648C199.659 275.648 199.388 275.716 199.164 275.852C198.945 275.987 198.766 276.174 198.625 276.414C198.49 276.648 198.391 276.919 198.328 277.227C198.266 277.529 198.234 277.852 198.234 278.195ZM205.016 278.359V278.195C205.016 277.576 205.104 277.005 205.281 276.484C205.458 275.958 205.716 275.503 206.055 275.117C206.393 274.732 206.81 274.432 207.305 274.219C207.799 274 208.367 273.891 209.008 273.891C209.648 273.891 210.219 274 210.719 274.219C211.219 274.432 211.638 274.732 211.977 275.117C212.32 275.503 212.581 275.958 212.758 276.484C212.935 277.005 213.023 277.576 213.023 278.195V278.359C213.023 278.974 212.935 279.544 212.758 280.07C212.581 280.591 212.32 281.047 211.977 281.438C211.638 281.823 211.221 282.122 210.727 282.336C210.232 282.549 209.664 282.656 209.023 282.656C208.383 282.656 207.812 282.549 207.312 282.336C206.818 282.122 206.398 281.823 206.055 281.438C205.716 281.047 205.458 280.591 205.281 280.07C205.104 279.544 205.016 278.974 205.016 278.359ZM207.266 278.195V278.359C207.266 278.714 207.297 279.044 207.359 279.352C207.422 279.659 207.521 279.93 207.656 280.164C207.797 280.393 207.979 280.573 208.203 280.703C208.427 280.833 208.701 280.898 209.023 280.898C209.336 280.898 209.604 280.833 209.828 280.703C210.052 280.573 210.232 280.393 210.367 280.164C210.503 279.93 210.602 279.659 210.664 279.352C210.732 279.044 210.766 278.714 210.766 278.359V278.195C210.766 277.852 210.732 277.529 210.664 277.227C210.602 276.919 210.5 276.648 210.359 276.414C210.224 276.174 210.044 275.987 209.82 275.852C209.596 275.716 209.326 275.648 209.008 275.648C208.69 275.648 208.419 275.716 208.195 275.852C207.977 275.987 207.797 276.174 207.656 276.414C207.521 276.648 207.422 276.919 207.359 277.227C207.297 277.529 207.266 277.852 207.266 278.195ZM216.656 270.492V282.5H214.406V270.492H216.656ZM221.984 274.047L218.312 278.234L216.344 280.227L215.523 278.602L217.086 276.617L219.281 274.047H221.984ZM219.648 282.5L217.148 278.594L218.703 277.234L222.242 282.5H219.648ZM225.328 274.047V282.5H223.07V274.047H225.328ZM222.93 271.844C222.93 271.516 223.044 271.245 223.273 271.031C223.503 270.818 223.81 270.711 224.195 270.711C224.576 270.711 224.88 270.818 225.109 271.031C225.344 271.245 225.461 271.516 225.461 271.844C225.461 272.172 225.344 272.443 225.109 272.656C224.88 272.87 224.576 272.977 224.195 272.977C223.81 272.977 223.503 272.87 223.273 272.656C223.044 272.443 222.93 272.172 222.93 271.844ZM229.391 275.852V282.5H227.141V274.047H229.25L229.391 275.852ZM229.062 277.977H228.453C228.453 277.352 228.534 276.789 228.695 276.289C228.857 275.784 229.083 275.354 229.375 275C229.667 274.641 230.013 274.367 230.414 274.18C230.82 273.987 231.273 273.891 231.773 273.891C232.169 273.891 232.531 273.948 232.859 274.062C233.188 274.177 233.469 274.359 233.703 274.609C233.943 274.859 234.125 275.19 234.25 275.602C234.38 276.013 234.445 276.516 234.445 277.109V282.5H232.18V277.102C232.18 276.727 232.128 276.435 232.023 276.227C231.919 276.018 231.766 275.872 231.562 275.789C231.365 275.701 231.12 275.656 230.828 275.656C230.526 275.656 230.263 275.716 230.039 275.836C229.82 275.956 229.638 276.122 229.492 276.336C229.352 276.544 229.245 276.789 229.172 277.07C229.099 277.352 229.062 277.654 229.062 277.977ZM241.508 274.047H243.547V282.219C243.547 282.99 243.375 283.643 243.031 284.18C242.693 284.721 242.219 285.13 241.609 285.406C241 285.688 240.292 285.828 239.484 285.828C239.13 285.828 238.755 285.781 238.359 285.688C237.969 285.594 237.594 285.448 237.234 285.25C236.88 285.052 236.583 284.802 236.344 284.5L237.336 283.172C237.596 283.474 237.898 283.708 238.242 283.875C238.586 284.047 238.966 284.133 239.383 284.133C239.789 284.133 240.133 284.057 240.414 283.906C240.695 283.76 240.911 283.544 241.062 283.258C241.214 282.977 241.289 282.635 241.289 282.234V276L241.508 274.047ZM235.82 278.375V278.211C235.82 277.565 235.898 276.979 236.055 276.453C236.216 275.922 236.443 275.466 236.734 275.086C237.031 274.706 237.391 274.411 237.812 274.203C238.234 273.995 238.711 273.891 239.242 273.891C239.805 273.891 240.276 273.995 240.656 274.203C241.036 274.411 241.349 274.708 241.594 275.094C241.839 275.474 242.029 275.924 242.164 276.445C242.305 276.961 242.414 277.526 242.492 278.141V278.5C242.414 279.089 242.297 279.635 242.141 280.141C241.984 280.646 241.779 281.089 241.523 281.469C241.268 281.844 240.951 282.135 240.57 282.344C240.195 282.552 239.747 282.656 239.227 282.656C238.706 282.656 238.234 282.549 237.812 282.336C237.396 282.122 237.039 281.823 236.742 281.438C236.445 281.052 236.216 280.599 236.055 280.078C235.898 279.557 235.82 278.99 235.82 278.375ZM238.07 278.211V278.375C238.07 278.724 238.104 279.049 238.172 279.352C238.24 279.654 238.344 279.922 238.484 280.156C238.63 280.385 238.81 280.565 239.023 280.695C239.242 280.82 239.5 280.883 239.797 280.883C240.208 280.883 240.544 280.797 240.805 280.625C241.065 280.448 241.26 280.206 241.391 279.898C241.521 279.591 241.596 279.237 241.617 278.836V277.812C241.607 277.484 241.562 277.19 241.484 276.93C241.406 276.664 241.297 276.438 241.156 276.25C241.016 276.062 240.833 275.917 240.609 275.812C240.385 275.708 240.12 275.656 239.812 275.656C239.516 275.656 239.258 275.724 239.039 275.859C238.826 275.99 238.646 276.169 238.5 276.398C238.359 276.628 238.253 276.898 238.18 277.211C238.107 277.518 238.07 277.852 238.07 278.211Z" fill="#6D5C3F"/>
<path d="M230 268L249 243" stroke="#6D5C3F"/>
<path d="M330.109 220.227H332.445C332.398 220.992 332.188 221.672 331.812 222.266C331.443 222.859 330.924 223.323 330.258 223.656C329.596 223.99 328.799 224.156 327.867 224.156C327.138 224.156 326.484 224.031 325.906 223.781C325.328 223.526 324.833 223.161 324.422 222.688C324.016 222.214 323.706 221.641 323.492 220.969C323.279 220.297 323.172 219.544 323.172 218.711V217.922C323.172 217.089 323.281 216.336 323.5 215.664C323.724 214.987 324.042 214.411 324.453 213.938C324.87 213.464 325.367 213.099 325.945 212.844C326.523 212.589 327.169 212.461 327.883 212.461C328.831 212.461 329.63 212.633 330.281 212.977C330.938 213.32 331.445 213.794 331.805 214.398C332.169 215.003 332.388 215.69 332.461 216.461H330.117C330.091 216.003 330 215.615 329.844 215.297C329.688 214.974 329.451 214.732 329.133 214.57C328.82 214.404 328.404 214.32 327.883 214.32C327.492 214.32 327.151 214.393 326.859 214.539C326.568 214.685 326.323 214.906 326.125 215.203C325.927 215.5 325.779 215.875 325.68 216.328C325.586 216.776 325.539 217.302 325.539 217.906V218.711C325.539 219.299 325.583 219.818 325.672 220.266C325.76 220.708 325.896 221.083 326.078 221.391C326.266 221.693 326.505 221.922 326.797 222.078C327.094 222.229 327.451 222.305 327.867 222.305C328.357 222.305 328.76 222.227 329.078 222.07C329.396 221.914 329.638 221.682 329.805 221.375C329.977 221.068 330.078 220.685 330.109 220.227ZM336.039 212V224H333.789V212H336.039ZM335.719 219.477H335.102C335.107 218.888 335.185 218.346 335.336 217.852C335.487 217.352 335.703 216.919 335.984 216.555C336.266 216.185 336.602 215.898 336.992 215.695C337.388 215.492 337.826 215.391 338.305 215.391C338.721 215.391 339.099 215.451 339.438 215.57C339.781 215.685 340.076 215.872 340.32 216.133C340.57 216.388 340.763 216.724 340.898 217.141C341.034 217.557 341.102 218.062 341.102 218.656V224H338.836V218.641C338.836 218.266 338.781 217.971 338.672 217.758C338.568 217.539 338.414 217.385 338.211 217.297C338.013 217.203 337.768 217.156 337.477 217.156C337.154 217.156 336.878 217.216 336.648 217.336C336.424 217.456 336.245 217.622 336.109 217.836C335.974 218.044 335.875 218.289 335.812 218.57C335.75 218.852 335.719 219.154 335.719 219.477ZM345.188 215.547V224H342.93V215.547H345.188ZM342.789 213.344C342.789 213.016 342.904 212.745 343.133 212.531C343.362 212.318 343.669 212.211 344.055 212.211C344.435 212.211 344.74 212.318 344.969 212.531C345.203 212.745 345.32 213.016 345.32 213.344C345.32 213.672 345.203 213.943 344.969 214.156C344.74 214.37 344.435 214.477 344.055 214.477C343.669 214.477 343.362 214.37 343.133 214.156C342.904 213.943 342.789 213.672 342.789 213.344ZM349.422 212V224H347.164V212H349.422ZM356.273 222.156V212H358.539V224H356.5L356.273 222.156ZM350.93 219.875V219.711C350.93 219.065 351.003 218.479 351.148 217.953C351.294 217.422 351.508 216.966 351.789 216.586C352.07 216.206 352.417 215.911 352.828 215.703C353.24 215.495 353.708 215.391 354.234 215.391C354.729 215.391 355.161 215.495 355.531 215.703C355.906 215.911 356.224 216.208 356.484 216.594C356.75 216.974 356.964 217.424 357.125 217.945C357.286 218.461 357.404 219.026 357.477 219.641V220C357.404 220.589 357.286 221.135 357.125 221.641C356.964 222.146 356.75 222.589 356.484 222.969C356.224 223.344 355.906 223.635 355.531 223.844C355.156 224.052 354.719 224.156 354.219 224.156C353.693 224.156 353.224 224.049 352.812 223.836C352.406 223.622 352.062 223.323 351.781 222.938C351.505 222.552 351.294 222.099 351.148 221.578C351.003 221.057 350.93 220.49 350.93 219.875ZM353.18 219.711V219.875C353.18 220.224 353.206 220.549 353.258 220.852C353.315 221.154 353.406 221.422 353.531 221.656C353.661 221.885 353.828 222.065 354.031 222.195C354.24 222.32 354.492 222.383 354.789 222.383C355.174 222.383 355.492 222.297 355.742 222.125C355.992 221.948 356.182 221.706 356.312 221.398C356.448 221.091 356.526 220.737 356.547 220.336V219.312C356.531 218.984 356.484 218.69 356.406 218.43C356.333 218.164 356.224 217.938 356.078 217.75C355.938 217.562 355.76 217.417 355.547 217.312C355.339 217.208 355.091 217.156 354.805 217.156C354.513 217.156 354.263 217.224 354.055 217.359C353.846 217.49 353.677 217.669 353.547 217.898C353.422 218.128 353.328 218.398 353.266 218.711C353.208 219.018 353.18 219.352 353.18 219.711ZM363.789 222.398C364.065 222.398 364.31 222.346 364.523 222.242C364.737 222.133 364.904 221.982 365.023 221.789C365.148 221.591 365.214 221.359 365.219 221.094H367.336C367.331 221.688 367.172 222.216 366.859 222.68C366.547 223.138 366.128 223.5 365.602 223.766C365.076 224.026 364.487 224.156 363.836 224.156C363.18 224.156 362.607 224.047 362.117 223.828C361.633 223.609 361.229 223.307 360.906 222.922C360.583 222.531 360.341 222.078 360.18 221.562C360.018 221.042 359.938 220.484 359.938 219.891V219.664C359.938 219.065 360.018 218.508 360.18 217.992C360.341 217.471 360.583 217.018 360.906 216.633C361.229 216.242 361.633 215.938 362.117 215.719C362.602 215.5 363.169 215.391 363.82 215.391C364.513 215.391 365.12 215.523 365.641 215.789C366.167 216.055 366.578 216.435 366.875 216.93C367.177 217.419 367.331 218 367.336 218.672H365.219C365.214 218.391 365.154 218.135 365.039 217.906C364.93 217.677 364.768 217.495 364.555 217.359C364.346 217.219 364.089 217.148 363.781 217.148C363.453 217.148 363.185 217.219 362.977 217.359C362.768 217.495 362.607 217.682 362.492 217.922C362.378 218.156 362.297 218.424 362.25 218.727C362.208 219.023 362.188 219.336 362.188 219.664V219.891C362.188 220.219 362.208 220.534 362.25 220.836C362.292 221.138 362.37 221.406 362.484 221.641C362.604 221.875 362.768 222.06 362.977 222.195C363.185 222.331 363.456 222.398 363.789 222.398ZM373.203 222.094V218.328C373.203 218.057 373.159 217.826 373.07 217.633C372.982 217.435 372.844 217.281 372.656 217.172C372.474 217.062 372.237 217.008 371.945 217.008C371.695 217.008 371.479 217.052 371.297 217.141C371.115 217.224 370.974 217.346 370.875 217.508C370.776 217.664 370.727 217.849 370.727 218.062H368.477C368.477 217.703 368.56 217.362 368.727 217.039C368.893 216.716 369.135 216.432 369.453 216.188C369.771 215.938 370.148 215.742 370.586 215.602C371.029 215.461 371.523 215.391 372.07 215.391C372.727 215.391 373.31 215.5 373.82 215.719C374.331 215.938 374.732 216.266 375.023 216.703C375.32 217.141 375.469 217.688 375.469 218.344V221.961C375.469 222.424 375.497 222.805 375.555 223.102C375.612 223.393 375.695 223.648 375.805 223.867V224H373.531C373.422 223.771 373.339 223.484 373.281 223.141C373.229 222.792 373.203 222.443 373.203 222.094ZM373.5 218.852L373.516 220.125H372.258C371.961 220.125 371.703 220.159 371.484 220.227C371.266 220.294 371.086 220.391 370.945 220.516C370.805 220.635 370.701 220.776 370.633 220.938C370.57 221.099 370.539 221.276 370.539 221.469C370.539 221.661 370.583 221.836 370.672 221.992C370.76 222.143 370.888 222.263 371.055 222.352C371.221 222.435 371.417 222.477 371.641 222.477C371.979 222.477 372.273 222.409 372.523 222.273C372.773 222.138 372.966 221.971 373.102 221.773C373.242 221.576 373.315 221.388 373.32 221.211L373.914 222.164C373.831 222.378 373.716 222.599 373.57 222.828C373.43 223.057 373.25 223.273 373.031 223.477C372.812 223.674 372.549 223.839 372.242 223.969C371.935 224.094 371.57 224.156 371.148 224.156C370.612 224.156 370.125 224.049 369.688 223.836C369.255 223.617 368.911 223.318 368.656 222.938C368.406 222.552 368.281 222.115 368.281 221.625C368.281 221.182 368.365 220.789 368.531 220.445C368.698 220.102 368.943 219.812 369.266 219.578C369.594 219.339 370.003 219.159 370.492 219.039C370.982 218.914 371.549 218.852 372.195 218.852H373.5ZM379.453 217.391V224H377.203V215.547H379.32L379.453 217.391ZM382 215.492L381.961 217.578C381.852 217.562 381.719 217.549 381.562 217.539C381.411 217.523 381.273 217.516 381.148 217.516C380.831 217.516 380.555 217.557 380.32 217.641C380.091 217.719 379.898 217.836 379.742 217.992C379.591 218.148 379.477 218.339 379.398 218.562C379.326 218.786 379.284 219.042 379.273 219.328L378.82 219.188C378.82 218.641 378.875 218.138 378.984 217.68C379.094 217.216 379.253 216.812 379.461 216.469C379.674 216.125 379.935 215.859 380.242 215.672C380.549 215.484 380.901 215.391 381.297 215.391C381.422 215.391 381.549 215.401 381.68 215.422C381.81 215.438 381.917 215.461 382 215.492ZM386.797 224.156C386.141 224.156 385.552 224.052 385.031 223.844C384.51 223.63 384.068 223.336 383.703 222.961C383.344 222.586 383.068 222.151 382.875 221.656C382.682 221.156 382.586 220.625 382.586 220.062V219.75C382.586 219.109 382.677 218.523 382.859 217.992C383.042 217.461 383.302 217 383.641 216.609C383.984 216.219 384.401 215.919 384.891 215.711C385.38 215.497 385.932 215.391 386.547 215.391C387.146 215.391 387.677 215.49 388.141 215.688C388.604 215.885 388.992 216.167 389.305 216.531C389.622 216.896 389.862 217.333 390.023 217.844C390.185 218.349 390.266 218.911 390.266 219.531V220.469H383.547V218.969H388.055V218.797C388.055 218.484 387.997 218.206 387.883 217.961C387.773 217.711 387.607 217.513 387.383 217.367C387.159 217.221 386.872 217.148 386.523 217.148C386.227 217.148 385.971 217.214 385.758 217.344C385.544 217.474 385.37 217.656 385.234 217.891C385.104 218.125 385.005 218.401 384.938 218.719C384.875 219.031 384.844 219.375 384.844 219.75V220.062C384.844 220.401 384.891 220.714 384.984 221C385.083 221.286 385.221 221.534 385.398 221.742C385.581 221.951 385.799 222.112 386.055 222.227C386.315 222.341 386.609 222.398 386.938 222.398C387.344 222.398 387.721 222.32 388.07 222.164C388.424 222.003 388.729 221.76 388.984 221.438L390.078 222.625C389.901 222.88 389.659 223.125 389.352 223.359C389.049 223.594 388.685 223.786 388.258 223.938C387.831 224.083 387.344 224.156 386.797 224.156Z" fill="#6D5C3F"/>
<path d="M309 245.5L322 228.5" stroke="#6D5C3F"/>
</g>
<defs>
<clipPath id="clip0_975_15685">
<rect width="556" height="680" fill="white"/>
</clipPath>
</defs>
</svg>
