<svg width="556" height="656" viewBox="0 0 556 656" fill="none" xmlns="http://www.w3.org/2000/svg">
<g clip-path="url(#clip0_975_15685)">
<path d="M79.0896 234.447C74.5692 124.569 132.026 88.0284 168.606 101.902C147.887 47.4753 188.472 -23.2792 266.747 7.45578C345.022 38.1908 354.382 101.902 354.382 101.902C354.382 101.902 552.01 65.3401 499.906 162.411C477.548 204.065 467.497 223.235 462.446 231.547C538.729 214.96 608.736 280.052 499.906 350.983C504.632 367.174 511.943 372.214 523.601 452.381C535.259 532.548 436.761 547.681 383.527 521.534C364.992 582.044 291.632 582.684 254.457 531.779C227.691 595.17 152.45 576.601 118.844 545.546C90.8847 519.709 84.6457 449.549 99.0256 432.51C53.4686 474.267 -15.603 397.772 3.15677 341.286C16.1366 302.204 23.7309 285.095 79.0896 234.447Z" fill="#BFD58D"/>
<path d="M79.0896 234.447C74.5692 124.569 132.026 88.0284 168.606 101.902C147.887 47.4753 188.472 -23.2792 266.747 7.45578C345.022 38.1908 354.382 101.902 354.382 101.902C354.382 101.902 552.01 65.3401 499.906 162.411C447.802 259.483 462.536 234.447 451.631 234.447C531.73 208.834 613.868 276.707 499.906 350.983C504.632 367.174 511.943 372.214 523.601 452.381C535.259 532.548 436.761 547.681 383.527 521.534C364.992 582.044 291.632 582.684 254.457 531.779C227.691 595.17 152.45 576.601 118.844 545.546C89.6792 518.595 84.1481 443.416 101.001 430.61C55.4989 476.499 -15.8762 398.594 3.15677 341.286C16.1366 302.204 23.7309 285.095 79.0896 234.447Z" stroke="#BFD58D"/>
<path d="M371.067 410.403C370.459 415.38 360.52 428.046 358 428.755C370.324 425.403 373.755 424.265 383.474 422.148C379.534 419.277 379.069 411.284 379.069 398.363C379.069 381.447 388.025 362.539 384.648 348.444C381.29 334.429 397.128 296.102 403.368 273.051C409.608 250 394.028 289.063 386.704 310.05C379.069 331.927 376.94 340.369 379.069 356.005C381.198 371.642 375.325 375.533 371.067 410.403Z" fill="#6D5C3F" stroke="#6D5C3F" stroke-width="0.146821"/>
<path d="M323.568 492.558H284.312L284.312 491.648C284.33 465.26 284.338 453.459 286.691 436.364C296.208 364.231 292.639 371.795 289.962 337.215C287.285 302.634 286.382 287.959 299.181 231.311C296.505 281.831 298.884 286.694 301.858 312.089C306.761 353.962 314.051 359.368 314.051 399.892C311.916 421.528 314.051 425.558 323.568 492.558Z" fill="#6D5C3F" stroke="#6D5C3F"/>
<path d="M173.214 300.208C155.596 272.459 154 274 162.203 288.683C174.11 309.996 179 318.5 182.978 334.271C185.92 345.931 189.077 356.588 189.077 373.252C189.077 386.98 191.717 399.524 191.5 404C191.282 408.476 185.768 415.28 185.768 415.28L186.468 415.324C193.248 415.751 200.32 416.197 207.204 416.197C207.204 416.197 202.235 402.718 199 392C194.334 376.541 195.332 365.254 191.787 349.5C187.354 329.798 182.132 314.254 173.214 300.208Z" fill="#6D5C3F"/>
<path d="M185.768 415.28C185.768 415.28 191.282 408.476 191.5 404C191.717 399.524 189.077 386.98 189.077 373.252C189.077 356.588 185.92 345.931 182.978 334.271C179 318.5 174.11 309.996 162.203 288.683C154 274 155.596 272.459 173.214 300.208C182.132 314.254 187.354 329.798 191.787 349.5C195.332 365.254 194.334 376.541 199 392C202.235 402.718 207.204 416.197 207.204 416.197C200.32 416.197 193.248 415.751 186.468 415.324M185.768 415.28L186.468 415.324M185.768 415.28C186.001 415.294 186.234 415.309 186.468 415.324" stroke="#6D5C3F" stroke-width="0.146821"/>
<path d="M255.5 268.5C252 252.5 249.999 238 252 239C254 240 255.98 265.034 263.085 280.037C269.01 292.548 275.785 303.455 282.832 309.474C286.062 312.233 289.68 315.832 292.575 313.952C292.299 320.434 292.13 326.332 292.074 331.35C296.118 335.288 292.067 333.32 292.053 334.916C292.053 333.784 292.06 332.594 292.074 331.35C291.434 330.727 290.592 329.956 289.5 329C281.5 322 259 284.5 255.5 268.5Z" fill="#6D5C3F"/>
<path d="M292.053 334.916C292.053 329.221 292.231 322.042 292.575 313.952C289.68 315.832 286.062 312.233 282.832 309.474C275.785 303.455 269.01 292.548 263.085 280.037C255.98 265.034 254 240 252 239C249.999 238 252 252.5 255.5 268.5C259 284.5 281.5 322 289.5 329C297.5 336 292.069 333.067 292.053 334.916Z" stroke="#6D5C3F" stroke-width="0.146821"/>
<path d="M284.198 574.04C284.198 629.363 272.6 639.032 243.752 642.874C214.905 646.715 183.678 656 206.578 656C229.477 656 246.726 652.158 265.759 650.237C284.793 648.316 304.718 631.988 316.912 633.909C329.105 635.83 404.049 651.358 379.365 639.032C361.883 630.302 337.612 619.257 329.105 599.012C323.455 585.566 323.455 493.041 323.455 493.041H284.198V574.04Z" fill="#6D5C3F" stroke="#6D5C3F"/>
<path d="M323.271 492.375H284.015C270.731 468.683 232.445 422.453 185.575 427.063C138.705 431.673 96.6536 405.293 81.4863 391.526C87.4343 391.526 111.226 407.79 142.155 412.656C180.817 418.739 192.415 409.134 220.965 417.458C243.805 424.118 280.346 449.581 298.288 465.162C304.336 451.822 320.95 424.758 339.032 423.221C361.634 421.3 387.805 421.621 410.407 403.692C433.009 385.763 474.942 323.012 457.396 357.269C439.849 391.526 432.117 410.735 405.351 427.063C391.346 435.607 345.277 438.589 335.76 453.956C328.147 466.25 325.352 483.304 323.271 492.375Z" fill="#6D5C3F" stroke="#6D5C3F"/>
</g>
<defs>
<clipPath id="clip0_975_15685">
<rect width="556" height="656" fill="white"/>
</clipPath>
</defs>
</svg>
