<svg width="44" height="44" viewBox="0 0 44 44" fill="none" xmlns="http://www.w3.org/2000/svg">
<g clip-path="url(#clip0_992_15758)">
<path d="M18.6175 24.2137C18.6175 24.2137 2.26821 5.33968 2.00309 20.4947C1.73797 35.6497 18.6175 24.2137 18.6175 24.2137ZM18.6175 24.2137C18.6175 24.2137 26.041 -2.7492 14.8174 2.73635C3.59385 8.22191 18.6175 24.2137 18.6175 24.2137ZM18.6175 24.2137C18.6175 24.2137 40.6228 33.4183 41.9484 17.6125C43.274 1.8066 18.6175 24.2137 18.6175 24.2137ZM18.6175 24.2137C18.6175 24.2137 20.4734 41.1353 30.283 35.6497C40.0925 30.1641 18.6175 24.2137 18.6175 24.2137ZM18.6175 24.2137C18.6175 24.2137 0.0588627 35.6497 7.12883 41.1353C14.1988 46.6208 18.6175 24.2137 18.6175 24.2137Z" stroke="blossomColor" stroke-width="3"/>
</g>
<defs>
<clipPath id="clip0_992_15758">
<rect width="44" height="44" fill="white"/>
</clipPath>
</defs>
</svg>
