<svg width="50" height="81" viewBox="0 0 50 81" fill="none" xmlns="http://www.w3.org/2000/svg">
<path d="M23.5892 46.3037C23.5892 53.2294 23.5892 59.2647 23.5892 67.2905C22.7013 66.0199 21.5819 64.8529 20.2467 63.8575C17.6089 61.896 14.5598 60.9125 11.6286 60.9103C9.32241 60.9103 7.07291 61.5256 5.1988 62.7929L4.71234 63.1222L4.52676 63.677C4.17121 64.749 4 65.8676 4 66.9913C4.0075 70.9425 6.07376 74.954 9.7381 77.6864C12.3747 79.648 15.425 80.6314 18.3551 80.6336C20.6611 80.6336 22.9107 80.0181 24.7848 78.7508L25.135 78.5143H25.1623L25.5113 78.7508C27.3854 80.0181 29.6338 80.6336 31.9411 80.6336C34.8713 80.6314 37.9214 79.6479 40.5592 77.6864C44.2225 74.954 46.2886 70.9425 46.2973 66.9913C46.2973 65.8675 46.1261 64.749 45.7695 63.677L45.584 63.1222L45.0974 62.7929C43.2233 61.5256 40.9738 60.9103 38.6676 60.9103C35.7375 60.9125 32.6874 61.896 30.0495 63.8575C28.8954 64.719 27.9005 65.7068 27.078 66.7798C27.078 58.3742 27.078 51.4485 27.078 46.3037H23.5892ZM22.3056 76.2139C21.1712 76.8445 19.8151 77.1812 18.3556 77.1823C16.2185 77.1834 13.8828 76.4536 11.8342 74.9282C8.97921 72.81 7.47923 69.7257 7.48798 66.9913C7.48798 66.4192 7.55249 65.8631 7.67887 65.3298C8.81346 64.6994 10.1694 64.3625 11.6291 64.3614C13.7672 64.3603 16.1028 65.09 18.1505 66.6155C21.0053 68.7347 22.5053 71.8169 22.4965 74.5524C22.4965 75.1236 22.4322 75.6806 22.3056 76.2139ZM32.1467 66.6157C34.1944 65.0902 36.53 64.3605 38.6681 64.3616C40.1278 64.3625 41.4837 64.6994 42.6183 65.3299C42.7437 65.8633 42.8092 66.4204 42.8092 66.9915C42.8179 69.7259 41.318 72.8103 38.4631 74.9284C36.4144 76.4537 34.0799 77.1835 31.9418 77.1825C30.4821 77.1814 29.1261 76.8445 27.9926 76.2141C27.8639 75.6808 27.8007 75.1238 27.8007 74.5527C27.7917 71.817 29.2917 68.7348 32.1467 66.6157Z" fill="#23CD64"/>
<path d="M22.3056 76.2139C21.1712 76.8445 19.8151 77.1812 18.3556 77.1823C16.2185 77.1834 13.8828 76.4536 11.8342 74.9282C8.97921 72.81 7.47923 69.7257 7.48798 66.9913C7.48798 66.4192 7.55249 65.8631 7.67887 65.3298C8.81346 64.6994 10.1694 64.3625 11.6291 64.3614C13.7672 64.3603 16.1028 65.09 18.1505 66.6155C21.0053 68.7347 22.5053 71.8169 22.4965 74.5524C22.4965 75.1236 22.4322 75.6806 22.3056 76.2139Z" fill="#1A9649"/>
<path d="M32.1467 66.6157C34.1944 65.0902 36.53 64.3605 38.6681 64.3616C40.1278 64.3625 41.4837 64.6994 42.6183 65.3299C42.7437 65.8633 42.8092 66.4204 42.8092 66.9915C42.8179 69.7259 41.318 72.8103 38.4631 74.9284C36.4144 76.4537 34.0799 77.1835 31.9418 77.1825C30.4821 77.1814 29.1261 76.8445 27.9926 76.2141C27.8639 75.6808 27.8007 75.1238 27.8007 74.5527C27.7917 71.817 29.2917 68.7348 32.1467 66.6157Z" fill="#1A9649"/>
<path d="M50 21.4068C50 20.1195 49.798 18.8115 49.3766 17.5261C48.5068 14.8784 46.8231 12.7019 44.6951 11.1975C42.567 9.69329 39.9894 8.85058 37.312 8.84962C37.2465 8.84962 37.1801 8.8544 37.1139 8.85535C36.3826 6.50555 34.9819 4.4471 33.1231 2.91234C30.9256 1.09589 28.0845 -0.00095375 24.9991 6.22294e-07C21.9137 -0.00095375 19.0726 1.09589 16.8761 2.91247C15.0183 4.44724 13.6166 6.50555 12.8843 8.85549C12.8189 8.85453 12.7517 8.84976 12.6862 8.84976C10.0096 8.85072 7.43137 9.69234 5.30308 11.1977C3.17493 12.7011 1.49123 14.8785 0.623414 17.5262C0.201008 18.8116 0 20.1198 0 21.406C0.00192879 25.48 2.01848 29.3179 5.3896 31.6666C4.93248 32.9882 4.70736 34.3611 4.70736 35.7246C4.70833 37.6639 5.15952 39.5872 6.03988 41.3362C6.91914 43.0853 8.22962 44.66 9.93439 45.8834C12.1799 47.4991 14.795 48.2817 17.3751 48.2807C19.4571 48.2807 21.5198 47.6667 23.3729 46.6841H26.4497C28.3479 47.7286 30.4751 48.2807 32.6225 48.2807C35.2038 48.2816 37.8177 47.499 40.0644 45.8834C41.7682 44.659 43.0787 43.0851 43.9579 41.3362C44.8383 39.5863 45.2904 37.6629 45.2904 35.7237C45.2904 34.3603 45.0644 32.9883 44.6083 31.6668C47.9797 29.3187 49.9982 25.4808 50 21.4068Z" fill="flowerColor"/>
<path d="M41.9627 29.7262L40.7024 30.4146L41.3124 31.7047C41.9195 32.9863 42.2148 34.3582 42.2148 35.7235C42.2148 37.1945 41.8714 38.6559 41.2046 39.9793C40.5388 41.3026 39.5535 42.4881 38.2567 43.4211C36.5471 44.6494 34.5815 45.2358 32.6227 45.2367C30.229 45.2358 27.8613 44.3531 26.0506 42.6756L24.999 41.7016L23.9483 42.6756C22.1376 44.3531 19.7708 45.2358 17.3753 45.2367C15.4164 45.2348 13.4509 44.6494 11.7422 43.4211C10.4444 42.4881 9.45936 41.3027 8.79351 39.9802C8.1278 38.6569 7.78337 37.1953 7.78337 35.7243C7.78337 34.359 8.07972 32.9869 8.68577 31.7055L9.29569 30.4153L8.03536 29.7271C4.96251 28.0513 3.07381 24.8238 3.07477 21.4058C3.07574 20.4337 3.22687 19.4455 3.54898 18.4657C4.21001 16.4522 5.47709 14.8173 7.09245 13.674C8.70685 12.5324 10.6638 11.8935 12.6861 11.8935C13.0767 11.8935 13.4701 11.9174 13.8646 11.9659L15.2915 12.1421L15.5647 10.7435C15.9909 8.55363 17.1781 6.62757 18.8475 5.24905C20.5177 3.87039 22.6526 3.04486 24.9991 3.0439C27.3456 3.04486 29.4815 3.87039 31.1507 5.24905C32.8209 6.62771 34.0081 8.55377 34.4334 10.7435L34.7066 12.1421L36.1343 11.9659C36.5278 11.9174 36.9214 11.8935 37.312 11.8935C39.3343 11.8935 41.2931 12.5324 42.9076 13.674C44.522 14.8173 45.7881 16.4531 46.4499 18.4668C46.7713 19.4466 46.9233 20.4339 46.9233 21.4068C46.9254 24.8249 45.0367 28.0515 41.9627 29.7262Z" fill="flowerColor2"/>
<path d="M25.0976 16.3594C20.0735 16.3594 16 20.3905 16 25.3632C16 30.3359 20.0735 34.3672 25.0976 34.3672C30.1236 34.3672 34.1971 30.3359 34.1971 25.3632C34.1971 20.3905 30.1236 16.3594 25.0976 16.3594Z" fill="flowerColor"/>
</svg>
