<svg width="81" height="81" viewBox="0 0 81 81" fill="none" xmlns="http://www.w3.org/2000/svg">
<path d="M41.1285 50.7006C33.0077 46.317 26.8947 55.1316 20.8626 66.2162C19.9169 64.8432 18.7247 63.5821 17.3028 62.5064C14.4935 60.3868 11.2462 59.3239 8.12449 59.3216C5.66837 59.3216 3.27265 59.9865 1.27672 61.356L0.758645 61.7119L0.561 62.3114C0.182343 63.4698 0 64.6786 0 65.893C0.00798573 70.1628 2.20856 74.4977 6.11108 77.4504C8.91907 79.5702 12.1676 80.6329 15.2882 80.6352C17.7441 80.6352 20.1399 79.9702 22.1358 78.6006L22.5088 78.345H22.5379L22.9096 78.6006C24.9055 79.9702 27.3001 80.6352 29.7573 80.6352C32.8779 80.6329 36.1263 79.5701 38.9356 77.4504C42.837 74.4977 45.0374 70.1628 45.0467 65.893C45.0467 64.6785 44.8644 63.4698 44.4845 62.3114L44.2871 61.7119L43.7688 61.356C41.7729 59.9865 39.3772 59.3216 36.921 59.3216C33.8005 59.3239 30.5521 60.3868 27.7428 62.5064C26.5136 63.4374 25.454 64.5049 24.5781 65.6644C29.4042 57.6559 33.7817 49.8939 41.1285 53.2665V50.7006ZM19.4955 75.8592C18.2873 76.5407 16.8431 76.9045 15.2887 76.9057C13.0128 76.9068 10.5252 76.1182 8.34343 74.4698C5.30286 72.1808 3.70538 68.8479 3.7147 65.893C3.7147 65.2747 3.78341 64.6738 3.918 64.0974C5.12634 63.4162 6.57043 63.0522 8.12499 63.051C10.4021 63.0498 12.8895 63.8383 15.0703 65.4868C18.1107 67.7769 19.7081 71.1076 19.6988 74.0637C19.6988 74.681 19.6303 75.2829 19.4955 75.8592ZM29.9763 65.487C32.1571 63.8385 34.6444 63.05 36.9215 63.0512C38.4761 63.0522 39.9202 63.4162 41.1285 64.0976C41.2621 64.6739 41.3318 65.276 41.3318 65.8931C41.3411 68.848 39.7437 72.1811 36.7033 74.47C34.5213 76.1183 32.0351 76.907 29.758 76.9058C28.2035 76.9047 26.7594 76.5407 25.5522 75.8594C25.4151 75.2831 25.3477 74.6811 25.3477 74.064C25.3382 71.1078 26.9357 67.777 29.9763 65.487Z" fill="#23CD64"/>
<path d="M29.9763 65.487C32.1571 63.8385 34.6444 63.05 36.9215 63.0512C38.4761 63.0522 39.9202 63.4162 41.1285 64.0976C41.2621 64.6739 41.3318 65.276 41.3318 65.8931C41.3411 68.848 39.7437 72.1811 36.7033 74.47C34.5213 76.1183 32.0351 76.907 29.758 76.9058C28.2035 76.9047 26.7594 76.5407 25.5522 75.8594C25.4151 75.2831 25.3477 74.6811 25.3477 74.064C25.3382 71.1078 26.9357 67.777 29.9763 65.487Z" fill="#1A9649"/>
<path d="M19.4955 75.8592C18.2873 76.5407 16.8431 76.9045 15.2887 76.9057C13.0128 76.9068 10.5252 76.1182 8.34343 74.4698C5.30286 72.1808 3.70538 68.8479 3.7147 65.893C3.7147 65.2747 3.78341 64.6738 3.918 64.0974C5.12634 63.4162 6.57043 63.0522 8.12499 63.051C10.4021 63.0498 12.8895 63.8383 15.0703 65.4868C18.1107 67.7769 19.7081 71.1076 19.6988 74.0637C19.6988 74.681 19.6303 75.2829 19.4955 75.8592Z" fill="#1A9649"/>
<path d="M57.4648 75.1293C58.5253 75.2845 59.6267 75.277 60.7353 75.0874C63.0191 74.6953 65.0108 73.5808 66.5012 72.022C67.9915 70.463 68.9899 68.4567 69.3067 66.2672C69.3144 66.2137 69.3183 66.1588 69.3253 66.1045C71.3474 65.7898 73.2084 64.8925 74.6921 63.5574C76.4478 61.9794 77.6866 59.7882 78.05 57.265C78.4148 54.7419 77.8465 52.2862 76.6092 50.271C75.5641 48.5666 74.0339 47.1722 72.1844 46.29C72.1929 46.2366 72.2048 46.1822 72.2125 46.1287C72.5276 43.9397 72.1385 41.7298 71.1496 39.8078C70.1622 37.8862 68.5671 36.2467 66.4884 35.2178C65.4793 34.7174 64.4253 34.3953 63.3658 34.2402C60.0094 33.7506 56.6098 34.937 54.2771 37.4107C53.2424 36.8775 52.1379 36.5279 51.0146 36.3635C49.4169 36.1304 47.7793 36.2675 46.2346 36.7766C44.6899 37.2848 43.238 38.1666 42.0291 39.4132C40.433 41.0548 39.4797 43.099 39.176 45.2091C38.9304 46.9117 39.1928 48.6726 39.7836 50.3064L39.4205 52.8226C38.3361 54.249 37.6302 55.922 37.3768 57.6782C37.0715 59.789 37.4077 62.021 38.4735 64.053C39.2811 65.594 40.423 66.8554 41.76 67.7853C43.0977 68.7163 44.6288 69.3179 46.2264 69.5517C47.3495 69.7161 48.5064 69.6966 49.6489 69.4831C51.1854 72.5232 54.1089 74.6366 57.4648 75.1293ZM51.5597 67.5535L51.1414 66.4398L50.0066 66.7832C48.8792 67.125 47.7142 67.2012 46.5894 67.0366C45.3777 66.8592 44.2143 66.4021 43.2027 65.6973C42.1911 64.9933 41.3308 64.0446 40.7153 62.8716C39.9052 61.3254 39.6541 59.6473 39.8844 58.0453C40.1677 56.0879 41.1742 54.2581 42.7698 52.9795L43.6963 52.237L43.0179 51.2603C41.8496 49.5773 41.4018 47.5354 41.6837 45.5762C41.9164 43.9746 42.6307 42.4377 43.8441 41.1885C44.7659 40.2397 45.8587 39.577 47.0267 39.192C48.1954 38.8071 49.4401 38.7017 50.6519 38.879C51.7766 39.0436 52.872 39.4514 53.8561 40.1015L54.847 40.7559L55.5627 39.8082C57.3058 37.4973 60.1875 36.3419 63.0031 36.7548C63.8038 36.8728 64.6001 37.1155 65.3692 37.497C66.9499 38.2804 68.1472 39.5137 68.8985 40.9726C69.6484 42.4304 69.9437 44.1078 69.7051 45.7616C69.659 46.081 69.5929 46.3999 69.5064 46.7166L69.1929 47.8623L70.3128 48.2543C72.0665 48.8669 73.5131 50.07 74.4517 51.6014C75.3904 53.1335 75.8185 54.9789 75.5424 56.898C75.2647 58.8168 74.3326 60.4639 72.9999 61.6628C71.667 62.8624 69.9403 63.601 68.0862 63.6848L66.9018 63.7396L66.8784 64.9284C66.872 65.2561 66.8452 65.5808 66.7991 65.9002C66.5605 67.5541 65.803 69.0789 64.6721 70.2615C63.5397 71.4439 62.0427 72.2821 60.3057 72.5806C59.4607 72.7253 58.6293 72.7305 57.8279 72.6132C55.0119 72.2028 52.5767 70.2692 51.5597 67.5535Z" fill="flowerColor"/>
<path d="M51.5597 67.5535L51.1414 66.4398L50.0066 66.7832C48.8792 67.125 47.7142 67.2012 46.5894 67.0366C45.3777 66.8592 44.2143 66.4021 43.2027 65.6973C42.1911 64.9933 41.3308 64.0446 40.7153 62.8716C39.9052 61.3254 39.6541 59.6473 39.8844 58.0453C40.1677 56.0879 41.1742 54.2581 42.7698 52.9795L43.6963 52.237L43.0179 51.2603C41.8496 49.5773 41.4018 47.5354 41.6837 45.5762C41.9164 43.9746 42.6307 42.4377 43.8441 41.1885C44.7659 40.2397 45.8587 39.577 47.0267 39.192C48.1954 38.8071 49.4401 38.7017 50.6519 38.879C51.7766 39.0436 52.872 39.4514 53.8561 40.1015L54.847 40.7559L55.5627 39.8082C57.3058 37.4973 60.1875 36.3419 63.0031 36.7548C63.8038 36.8728 64.6001 37.1155 65.3692 37.497C66.9499 38.2804 68.1472 39.5137 68.8985 40.9726C69.6484 42.4304 69.9437 44.1078 69.7051 45.7616C69.659 46.081 69.5929 46.3999 69.5064 46.7166L69.1929 47.8623L70.3128 48.2543C72.0665 48.8669 73.5131 50.07 74.4517 51.6014C75.3904 53.1335 75.8185 54.9789 75.5424 56.898C75.2647 58.8168 74.3326 60.4639 72.9999 61.6628C71.667 62.8624 69.9403 63.601 68.0862 63.6848L66.9018 63.7396L66.8784 64.9284C66.872 65.2561 66.8452 65.5808 66.7991 65.9002C66.5605 67.5541 65.803 69.0789 64.6721 70.2615C63.5397 71.4439 62.0427 72.2821 60.3057 72.5806C59.4607 72.7253 58.6293 72.7305 57.8279 72.6132C55.0119 72.2028 52.5767 70.2692 51.5597 67.5535Z" fill="flowerColor2"/>
<path d="M64.5729 55.2921C65.1658 51.1835 62.3257 47.3663 58.2292 46.7668C54.1328 46.1673 50.3312 49.0124 49.7383 53.121C49.1452 57.2311 51.9854 61.0484 56.0819 61.6479C60.1783 62.2474 63.9798 59.4023 64.5729 55.2921Z" fill="flowerColor"/>
</svg>
