<svg width="80" height="81" viewBox="0 0 80 81" fill="none" xmlns="http://www.w3.org/2000/svg">
<path d="M32 43C24.8535 49.5 24.8535 55.5 20.2921 66.5207C19.3723 65.1807 18.2127 63.95 16.8296 62.9003C14.0971 60.8318 10.9387 59.7946 7.90232 59.7923C5.51337 59.7923 3.18316 60.4411 1.24181 61.7776L0.737899 62.1249L0.545659 62.71C0.177357 63.8405 0 65.0202 0 66.2052C0.00776736 70.3721 2.14816 74.6025 5.94397 77.4841C8.67517 79.5528 11.8349 80.5898 14.8701 80.5921C17.2589 80.5921 19.5891 79.9431 21.5305 78.6066L21.8933 78.3571H21.9216L22.2831 78.6066C24.2245 79.9431 26.5535 80.5921 28.9436 80.5921C31.9789 80.5898 35.1384 79.5526 37.8709 77.4841C41.6656 74.6025 43.8058 70.3721 43.8149 66.2052C43.8149 65.02 43.6375 63.8405 43.2681 62.71L43.076 62.1249L42.5719 61.7776C40.6306 60.4411 38.3004 59.7923 35.9114 59.7923C32.8762 59.7946 29.7166 60.8318 26.9841 62.9003C25.7886 63.8088 24.352 65.3684 23.5 66.5C27.5 59 27 52 34 46L32 43ZM18.9624 75.9312C17.7873 76.5962 16.3825 76.9513 14.8706 76.9525C12.6569 76.9536 10.2374 76.1839 8.11527 74.5753C5.15785 72.3415 3.60406 69.0889 3.61312 66.2052C3.61312 65.6018 3.67995 65.0154 3.81086 64.453C4.98616 63.7881 6.39076 63.4329 7.90281 63.4318C10.1176 63.4306 12.537 64.2001 14.6582 65.8089C17.6154 68.0437 19.1692 71.2942 19.1601 74.179C19.1601 74.7814 19.0935 75.3688 18.9624 75.9312ZM29.1566 65.8091C31.2777 64.2003 33.6971 63.4308 35.9119 63.4319C37.424 63.4329 38.8286 63.7881 40.0039 64.4531C40.1338 65.0156 40.2016 65.6031 40.2016 66.2054C40.2107 69.089 38.6569 72.3418 35.6996 74.5755C33.5773 76.1841 31.1591 76.9538 28.9443 76.9526C27.4322 76.9515 26.0276 76.5962 24.8535 75.9314C24.7201 75.369 24.6546 74.7815 24.6546 74.1793C24.6454 71.2943 26.1992 68.0439 29.1566 65.8091Z" fill="#23CD64"/>
<path d="M29.1566 65.8091C31.2777 64.2003 33.6971 63.4308 35.9119 63.4319C37.424 63.4329 38.8286 63.7881 40.0039 64.4531C40.1338 65.0156 40.2016 65.6031 40.2016 66.2054C40.2107 69.089 38.6569 72.3418 35.6996 74.5755C33.5773 76.1841 31.1591 76.9538 28.9443 76.9526C27.4322 76.9515 26.0276 76.5962 24.8535 75.9314C24.7201 75.369 24.6546 74.7815 24.6546 74.1793C24.6454 71.2943 26.1992 68.0439 29.1566 65.8091Z" fill="#1A9649"/>
<path d="M18.9624 75.9312C17.7873 76.5962 16.3825 76.9513 14.8706 76.9525C12.6569 76.9536 10.2374 76.1839 8.11527 74.5753C5.15785 72.3415 3.60406 69.0889 3.61312 66.2052C3.61312 65.6018 3.67995 65.0154 3.81086 64.453C4.98616 63.7881 6.39076 63.4329 7.90281 63.4318C10.1176 63.4306 12.537 64.2001 14.6582 65.8089C17.6154 68.0437 19.1692 71.2942 19.1601 74.179C19.1601 74.7814 19.0935 75.3688 18.9624 75.9312Z" fill="#1A9649"/>
<path d="M61.7608 49.8202C62.6798 49.2002 63.5185 48.4267 64.2375 47.5084C65.7178 45.6155 66.478 43.3714 66.5487 41.1356C66.6193 38.8997 66.0057 36.6632 64.744 34.7612C64.7132 34.7148 64.6785 34.6699 64.6466 34.6233C65.9794 32.9722 66.7887 30.986 67.0081 28.9267C67.2689 26.4912 66.7125 23.9452 65.2571 21.7544C63.8031 19.5627 61.6805 18.0732 59.348 17.3882C57.3763 16.8079 55.2459 16.8038 53.2229 17.4155C53.1927 17.3686 53.1644 17.3185 53.1336 17.2721C51.8709 15.3716 50.0545 13.9458 47.9763 13.1593C45.8995 12.372 43.5511 12.2249 41.2516 12.8838C40.1347 13.2029 39.1059 13.6902 38.1876 14.3097C35.2799 16.2731 33.4905 19.5538 33.403 23.0791C32.244 23.391 31.1576 23.8923 30.1841 24.549C28.8 25.4837 27.6395 26.7305 26.8059 28.1981C25.9717 29.6649 25.4653 31.354 25.3956 33.154C25.3007 35.5269 25.9749 37.7611 27.1921 39.593C28.1737 41.0717 29.5846 42.2409 31.1598 43.0836L32.6104 45.2688C32.7597 47.12 33.3684 48.8967 34.3808 50.4218C35.5972 52.2554 37.3884 53.7349 39.6011 54.5524C41.2785 55.1727 43.0201 55.3454 44.6833 55.1275C46.3477 54.91 47.9341 54.3048 49.3187 53.3708C50.2921 52.7141 51.165 51.8928 51.8935 50.9324C55.1595 52.1959 58.8513 51.781 61.7608 49.8202ZM52.0317 48.1189L50.946 47.5553L50.3126 48.6099C49.6837 49.6583 48.8435 50.5288 47.8687 51.1864C46.8185 51.8948 45.6132 52.3548 44.3539 52.5186C43.0952 52.6831 41.7843 52.5543 40.5068 52.0826C38.8238 51.46 37.4784 50.3465 36.5542 48.9558C35.4264 47.2554 34.9402 45.1487 35.2842 43.0548L35.4838 41.8388L34.293 41.5618C32.2416 41.0837 30.4956 39.8279 29.3655 38.1271C28.4433 36.735 27.9345 35.0571 28.0059 33.252C28.0601 31.881 28.4421 30.6104 29.0723 29.5006C29.7033 28.3905 30.5844 27.4419 31.6346 26.7335C32.6093 26.0759 33.7287 25.6255 34.9294 25.4388L36.138 25.2506L36.0352 24.024C35.7829 21.0346 37.1967 18.1388 39.6375 16.4932C40.332 16.0257 41.1088 15.6571 41.9601 15.414C43.7094 14.9137 45.474 15.0262 47.0519 15.6228C48.6281 16.2195 50.0069 17.3016 50.9604 18.7379C51.1445 19.0153 51.313 19.3062 51.4643 19.6097L52.0113 20.708L53.1386 20.2284C54.9031 19.4764 56.8379 19.3919 58.6092 19.9136C60.381 20.4358 61.9769 21.5544 63.0839 23.2204C64.1895 24.8874 64.6072 26.8019 64.4098 28.6514C64.213 30.5016 63.3976 32.2723 62.0347 33.629L61.165 34.4966L61.9639 35.4257C62.1841 35.6818 62.3867 35.9499 62.5708 36.2273C63.5243 37.6635 63.9917 39.3624 63.9378 41.0588C63.8827 42.756 63.3117 44.443 62.186 45.8829C61.6381 46.583 61.0048 47.1665 60.3102 47.6351C57.8708 49.2828 54.6767 49.4954 52.0317 48.1189Z" fill="flowerColor"/>
<path d="M52.0317 48.1189L50.946 47.5553L50.3126 48.6099C49.6837 49.6583 48.8435 50.5288 47.8687 51.1864C46.8185 51.8948 45.6132 52.3548 44.3539 52.5186C43.0952 52.6831 41.7843 52.5543 40.5068 52.0826C38.8238 51.46 37.4784 50.3465 36.5542 48.9558C35.4264 47.2554 34.9402 45.1487 35.2842 43.0548L35.4838 41.8388L34.293 41.5618C32.2416 41.0837 30.4956 39.8279 29.3655 38.1271C28.4433 36.735 27.9345 35.0571 28.0059 33.252C28.0601 31.881 28.4421 30.6104 29.0723 29.5006C29.7033 28.3905 30.5844 27.4419 31.6346 26.7335C32.6093 26.0759 33.7287 25.6255 34.9294 25.4388L36.138 25.2506L36.0352 24.024C35.7829 21.0346 37.1967 18.1388 39.6375 16.4932C40.332 16.0257 41.1088 15.6571 41.9601 15.414C43.7094 14.9137 45.474 15.0262 47.0519 15.6228C48.6281 16.2195 50.0069 17.3016 50.9604 18.7379C51.1445 19.0153 51.313 19.3062 51.4643 19.6097L52.0113 20.708L53.1386 20.2284C54.9031 19.4764 56.8379 19.3919 58.6092 19.9136C60.381 20.4358 61.9769 21.5544 63.0839 23.2204C64.1895 24.8874 64.6072 26.8019 64.4098 28.6514C64.213 30.5016 63.3976 32.2723 62.0347 33.629L61.165 34.4966L61.9639 35.4257C62.1841 35.6818 62.3867 35.9499 62.5708 36.2273C63.5243 37.6635 63.9917 39.3624 63.9378 41.0588C63.8827 42.756 63.3117 44.443 62.186 45.8829C61.6381 46.583 61.0048 47.1665 60.3102 47.6351C57.8708 49.2828 54.6767 49.4954 52.0317 48.1189Z" fill="flowerColor2"/>
<path d="M53.5773 29.6328C51.2086 26.0647 46.4101 25.1132 42.8598 27.5081C39.3096 29.9031 38.352 34.7375 40.7206 38.3056C43.0902 41.875 47.8889 42.8264 51.4391 40.4315C54.9894 38.0366 55.9469 33.2022 53.5773 29.6328Z" fill="flowerColor"/>
</svg>
