<svg width="556" height="656" viewBox="0 0 556 656" fill="none" xmlns="http://www.w3.org/2000/svg">
<g clip-path="url(#clip0_975_15685)">
<path d="M79.0896 234.447C74.5692 124.569 132.026 88.0284 168.606 101.902C147.887 47.4753 188.472 -23.2792 266.747 7.45578C345.022 38.1908 354.382 101.902 354.382 101.902C354.382 101.902 552.01 65.3401 499.906 162.411C477.548 204.065 467.497 223.235 462.446 231.547C538.729 214.96 608.736 280.052 499.906 350.983C504.632 367.174 511.943 372.214 523.601 452.381C535.259 532.548 436.761 547.681 383.527 521.534C364.992 582.044 291.632 582.684 254.457 531.779C227.691 595.17 152.45 576.601 118.844 545.546C90.8847 519.709 84.6457 449.549 99.0256 432.51C53.4686 474.267 -15.603 397.772 3.15677 341.286C16.1366 302.204 23.7309 285.095 79.0896 234.447Z" fill="#BFD58D"/>
<path d="M79.0896 234.447C74.5692 124.569 132.026 88.0284 168.606 101.902C147.887 47.4753 188.472 -23.2792 266.747 7.45578C345.022 38.1908 354.382 101.902 354.382 101.902C354.382 101.902 552.01 65.3401 499.906 162.411C447.802 259.483 462.536 234.447 451.631 234.447C531.73 208.834 613.868 276.707 499.906 350.983C504.632 367.174 511.943 372.214 523.601 452.381C535.259 532.548 436.761 547.681 383.527 521.534C364.992 582.044 291.632 582.684 254.457 531.779C227.691 595.17 152.45 576.601 118.844 545.546C89.6792 518.595 84.1481 443.416 101.001 430.61C55.4989 476.499 -15.8762 398.594 3.15677 341.286C16.1366 302.204 23.7309 285.095 79.0896 234.447Z" stroke="#BFD58D"/>
<path d="M365.5 416.5C364.893 421.477 355.5 429.435 358 428.755C370.324 425.403 373.756 424.265 383.474 422.148C379.534 419.277 379 414.42 379 401.5C379 384.584 388.025 359.595 384.648 345.5C381.291 331.485 413.76 267.551 420 244.5C426.24 221.449 391.973 288.513 384.648 309.5C377.014 331.376 372.371 346.864 374.5 362.5C376.629 378.136 369.758 381.63 365.5 416.5Z" fill="#6D5C3F" stroke="#6D5C3F" stroke-width="0.146821"/>
<path d="M323.568 492.558H284.312L284.312 491.648C284.33 465.26 284.339 453.459 286.691 436.364C296.208 364.231 286.988 332.081 284.312 297.5C281.635 262.919 298.2 190.648 311 134C308.324 184.52 300.026 249.605 303 275C307.904 316.872 316 344.476 316 385C313.866 406.636 314.051 425.558 323.568 492.558Z" fill="#6D5C3F" stroke="#6D5C3F"/>
<path d="M174.379 299.291C156.761 271.541 136.963 255.4 145.165 270.082C157.072 291.395 175.187 317.812 179.165 333.582C182.106 345.243 186.933 361.5 187.633 378C188.215 391.715 190.717 401.024 190.5 405.5C190.283 409.976 186.933 414.362 186.933 414.362L187.633 414.406C194.413 414.834 201.485 415.28 208.368 415.28C208.368 415.28 203.4 401.8 200.165 391.082C195.499 375.624 196.497 364.336 192.952 348.582C188.519 328.88 183.297 313.336 174.379 299.291Z" fill="#6D5C3F"/>
<path d="M186.933 414.362C186.933 414.362 190.283 409.976 190.5 405.5C190.717 401.024 188.215 391.715 187.633 378C186.933 361.5 182.106 345.243 179.165 333.582C175.187 317.812 157.072 291.395 145.165 270.082C136.963 255.4 156.761 271.541 174.379 299.291C183.297 313.336 188.519 328.88 192.952 348.582C196.497 364.336 195.499 375.624 200.165 391.082C203.4 401.8 208.368 415.28 208.368 415.28C201.485 415.28 194.413 414.834 187.633 414.406M186.933 414.362L187.633 414.406M186.933 414.362C187.166 414.377 187.399 414.391 187.633 414.406" stroke="#6D5C3F" stroke-width="0.146821"/>
<path d="M246.5 214C242.999 198 239.499 142.5 243 151.5C246.5 160.5 250 211.5 261 230C268.075 241.899 275.785 259.504 282.832 265.523C286.062 268.282 289.679 271.881 292.574 270.001C292.318 276.03 292.154 281.553 292.087 286.333C294.813 288.959 292.064 289.65 292.053 290.965C292.053 289.514 292.064 287.967 292.087 286.333C290.98 285.266 288.967 283.878 285.499 282C273.5 275.5 250 230 246.5 214Z" fill="#6D5C3F"/>
<path d="M292.053 290.965C292.053 285.27 292.231 278.091 292.574 270.001C289.679 271.881 286.062 268.282 282.832 265.523C275.785 259.504 268.075 241.899 261 230C250 211.5 246.5 160.5 243 151.5C239.499 142.5 242.999 198 246.5 214C250 230 273.5 275.5 285.499 282C297.499 288.5 292.069 289.116 292.053 290.965Z" stroke="#6D5C3F" stroke-width="0.146821"/>
<path d="M284.198 574.04C284.198 629.363 272.6 639.032 243.752 642.874C214.905 646.715 183.678 656 206.578 656C229.477 656 246.726 652.158 265.759 650.237C284.793 648.316 304.718 631.988 316.912 633.909C329.105 635.83 404.049 651.358 379.365 639.032C361.883 630.302 337.612 619.257 329.105 599.012C323.455 585.566 323.455 493.041 323.455 493.041H284.198V574.04Z" fill="#6D5C3F" stroke="#6D5C3F"/>
<path d="M323.271 492.375H284.015C270.731 468.684 232.445 422.453 185.575 427.063C138.705 431.673 96.6536 405.292 81.4863 391.526C87.4343 391.526 111.226 407.79 142.155 412.656C180.817 418.739 192.415 409.134 220.965 417.458C243.805 424.118 280.346 449.581 298.288 465.162C304.336 451.822 330.918 428.6 349 427.063C371.602 425.142 397.398 409.454 420 391.526C442.602 373.597 480.73 285.342 469 322C457 359.5 432.117 410.735 405.351 427.063C391.346 435.607 345.277 438.589 335.76 453.956C328.147 466.25 325.352 483.304 323.271 492.375Z" fill="#6D5C3F" stroke="#6D5C3F"/>
<path d="M415.641 464.57L412.547 474H410.055L414.281 462.625H415.867L415.641 464.57ZM418.211 474L415.109 464.57L414.859 462.625H416.461L420.711 474H418.211ZM418.07 469.766V471.602H412.062V469.766H418.07ZM426.617 472.156V462H428.883V474H426.844L426.617 472.156ZM421.273 469.875V469.711C421.273 469.065 421.346 468.479 421.492 467.953C421.638 467.422 421.852 466.966 422.133 466.586C422.414 466.206 422.76 465.911 423.172 465.703C423.583 465.495 424.052 465.391 424.578 465.391C425.073 465.391 425.505 465.495 425.875 465.703C426.25 465.911 426.568 466.208 426.828 466.594C427.094 466.974 427.307 467.424 427.469 467.945C427.63 468.461 427.747 469.026 427.82 469.641V470C427.747 470.589 427.63 471.135 427.469 471.641C427.307 472.146 427.094 472.589 426.828 472.969C426.568 473.344 426.25 473.635 425.875 473.844C425.5 474.052 425.062 474.156 424.562 474.156C424.036 474.156 423.568 474.049 423.156 473.836C422.75 473.622 422.406 473.323 422.125 472.938C421.849 472.552 421.638 472.099 421.492 471.578C421.346 471.057 421.273 470.49 421.273 469.875ZM423.523 469.711V469.875C423.523 470.224 423.549 470.549 423.602 470.852C423.659 471.154 423.75 471.422 423.875 471.656C424.005 471.885 424.172 472.065 424.375 472.195C424.583 472.32 424.836 472.383 425.133 472.383C425.518 472.383 425.836 472.297 426.086 472.125C426.336 471.948 426.526 471.706 426.656 471.398C426.792 471.091 426.87 470.737 426.891 470.336V469.312C426.875 468.984 426.828 468.69 426.75 468.43C426.677 468.164 426.568 467.938 426.422 467.75C426.281 467.562 426.104 467.417 425.891 467.312C425.682 467.208 425.435 467.156 425.148 467.156C424.857 467.156 424.607 467.224 424.398 467.359C424.19 467.49 424.021 467.669 423.891 467.898C423.766 468.128 423.672 468.398 423.609 468.711C423.552 469.018 423.523 469.352 423.523 469.711ZM432.891 467.297V474H430.633V465.547H432.75L432.891 467.297ZM432.578 469.477H431.953C431.953 468.888 432.023 468.346 432.164 467.852C432.31 467.352 432.521 466.919 432.797 466.555C433.078 466.185 433.424 465.898 433.836 465.695C434.247 465.492 434.724 465.391 435.266 465.391C435.641 465.391 435.984 465.448 436.297 465.562C436.609 465.672 436.878 465.846 437.102 466.086C437.331 466.32 437.508 466.628 437.633 467.008C437.758 467.383 437.82 467.833 437.82 468.359V474H435.57V468.609C435.57 468.224 435.518 467.927 435.414 467.719C435.31 467.51 435.161 467.365 434.969 467.281C434.781 467.198 434.555 467.156 434.289 467.156C433.997 467.156 433.742 467.216 433.523 467.336C433.31 467.456 433.133 467.622 432.992 467.836C432.852 468.044 432.747 468.289 432.68 468.57C432.612 468.852 432.578 469.154 432.578 469.477ZM437.609 469.219L436.805 469.32C436.805 468.768 436.872 468.255 437.008 467.781C437.148 467.307 437.354 466.891 437.625 466.531C437.901 466.172 438.242 465.893 438.648 465.695C439.055 465.492 439.523 465.391 440.055 465.391C440.461 465.391 440.831 465.451 441.164 465.57C441.497 465.685 441.781 465.87 442.016 466.125C442.255 466.375 442.438 466.703 442.562 467.109C442.693 467.516 442.758 468.013 442.758 468.602V474H440.5V468.602C440.5 468.211 440.448 467.914 440.344 467.711C440.245 467.503 440.099 467.359 439.906 467.281C439.719 467.198 439.495 467.156 439.234 467.156C438.964 467.156 438.727 467.211 438.523 467.32C438.32 467.424 438.151 467.57 438.016 467.758C437.88 467.945 437.779 468.164 437.711 468.414C437.643 468.659 437.609 468.927 437.609 469.219ZM446.875 465.547V474H444.617V465.547H446.875ZM444.477 463.344C444.477 463.016 444.591 462.745 444.82 462.531C445.049 462.318 445.357 462.211 445.742 462.211C446.122 462.211 446.427 462.318 446.656 462.531C446.891 462.745 447.008 463.016 447.008 463.344C447.008 463.672 446.891 463.943 446.656 464.156C446.427 464.37 446.122 464.477 445.742 464.477C445.357 464.477 445.049 464.37 444.82 464.156C444.591 463.943 444.477 463.672 444.477 463.344ZM450.938 467.352V474H448.688V465.547H450.797L450.938 467.352ZM450.609 469.477H450C450 468.852 450.081 468.289 450.242 467.789C450.404 467.284 450.63 466.854 450.922 466.5C451.214 466.141 451.56 465.867 451.961 465.68C452.367 465.487 452.82 465.391 453.32 465.391C453.716 465.391 454.078 465.448 454.406 465.562C454.734 465.677 455.016 465.859 455.25 466.109C455.49 466.359 455.672 466.69 455.797 467.102C455.927 467.513 455.992 468.016 455.992 468.609V474H453.727V468.602C453.727 468.227 453.674 467.935 453.57 467.727C453.466 467.518 453.312 467.372 453.109 467.289C452.911 467.201 452.667 467.156 452.375 467.156C452.073 467.156 451.81 467.216 451.586 467.336C451.367 467.456 451.185 467.622 451.039 467.836C450.898 468.044 450.792 468.289 450.719 468.57C450.646 468.852 450.609 469.154 450.609 469.477Z" fill="#6D5C3F"/>
<path d="M414 427L434.5 459" stroke="#6D5C3F"/>
<path d="M453.359 273.047V273.586C453.359 274.451 453.242 275.227 453.008 275.914C452.773 276.602 452.443 277.188 452.016 277.672C451.589 278.151 451.078 278.518 450.484 278.773C449.896 279.029 449.242 279.156 448.523 279.156C447.81 279.156 447.156 279.029 446.562 278.773C445.974 278.518 445.464 278.151 445.031 277.672C444.599 277.188 444.263 276.602 444.023 275.914C443.789 275.227 443.672 274.451 443.672 273.586V273.047C443.672 272.177 443.789 271.401 444.023 270.719C444.258 270.031 444.589 269.445 445.016 268.961C445.448 268.477 445.958 268.107 446.547 267.852C447.141 267.596 447.794 267.469 448.508 267.469C449.227 267.469 449.88 267.596 450.469 267.852C451.062 268.107 451.573 268.477 452 268.961C452.432 269.445 452.766 270.031 453 270.719C453.24 271.401 453.359 272.177 453.359 273.047ZM450.992 273.586V273.031C450.992 272.427 450.938 271.896 450.828 271.438C450.719 270.979 450.557 270.594 450.344 270.281C450.13 269.969 449.87 269.734 449.562 269.578C449.255 269.417 448.904 269.336 448.508 269.336C448.112 269.336 447.76 269.417 447.453 269.578C447.151 269.734 446.893 269.969 446.68 270.281C446.471 270.594 446.312 270.979 446.203 271.438C446.094 271.896 446.039 272.427 446.039 273.031V273.586C446.039 274.185 446.094 274.716 446.203 275.18C446.312 275.638 446.474 276.026 446.688 276.344C446.901 276.656 447.161 276.893 447.469 277.055C447.776 277.216 448.128 277.297 448.523 277.297C448.919 277.297 449.271 277.216 449.578 277.055C449.885 276.893 450.143 276.656 450.352 276.344C450.56 276.026 450.719 275.638 450.828 275.18C450.938 274.716 450.992 274.185 450.992 273.586ZM459.906 276.977V270.547H462.156V279H460.039L459.906 276.977ZM460.156 275.242L460.82 275.227C460.82 275.789 460.755 276.312 460.625 276.797C460.495 277.276 460.299 277.693 460.039 278.047C459.779 278.396 459.451 278.669 459.055 278.867C458.659 279.06 458.193 279.156 457.656 279.156C457.245 279.156 456.865 279.099 456.516 278.984C456.172 278.865 455.875 278.68 455.625 278.43C455.38 278.174 455.188 277.849 455.047 277.453C454.911 277.052 454.844 276.57 454.844 276.008V270.547H457.094V276.023C457.094 276.273 457.122 276.484 457.18 276.656C457.242 276.828 457.328 276.969 457.438 277.078C457.547 277.188 457.674 277.266 457.82 277.312C457.971 277.359 458.138 277.383 458.32 277.383C458.784 277.383 459.148 277.289 459.414 277.102C459.685 276.914 459.875 276.659 459.984 276.336C460.099 276.008 460.156 275.643 460.156 275.242ZM468.016 270.547V272.141H463.094V270.547H468.016ZM464.312 268.461H466.562V276.453C466.562 276.698 466.594 276.885 466.656 277.016C466.724 277.146 466.823 277.237 466.953 277.289C467.083 277.336 467.247 277.359 467.445 277.359C467.586 277.359 467.711 277.354 467.82 277.344C467.935 277.328 468.031 277.312 468.109 277.297L468.117 278.953C467.924 279.016 467.716 279.065 467.492 279.102C467.268 279.138 467.021 279.156 466.75 279.156C466.255 279.156 465.823 279.076 465.453 278.914C465.089 278.747 464.807 278.482 464.609 278.117C464.411 277.753 464.312 277.273 464.312 276.68V268.461ZM474.289 277.156V267H476.555V279H474.516L474.289 277.156ZM468.945 274.875V274.711C468.945 274.065 469.018 273.479 469.164 272.953C469.31 272.422 469.523 271.966 469.805 271.586C470.086 271.206 470.432 270.911 470.844 270.703C471.255 270.495 471.724 270.391 472.25 270.391C472.745 270.391 473.177 270.495 473.547 270.703C473.922 270.911 474.24 271.208 474.5 271.594C474.766 271.974 474.979 272.424 475.141 272.945C475.302 273.461 475.419 274.026 475.492 274.641V275C475.419 275.589 475.302 276.135 475.141 276.641C474.979 277.146 474.766 277.589 474.5 277.969C474.24 278.344 473.922 278.635 473.547 278.844C473.172 279.052 472.734 279.156 472.234 279.156C471.708 279.156 471.24 279.049 470.828 278.836C470.422 278.622 470.078 278.323 469.797 277.938C469.521 277.552 469.31 277.099 469.164 276.578C469.018 276.057 468.945 275.49 468.945 274.875ZM471.195 274.711V274.875C471.195 275.224 471.221 275.549 471.273 275.852C471.331 276.154 471.422 276.422 471.547 276.656C471.677 276.885 471.844 277.065 472.047 277.195C472.255 277.32 472.508 277.383 472.805 277.383C473.19 277.383 473.508 277.297 473.758 277.125C474.008 276.948 474.198 276.706 474.328 276.398C474.464 276.091 474.542 275.737 474.562 275.336V274.312C474.547 273.984 474.5 273.69 474.422 273.43C474.349 273.164 474.24 272.938 474.094 272.75C473.953 272.562 473.776 272.417 473.562 272.312C473.354 272.208 473.107 272.156 472.82 272.156C472.529 272.156 472.279 272.224 472.07 272.359C471.862 272.49 471.693 272.669 471.562 272.898C471.438 273.128 471.344 273.398 471.281 273.711C471.224 274.018 471.195 274.352 471.195 274.711ZM477.953 274.859V274.695C477.953 274.076 478.042 273.505 478.219 272.984C478.396 272.458 478.654 272.003 478.992 271.617C479.331 271.232 479.747 270.932 480.242 270.719C480.737 270.5 481.305 270.391 481.945 270.391C482.586 270.391 483.156 270.5 483.656 270.719C484.156 270.932 484.576 271.232 484.914 271.617C485.258 272.003 485.518 272.458 485.695 272.984C485.872 273.505 485.961 274.076 485.961 274.695V274.859C485.961 275.474 485.872 276.044 485.695 276.57C485.518 277.091 485.258 277.547 484.914 277.938C484.576 278.323 484.159 278.622 483.664 278.836C483.169 279.049 482.602 279.156 481.961 279.156C481.32 279.156 480.75 279.049 480.25 278.836C479.755 278.622 479.336 278.323 478.992 277.938C478.654 277.547 478.396 277.091 478.219 276.57C478.042 276.044 477.953 275.474 477.953 274.859ZM480.203 274.695V274.859C480.203 275.214 480.234 275.544 480.297 275.852C480.359 276.159 480.458 276.43 480.594 276.664C480.734 276.893 480.917 277.073 481.141 277.203C481.365 277.333 481.638 277.398 481.961 277.398C482.273 277.398 482.542 277.333 482.766 277.203C482.99 277.073 483.169 276.893 483.305 276.664C483.44 276.43 483.539 276.159 483.602 275.852C483.669 275.544 483.703 275.214 483.703 274.859V274.695C483.703 274.352 483.669 274.029 483.602 273.727C483.539 273.419 483.438 273.148 483.297 272.914C483.161 272.674 482.982 272.487 482.758 272.352C482.534 272.216 482.263 272.148 481.945 272.148C481.628 272.148 481.357 272.216 481.133 272.352C480.914 272.487 480.734 272.674 480.594 272.914C480.458 273.148 480.359 273.419 480.297 273.727C480.234 274.029 480.203 274.352 480.203 274.695ZM486.984 274.859V274.695C486.984 274.076 487.073 273.505 487.25 272.984C487.427 272.458 487.685 272.003 488.023 271.617C488.362 271.232 488.779 270.932 489.273 270.719C489.768 270.5 490.336 270.391 490.977 270.391C491.617 270.391 492.188 270.5 492.688 270.719C493.188 270.932 493.607 271.232 493.945 271.617C494.289 272.003 494.549 272.458 494.727 272.984C494.904 273.505 494.992 274.076 494.992 274.695V274.859C494.992 275.474 494.904 276.044 494.727 276.57C494.549 277.091 494.289 277.547 493.945 277.938C493.607 278.323 493.19 278.622 492.695 278.836C492.201 279.049 491.633 279.156 490.992 279.156C490.352 279.156 489.781 279.049 489.281 278.836C488.786 278.622 488.367 278.323 488.023 277.938C487.685 277.547 487.427 277.091 487.25 276.57C487.073 276.044 486.984 275.474 486.984 274.859ZM489.234 274.695V274.859C489.234 275.214 489.266 275.544 489.328 275.852C489.391 276.159 489.49 276.43 489.625 276.664C489.766 276.893 489.948 277.073 490.172 277.203C490.396 277.333 490.669 277.398 490.992 277.398C491.305 277.398 491.573 277.333 491.797 277.203C492.021 277.073 492.201 276.893 492.336 276.664C492.471 276.43 492.57 276.159 492.633 275.852C492.701 275.544 492.734 275.214 492.734 274.859V274.695C492.734 274.352 492.701 274.029 492.633 273.727C492.57 273.419 492.469 273.148 492.328 272.914C492.193 272.674 492.013 272.487 491.789 272.352C491.565 272.216 491.294 272.148 490.977 272.148C490.659 272.148 490.388 272.216 490.164 272.352C489.945 272.487 489.766 272.674 489.625 272.914C489.49 273.148 489.391 273.419 489.328 273.727C489.266 274.029 489.234 274.352 489.234 274.695ZM498.625 272.391V279H496.375V270.547H498.492L498.625 272.391ZM501.172 270.492L501.133 272.578C501.023 272.562 500.891 272.549 500.734 272.539C500.583 272.523 500.445 272.516 500.32 272.516C500.003 272.516 499.727 272.557 499.492 272.641C499.263 272.719 499.07 272.836 498.914 272.992C498.763 273.148 498.648 273.339 498.57 273.562C498.497 273.786 498.456 274.042 498.445 274.328L497.992 274.188C497.992 273.641 498.047 273.138 498.156 272.68C498.266 272.216 498.424 271.812 498.633 271.469C498.846 271.125 499.107 270.859 499.414 270.672C499.721 270.484 500.073 270.391 500.469 270.391C500.594 270.391 500.721 270.401 500.852 270.422C500.982 270.438 501.089 270.461 501.172 270.492Z" fill="#6D5C3F"/>
<path d="M401 305.5L442.5 283" stroke="#6D5C3F"/>
<path d="M137.609 470.227H139.945C139.898 470.992 139.688 471.672 139.312 472.266C138.943 472.859 138.424 473.323 137.758 473.656C137.096 473.99 136.299 474.156 135.367 474.156C134.638 474.156 133.984 474.031 133.406 473.781C132.828 473.526 132.333 473.161 131.922 472.688C131.516 472.214 131.206 471.641 130.992 470.969C130.779 470.297 130.672 469.544 130.672 468.711V467.922C130.672 467.089 130.781 466.336 131 465.664C131.224 464.987 131.542 464.411 131.953 463.938C132.37 463.464 132.867 463.099 133.445 462.844C134.023 462.589 134.669 462.461 135.383 462.461C136.331 462.461 137.13 462.633 137.781 462.977C138.438 463.32 138.945 463.794 139.305 464.398C139.669 465.003 139.888 465.69 139.961 466.461H137.617C137.591 466.003 137.5 465.615 137.344 465.297C137.188 464.974 136.951 464.732 136.633 464.57C136.32 464.404 135.904 464.32 135.383 464.32C134.992 464.32 134.651 464.393 134.359 464.539C134.068 464.685 133.823 464.906 133.625 465.203C133.427 465.5 133.279 465.875 133.18 466.328C133.086 466.776 133.039 467.302 133.039 467.906V468.711C133.039 469.299 133.083 469.818 133.172 470.266C133.26 470.708 133.396 471.083 133.578 471.391C133.766 471.693 134.005 471.922 134.297 472.078C134.594 472.229 134.951 472.305 135.367 472.305C135.857 472.305 136.26 472.227 136.578 472.07C136.896 471.914 137.138 471.682 137.305 471.375C137.477 471.068 137.578 470.685 137.609 470.227ZM143.719 462V474H141.461V462H143.719ZM149.469 474.156C148.812 474.156 148.224 474.052 147.703 473.844C147.182 473.63 146.74 473.336 146.375 472.961C146.016 472.586 145.74 472.151 145.547 471.656C145.354 471.156 145.258 470.625 145.258 470.062V469.75C145.258 469.109 145.349 468.523 145.531 467.992C145.714 467.461 145.974 467 146.312 466.609C146.656 466.219 147.073 465.919 147.562 465.711C148.052 465.497 148.604 465.391 149.219 465.391C149.818 465.391 150.349 465.49 150.812 465.688C151.276 465.885 151.664 466.167 151.977 466.531C152.294 466.896 152.534 467.333 152.695 467.844C152.857 468.349 152.938 468.911 152.938 469.531V470.469H146.219V468.969H150.727V468.797C150.727 468.484 150.669 468.206 150.555 467.961C150.445 467.711 150.279 467.513 150.055 467.367C149.831 467.221 149.544 467.148 149.195 467.148C148.898 467.148 148.643 467.214 148.43 467.344C148.216 467.474 148.042 467.656 147.906 467.891C147.776 468.125 147.677 468.401 147.609 468.719C147.547 469.031 147.516 469.375 147.516 469.75V470.062C147.516 470.401 147.562 470.714 147.656 471C147.755 471.286 147.893 471.534 148.07 471.742C148.253 471.951 148.471 472.112 148.727 472.227C148.987 472.341 149.281 472.398 149.609 472.398C150.016 472.398 150.393 472.32 150.742 472.164C151.096 472.003 151.401 471.76 151.656 471.438L152.75 472.625C152.573 472.88 152.331 473.125 152.023 473.359C151.721 473.594 151.357 473.786 150.93 473.938C150.503 474.083 150.016 474.156 149.469 474.156ZM158.781 472.094V468.328C158.781 468.057 158.737 467.826 158.648 467.633C158.56 467.435 158.422 467.281 158.234 467.172C158.052 467.062 157.815 467.008 157.523 467.008C157.273 467.008 157.057 467.052 156.875 467.141C156.693 467.224 156.552 467.346 156.453 467.508C156.354 467.664 156.305 467.849 156.305 468.062H154.055C154.055 467.703 154.138 467.362 154.305 467.039C154.471 466.716 154.714 466.432 155.031 466.188C155.349 465.938 155.727 465.742 156.164 465.602C156.607 465.461 157.102 465.391 157.648 465.391C158.305 465.391 158.888 465.5 159.398 465.719C159.909 465.938 160.31 466.266 160.602 466.703C160.898 467.141 161.047 467.688 161.047 468.344V471.961C161.047 472.424 161.076 472.805 161.133 473.102C161.19 473.393 161.273 473.648 161.383 473.867V474H159.109C159 473.771 158.917 473.484 158.859 473.141C158.807 472.792 158.781 472.443 158.781 472.094ZM159.078 468.852L159.094 470.125H157.836C157.539 470.125 157.281 470.159 157.062 470.227C156.844 470.294 156.664 470.391 156.523 470.516C156.383 470.635 156.279 470.776 156.211 470.938C156.148 471.099 156.117 471.276 156.117 471.469C156.117 471.661 156.161 471.836 156.25 471.992C156.339 472.143 156.466 472.263 156.633 472.352C156.799 472.435 156.995 472.477 157.219 472.477C157.557 472.477 157.852 472.409 158.102 472.273C158.352 472.138 158.544 471.971 158.68 471.773C158.82 471.576 158.893 471.388 158.898 471.211L159.492 472.164C159.409 472.378 159.294 472.599 159.148 472.828C159.008 473.057 158.828 473.273 158.609 473.477C158.391 473.674 158.128 473.839 157.82 473.969C157.513 474.094 157.148 474.156 156.727 474.156C156.19 474.156 155.703 474.049 155.266 473.836C154.833 473.617 154.49 473.318 154.234 472.938C153.984 472.552 153.859 472.115 153.859 471.625C153.859 471.182 153.943 470.789 154.109 470.445C154.276 470.102 154.521 469.812 154.844 469.578C155.172 469.339 155.581 469.159 156.07 469.039C156.56 468.914 157.128 468.852 157.773 468.852H159.078ZM164.984 467.352V474H162.734V465.547H164.844L164.984 467.352ZM164.656 469.477H164.047C164.047 468.852 164.128 468.289 164.289 467.789C164.451 467.284 164.677 466.854 164.969 466.5C165.26 466.141 165.607 465.867 166.008 465.68C166.414 465.487 166.867 465.391 167.367 465.391C167.763 465.391 168.125 465.448 168.453 465.562C168.781 465.677 169.062 465.859 169.297 466.109C169.536 466.359 169.719 466.69 169.844 467.102C169.974 467.513 170.039 468.016 170.039 468.609V474H167.773V468.602C167.773 468.227 167.721 467.935 167.617 467.727C167.513 467.518 167.359 467.372 167.156 467.289C166.958 467.201 166.714 467.156 166.422 467.156C166.12 467.156 165.857 467.216 165.633 467.336C165.414 467.456 165.232 467.622 165.086 467.836C164.945 468.044 164.839 468.289 164.766 468.57C164.693 468.852 164.656 469.154 164.656 469.477ZM174.125 465.547V474H171.867V465.547H174.125ZM171.727 463.344C171.727 463.016 171.841 462.745 172.07 462.531C172.299 462.318 172.607 462.211 172.992 462.211C173.372 462.211 173.677 462.318 173.906 462.531C174.141 462.745 174.258 463.016 174.258 463.344C174.258 463.672 174.141 463.943 173.906 464.156C173.677 464.37 173.372 464.477 172.992 464.477C172.607 464.477 172.299 464.37 172.07 464.156C171.841 463.943 171.727 463.672 171.727 463.344ZM178.188 467.352V474H175.938V465.547H178.047L178.188 467.352ZM177.859 469.477H177.25C177.25 468.852 177.331 468.289 177.492 467.789C177.654 467.284 177.88 466.854 178.172 466.5C178.464 466.141 178.81 465.867 179.211 465.68C179.617 465.487 180.07 465.391 180.57 465.391C180.966 465.391 181.328 465.448 181.656 465.562C181.984 465.677 182.266 465.859 182.5 466.109C182.74 466.359 182.922 466.69 183.047 467.102C183.177 467.513 183.242 468.016 183.242 468.609V474H180.977V468.602C180.977 468.227 180.924 467.935 180.82 467.727C180.716 467.518 180.562 467.372 180.359 467.289C180.161 467.201 179.917 467.156 179.625 467.156C179.323 467.156 179.06 467.216 178.836 467.336C178.617 467.456 178.435 467.622 178.289 467.836C178.148 468.044 178.042 468.289 177.969 468.57C177.896 468.852 177.859 469.154 177.859 469.477ZM190.305 465.547H192.344V473.719C192.344 474.49 192.172 475.143 191.828 475.68C191.49 476.221 191.016 476.63 190.406 476.906C189.797 477.188 189.089 477.328 188.281 477.328C187.927 477.328 187.552 477.281 187.156 477.188C186.766 477.094 186.391 476.948 186.031 476.75C185.677 476.552 185.38 476.302 185.141 476L186.133 474.672C186.393 474.974 186.695 475.208 187.039 475.375C187.383 475.547 187.763 475.633 188.18 475.633C188.586 475.633 188.93 475.557 189.211 475.406C189.492 475.26 189.708 475.044 189.859 474.758C190.01 474.477 190.086 474.135 190.086 473.734V467.5L190.305 465.547ZM184.617 469.875V469.711C184.617 469.065 184.695 468.479 184.852 467.953C185.013 467.422 185.24 466.966 185.531 466.586C185.828 466.206 186.188 465.911 186.609 465.703C187.031 465.495 187.508 465.391 188.039 465.391C188.602 465.391 189.073 465.495 189.453 465.703C189.833 465.911 190.146 466.208 190.391 466.594C190.635 466.974 190.826 467.424 190.961 467.945C191.102 468.461 191.211 469.026 191.289 469.641V470C191.211 470.589 191.094 471.135 190.938 471.641C190.781 472.146 190.576 472.589 190.32 472.969C190.065 473.344 189.747 473.635 189.367 473.844C188.992 474.052 188.544 474.156 188.023 474.156C187.503 474.156 187.031 474.049 186.609 473.836C186.193 473.622 185.836 473.323 185.539 472.938C185.242 472.552 185.013 472.099 184.852 471.578C184.695 471.057 184.617 470.49 184.617 469.875ZM186.867 469.711V469.875C186.867 470.224 186.901 470.549 186.969 470.852C187.036 471.154 187.141 471.422 187.281 471.656C187.427 471.885 187.607 472.065 187.82 472.195C188.039 472.32 188.297 472.383 188.594 472.383C189.005 472.383 189.341 472.297 189.602 472.125C189.862 471.948 190.057 471.706 190.188 471.398C190.318 471.091 190.393 470.737 190.414 470.336V469.312C190.404 468.984 190.359 468.69 190.281 468.43C190.203 468.164 190.094 467.938 189.953 467.75C189.812 467.562 189.63 467.417 189.406 467.312C189.182 467.208 188.917 467.156 188.609 467.156C188.312 467.156 188.055 467.224 187.836 467.359C187.622 467.49 187.443 467.669 187.297 467.898C187.156 468.128 187.049 468.398 186.977 468.711C186.904 469.018 186.867 469.352 186.867 469.711Z" fill="#6D5C3F"/>
<path d="M136 425.5L146 459.5" stroke="#6D5C3F"/>
<path d="M94.3281 348.172V350H88.6016V348.172H94.3281ZM89.3594 338.625V350H87.0156V338.625H89.3594ZM100.094 348.094V344.328C100.094 344.057 100.049 343.826 99.9609 343.633C99.8724 343.435 99.7344 343.281 99.5469 343.172C99.3646 343.062 99.1276 343.008 98.8359 343.008C98.5859 343.008 98.3698 343.052 98.1875 343.141C98.0052 343.224 97.8646 343.346 97.7656 343.508C97.6667 343.664 97.6172 343.849 97.6172 344.062H95.3672C95.3672 343.703 95.4505 343.362 95.6172 343.039C95.7839 342.716 96.026 342.432 96.3438 342.188C96.6615 341.938 97.0391 341.742 97.4766 341.602C97.9193 341.461 98.4141 341.391 98.9609 341.391C99.6172 341.391 100.201 341.5 100.711 341.719C101.221 341.938 101.622 342.266 101.914 342.703C102.211 343.141 102.359 343.688 102.359 344.344V347.961C102.359 348.424 102.388 348.805 102.445 349.102C102.503 349.393 102.586 349.648 102.695 349.867V350H100.422C100.312 349.771 100.229 349.484 100.172 349.141C100.12 348.792 100.094 348.443 100.094 348.094ZM100.391 344.852L100.406 346.125H99.1484C98.8516 346.125 98.5938 346.159 98.375 346.227C98.1562 346.294 97.9766 346.391 97.8359 346.516C97.6953 346.635 97.5911 346.776 97.5234 346.938C97.4609 347.099 97.4297 347.276 97.4297 347.469C97.4297 347.661 97.474 347.836 97.5625 347.992C97.651 348.143 97.7786 348.263 97.9453 348.352C98.112 348.435 98.3073 348.477 98.5312 348.477C98.8698 348.477 99.1641 348.409 99.4141 348.273C99.6641 348.138 99.8568 347.971 99.9922 347.773C100.133 347.576 100.206 347.388 100.211 347.211L100.805 348.164C100.721 348.378 100.607 348.599 100.461 348.828C100.32 349.057 100.141 349.273 99.9219 349.477C99.7031 349.674 99.4401 349.839 99.1328 349.969C98.8255 350.094 98.4609 350.156 98.0391 350.156C97.5026 350.156 97.0156 350.049 96.5781 349.836C96.1458 349.617 95.8021 349.318 95.5469 348.938C95.2969 348.552 95.1719 348.115 95.1719 347.625C95.1719 347.182 95.2552 346.789 95.4219 346.445C95.5885 346.102 95.8333 345.812 96.1562 345.578C96.4844 345.339 96.8932 345.159 97.3828 345.039C97.8724 344.914 98.4401 344.852 99.0859 344.852H100.391ZM109.094 347.977V341.547H111.344V350H109.227L109.094 347.977ZM109.344 346.242L110.008 346.227C110.008 346.789 109.943 347.312 109.812 347.797C109.682 348.276 109.487 348.693 109.227 349.047C108.966 349.396 108.638 349.669 108.242 349.867C107.846 350.06 107.38 350.156 106.844 350.156C106.432 350.156 106.052 350.099 105.703 349.984C105.359 349.865 105.062 349.68 104.812 349.43C104.568 349.174 104.375 348.849 104.234 348.453C104.099 348.052 104.031 347.57 104.031 347.008V341.547H106.281V347.023C106.281 347.273 106.31 347.484 106.367 347.656C106.43 347.828 106.516 347.969 106.625 348.078C106.734 348.188 106.862 348.266 107.008 348.312C107.159 348.359 107.326 348.383 107.508 348.383C107.971 348.383 108.336 348.289 108.602 348.102C108.872 347.914 109.062 347.659 109.172 347.336C109.286 347.008 109.344 346.643 109.344 346.242ZM115.266 343.352V350H113.016V341.547H115.125L115.266 343.352ZM114.938 345.477H114.328C114.328 344.852 114.409 344.289 114.57 343.789C114.732 343.284 114.958 342.854 115.25 342.5C115.542 342.141 115.888 341.867 116.289 341.68C116.695 341.487 117.148 341.391 117.648 341.391C118.044 341.391 118.406 341.448 118.734 341.562C119.062 341.677 119.344 341.859 119.578 342.109C119.818 342.359 120 342.69 120.125 343.102C120.255 343.513 120.32 344.016 120.32 344.609V350H118.055V344.602C118.055 344.227 118.003 343.935 117.898 343.727C117.794 343.518 117.641 343.372 117.438 343.289C117.24 343.201 116.995 343.156 116.703 343.156C116.401 343.156 116.138 343.216 115.914 343.336C115.695 343.456 115.513 343.622 115.367 343.836C115.227 344.044 115.12 344.289 115.047 344.57C114.974 344.852 114.938 345.154 114.938 345.477ZM127.023 348.156V338H129.289V350H127.25L127.023 348.156ZM121.68 345.875V345.711C121.68 345.065 121.753 344.479 121.898 343.953C122.044 343.422 122.258 342.966 122.539 342.586C122.82 342.206 123.167 341.911 123.578 341.703C123.99 341.495 124.458 341.391 124.984 341.391C125.479 341.391 125.911 341.495 126.281 341.703C126.656 341.911 126.974 342.208 127.234 342.594C127.5 342.974 127.714 343.424 127.875 343.945C128.036 344.461 128.154 345.026 128.227 345.641V346C128.154 346.589 128.036 347.135 127.875 347.641C127.714 348.146 127.5 348.589 127.234 348.969C126.974 349.344 126.656 349.635 126.281 349.844C125.906 350.052 125.469 350.156 124.969 350.156C124.443 350.156 123.974 350.049 123.562 349.836C123.156 349.622 122.812 349.323 122.531 348.938C122.255 348.552 122.044 348.099 121.898 347.578C121.753 347.057 121.68 346.49 121.68 345.875ZM123.93 345.711V345.875C123.93 346.224 123.956 346.549 124.008 346.852C124.065 347.154 124.156 347.422 124.281 347.656C124.411 347.885 124.578 348.065 124.781 348.195C124.99 348.32 125.242 348.383 125.539 348.383C125.924 348.383 126.242 348.297 126.492 348.125C126.742 347.948 126.932 347.706 127.062 347.398C127.198 347.091 127.276 346.737 127.297 346.336V345.312C127.281 344.984 127.234 344.69 127.156 344.43C127.083 344.164 126.974 343.938 126.828 343.75C126.688 343.562 126.51 343.417 126.297 343.312C126.089 343.208 125.841 343.156 125.555 343.156C125.263 343.156 125.013 343.224 124.805 343.359C124.596 343.49 124.427 343.669 124.297 343.898C124.172 344.128 124.078 344.398 124.016 344.711C123.958 345.018 123.93 345.352 123.93 345.711ZM133.297 343.391V350H131.047V341.547H133.164L133.297 343.391ZM135.844 341.492L135.805 343.578C135.695 343.562 135.562 343.549 135.406 343.539C135.255 343.523 135.117 343.516 134.992 343.516C134.674 343.516 134.398 343.557 134.164 343.641C133.935 343.719 133.742 343.836 133.586 343.992C133.435 344.148 133.32 344.339 133.242 344.562C133.169 344.786 133.128 345.042 133.117 345.328L132.664 345.188C132.664 344.641 132.719 344.138 132.828 343.68C132.938 343.216 133.096 342.812 133.305 342.469C133.518 342.125 133.779 341.859 134.086 341.672C134.393 341.484 134.745 341.391 135.141 341.391C135.266 341.391 135.393 341.401 135.523 341.422C135.654 341.438 135.76 341.461 135.844 341.492ZM139.555 349.047L141.797 341.547H144.211L140.812 351.273C140.74 351.487 140.641 351.716 140.516 351.961C140.396 352.206 140.232 352.438 140.023 352.656C139.82 352.88 139.562 353.062 139.25 353.203C138.943 353.344 138.565 353.414 138.117 353.414C137.904 353.414 137.729 353.401 137.594 353.375C137.458 353.349 137.297 353.312 137.109 353.266V351.617C137.167 351.617 137.227 351.617 137.289 351.617C137.352 351.622 137.411 351.625 137.469 351.625C137.766 351.625 138.008 351.591 138.195 351.523C138.383 351.456 138.534 351.352 138.648 351.211C138.763 351.076 138.854 350.898 138.922 350.68L139.555 349.047ZM138.617 341.547L140.453 347.672L140.773 350.055L139.242 350.219L136.203 341.547H138.617Z" fill="#6D5C3F"/>
<path d="M162 314L135 334.5" stroke="#6D5C3F"/>
<path d="M192.609 267.727H194.945C194.898 268.492 194.688 269.172 194.312 269.766C193.943 270.359 193.424 270.823 192.758 271.156C192.096 271.49 191.299 271.656 190.367 271.656C189.638 271.656 188.984 271.531 188.406 271.281C187.828 271.026 187.333 270.661 186.922 270.188C186.516 269.714 186.206 269.141 185.992 268.469C185.779 267.797 185.672 267.044 185.672 266.211V265.422C185.672 264.589 185.781 263.836 186 263.164C186.224 262.487 186.542 261.911 186.953 261.438C187.37 260.964 187.867 260.599 188.445 260.344C189.023 260.089 189.669 259.961 190.383 259.961C191.331 259.961 192.13 260.133 192.781 260.477C193.438 260.82 193.945 261.294 194.305 261.898C194.669 262.503 194.888 263.19 194.961 263.961H192.617C192.591 263.503 192.5 263.115 192.344 262.797C192.188 262.474 191.951 262.232 191.633 262.07C191.32 261.904 190.904 261.82 190.383 261.82C189.992 261.82 189.651 261.893 189.359 262.039C189.068 262.185 188.823 262.406 188.625 262.703C188.427 263 188.279 263.375 188.18 263.828C188.086 264.276 188.039 264.802 188.039 265.406V266.211C188.039 266.799 188.083 267.318 188.172 267.766C188.26 268.208 188.396 268.583 188.578 268.891C188.766 269.193 189.005 269.422 189.297 269.578C189.594 269.729 189.951 269.805 190.367 269.805C190.857 269.805 191.26 269.727 191.578 269.57C191.896 269.414 192.138 269.182 192.305 268.875C192.477 268.568 192.578 268.185 192.609 267.727ZM195.984 267.359V267.195C195.984 266.576 196.073 266.005 196.25 265.484C196.427 264.958 196.685 264.503 197.023 264.117C197.362 263.732 197.779 263.432 198.273 263.219C198.768 263 199.336 262.891 199.977 262.891C200.617 262.891 201.188 263 201.688 263.219C202.188 263.432 202.607 263.732 202.945 264.117C203.289 264.503 203.549 264.958 203.727 265.484C203.904 266.005 203.992 266.576 203.992 267.195V267.359C203.992 267.974 203.904 268.544 203.727 269.07C203.549 269.591 203.289 270.047 202.945 270.438C202.607 270.823 202.19 271.122 201.695 271.336C201.201 271.549 200.633 271.656 199.992 271.656C199.352 271.656 198.781 271.549 198.281 271.336C197.786 271.122 197.367 270.823 197.023 270.438C196.685 270.047 196.427 269.591 196.25 269.07C196.073 268.544 195.984 267.974 195.984 267.359ZM198.234 267.195V267.359C198.234 267.714 198.266 268.044 198.328 268.352C198.391 268.659 198.49 268.93 198.625 269.164C198.766 269.393 198.948 269.573 199.172 269.703C199.396 269.833 199.669 269.898 199.992 269.898C200.305 269.898 200.573 269.833 200.797 269.703C201.021 269.573 201.201 269.393 201.336 269.164C201.471 268.93 201.57 268.659 201.633 268.352C201.701 268.044 201.734 267.714 201.734 267.359V267.195C201.734 266.852 201.701 266.529 201.633 266.227C201.57 265.919 201.469 265.648 201.328 265.414C201.193 265.174 201.013 264.987 200.789 264.852C200.565 264.716 200.294 264.648 199.977 264.648C199.659 264.648 199.388 264.716 199.164 264.852C198.945 264.987 198.766 265.174 198.625 265.414C198.49 265.648 198.391 265.919 198.328 266.227C198.266 266.529 198.234 266.852 198.234 267.195ZM205.016 267.359V267.195C205.016 266.576 205.104 266.005 205.281 265.484C205.458 264.958 205.716 264.503 206.055 264.117C206.393 263.732 206.81 263.432 207.305 263.219C207.799 263 208.367 262.891 209.008 262.891C209.648 262.891 210.219 263 210.719 263.219C211.219 263.432 211.638 263.732 211.977 264.117C212.32 264.503 212.581 264.958 212.758 265.484C212.935 266.005 213.023 266.576 213.023 267.195V267.359C213.023 267.974 212.935 268.544 212.758 269.07C212.581 269.591 212.32 270.047 211.977 270.438C211.638 270.823 211.221 271.122 210.727 271.336C210.232 271.549 209.664 271.656 209.023 271.656C208.383 271.656 207.812 271.549 207.312 271.336C206.818 271.122 206.398 270.823 206.055 270.438C205.716 270.047 205.458 269.591 205.281 269.07C205.104 268.544 205.016 267.974 205.016 267.359ZM207.266 267.195V267.359C207.266 267.714 207.297 268.044 207.359 268.352C207.422 268.659 207.521 268.93 207.656 269.164C207.797 269.393 207.979 269.573 208.203 269.703C208.427 269.833 208.701 269.898 209.023 269.898C209.336 269.898 209.604 269.833 209.828 269.703C210.052 269.573 210.232 269.393 210.367 269.164C210.503 268.93 210.602 268.659 210.664 268.352C210.732 268.044 210.766 267.714 210.766 267.359V267.195C210.766 266.852 210.732 266.529 210.664 266.227C210.602 265.919 210.5 265.648 210.359 265.414C210.224 265.174 210.044 264.987 209.82 264.852C209.596 264.716 209.326 264.648 209.008 264.648C208.69 264.648 208.419 264.716 208.195 264.852C207.977 264.987 207.797 265.174 207.656 265.414C207.521 265.648 207.422 265.919 207.359 266.227C207.297 266.529 207.266 266.852 207.266 267.195ZM216.656 259.492V271.5H214.406V259.492H216.656ZM221.984 263.047L218.312 267.234L216.344 269.227L215.523 267.602L217.086 265.617L219.281 263.047H221.984ZM219.648 271.5L217.148 267.594L218.703 266.234L222.242 271.5H219.648ZM225.328 263.047V271.5H223.07V263.047H225.328ZM222.93 260.844C222.93 260.516 223.044 260.245 223.273 260.031C223.503 259.818 223.81 259.711 224.195 259.711C224.576 259.711 224.88 259.818 225.109 260.031C225.344 260.245 225.461 260.516 225.461 260.844C225.461 261.172 225.344 261.443 225.109 261.656C224.88 261.87 224.576 261.977 224.195 261.977C223.81 261.977 223.503 261.87 223.273 261.656C223.044 261.443 222.93 261.172 222.93 260.844ZM229.391 264.852V271.5H227.141V263.047H229.25L229.391 264.852ZM229.062 266.977H228.453C228.453 266.352 228.534 265.789 228.695 265.289C228.857 264.784 229.083 264.354 229.375 264C229.667 263.641 230.013 263.367 230.414 263.18C230.82 262.987 231.273 262.891 231.773 262.891C232.169 262.891 232.531 262.948 232.859 263.062C233.188 263.177 233.469 263.359 233.703 263.609C233.943 263.859 234.125 264.19 234.25 264.602C234.38 265.013 234.445 265.516 234.445 266.109V271.5H232.18V266.102C232.18 265.727 232.128 265.435 232.023 265.227C231.919 265.018 231.766 264.872 231.562 264.789C231.365 264.701 231.12 264.656 230.828 264.656C230.526 264.656 230.263 264.716 230.039 264.836C229.82 264.956 229.638 265.122 229.492 265.336C229.352 265.544 229.245 265.789 229.172 266.07C229.099 266.352 229.062 266.654 229.062 266.977ZM241.508 263.047H243.547V271.219C243.547 271.99 243.375 272.643 243.031 273.18C242.693 273.721 242.219 274.13 241.609 274.406C241 274.688 240.292 274.828 239.484 274.828C239.13 274.828 238.755 274.781 238.359 274.688C237.969 274.594 237.594 274.448 237.234 274.25C236.88 274.052 236.583 273.802 236.344 273.5L237.336 272.172C237.596 272.474 237.898 272.708 238.242 272.875C238.586 273.047 238.966 273.133 239.383 273.133C239.789 273.133 240.133 273.057 240.414 272.906C240.695 272.76 240.911 272.544 241.062 272.258C241.214 271.977 241.289 271.635 241.289 271.234V265L241.508 263.047ZM235.82 267.375V267.211C235.82 266.565 235.898 265.979 236.055 265.453C236.216 264.922 236.443 264.466 236.734 264.086C237.031 263.706 237.391 263.411 237.812 263.203C238.234 262.995 238.711 262.891 239.242 262.891C239.805 262.891 240.276 262.995 240.656 263.203C241.036 263.411 241.349 263.708 241.594 264.094C241.839 264.474 242.029 264.924 242.164 265.445C242.305 265.961 242.414 266.526 242.492 267.141V267.5C242.414 268.089 242.297 268.635 242.141 269.141C241.984 269.646 241.779 270.089 241.523 270.469C241.268 270.844 240.951 271.135 240.57 271.344C240.195 271.552 239.747 271.656 239.227 271.656C238.706 271.656 238.234 271.549 237.812 271.336C237.396 271.122 237.039 270.823 236.742 270.438C236.445 270.052 236.216 269.599 236.055 269.078C235.898 268.557 235.82 267.99 235.82 267.375ZM238.07 267.211V267.375C238.07 267.724 238.104 268.049 238.172 268.352C238.24 268.654 238.344 268.922 238.484 269.156C238.63 269.385 238.81 269.565 239.023 269.695C239.242 269.82 239.5 269.883 239.797 269.883C240.208 269.883 240.544 269.797 240.805 269.625C241.065 269.448 241.26 269.206 241.391 268.898C241.521 268.591 241.596 268.237 241.617 267.836V266.812C241.607 266.484 241.562 266.19 241.484 265.93C241.406 265.664 241.297 265.438 241.156 265.25C241.016 265.062 240.833 264.917 240.609 264.812C240.385 264.708 240.12 264.656 239.812 264.656C239.516 264.656 239.258 264.724 239.039 264.859C238.826 264.99 238.646 265.169 238.5 265.398C238.359 265.628 238.253 265.898 238.18 266.211C238.107 266.518 238.07 266.852 238.07 267.211Z" fill="#6D5C3F"/>
<path d="M230 257L249 232" stroke="#6D5C3F"/>
<path d="M330.109 209.227H332.445C332.398 209.992 332.188 210.672 331.812 211.266C331.443 211.859 330.924 212.323 330.258 212.656C329.596 212.99 328.799 213.156 327.867 213.156C327.138 213.156 326.484 213.031 325.906 212.781C325.328 212.526 324.833 212.161 324.422 211.688C324.016 211.214 323.706 210.641 323.492 209.969C323.279 209.297 323.172 208.544 323.172 207.711V206.922C323.172 206.089 323.281 205.336 323.5 204.664C323.724 203.987 324.042 203.411 324.453 202.938C324.87 202.464 325.367 202.099 325.945 201.844C326.523 201.589 327.169 201.461 327.883 201.461C328.831 201.461 329.63 201.633 330.281 201.977C330.938 202.32 331.445 202.794 331.805 203.398C332.169 204.003 332.388 204.69 332.461 205.461H330.117C330.091 205.003 330 204.615 329.844 204.297C329.688 203.974 329.451 203.732 329.133 203.57C328.82 203.404 328.404 203.32 327.883 203.32C327.492 203.32 327.151 203.393 326.859 203.539C326.568 203.685 326.323 203.906 326.125 204.203C325.927 204.5 325.779 204.875 325.68 205.328C325.586 205.776 325.539 206.302 325.539 206.906V207.711C325.539 208.299 325.583 208.818 325.672 209.266C325.76 209.708 325.896 210.083 326.078 210.391C326.266 210.693 326.505 210.922 326.797 211.078C327.094 211.229 327.451 211.305 327.867 211.305C328.357 211.305 328.76 211.227 329.078 211.07C329.396 210.914 329.638 210.682 329.805 210.375C329.977 210.068 330.078 209.685 330.109 209.227ZM336.039 201V213H333.789V201H336.039ZM335.719 208.477H335.102C335.107 207.888 335.185 207.346 335.336 206.852C335.487 206.352 335.703 205.919 335.984 205.555C336.266 205.185 336.602 204.898 336.992 204.695C337.388 204.492 337.826 204.391 338.305 204.391C338.721 204.391 339.099 204.451 339.438 204.57C339.781 204.685 340.076 204.872 340.32 205.133C340.57 205.388 340.763 205.724 340.898 206.141C341.034 206.557 341.102 207.062 341.102 207.656V213H338.836V207.641C338.836 207.266 338.781 206.971 338.672 206.758C338.568 206.539 338.414 206.385 338.211 206.297C338.013 206.203 337.768 206.156 337.477 206.156C337.154 206.156 336.878 206.216 336.648 206.336C336.424 206.456 336.245 206.622 336.109 206.836C335.974 207.044 335.875 207.289 335.812 207.57C335.75 207.852 335.719 208.154 335.719 208.477ZM345.188 204.547V213H342.93V204.547H345.188ZM342.789 202.344C342.789 202.016 342.904 201.745 343.133 201.531C343.362 201.318 343.669 201.211 344.055 201.211C344.435 201.211 344.74 201.318 344.969 201.531C345.203 201.745 345.32 202.016 345.32 202.344C345.32 202.672 345.203 202.943 344.969 203.156C344.74 203.37 344.435 203.477 344.055 203.477C343.669 203.477 343.362 203.37 343.133 203.156C342.904 202.943 342.789 202.672 342.789 202.344ZM349.422 201V213H347.164V201H349.422ZM356.273 211.156V201H358.539V213H356.5L356.273 211.156ZM350.93 208.875V208.711C350.93 208.065 351.003 207.479 351.148 206.953C351.294 206.422 351.508 205.966 351.789 205.586C352.07 205.206 352.417 204.911 352.828 204.703C353.24 204.495 353.708 204.391 354.234 204.391C354.729 204.391 355.161 204.495 355.531 204.703C355.906 204.911 356.224 205.208 356.484 205.594C356.75 205.974 356.964 206.424 357.125 206.945C357.286 207.461 357.404 208.026 357.477 208.641V209C357.404 209.589 357.286 210.135 357.125 210.641C356.964 211.146 356.75 211.589 356.484 211.969C356.224 212.344 355.906 212.635 355.531 212.844C355.156 213.052 354.719 213.156 354.219 213.156C353.693 213.156 353.224 213.049 352.812 212.836C352.406 212.622 352.062 212.323 351.781 211.938C351.505 211.552 351.294 211.099 351.148 210.578C351.003 210.057 350.93 209.49 350.93 208.875ZM353.18 208.711V208.875C353.18 209.224 353.206 209.549 353.258 209.852C353.315 210.154 353.406 210.422 353.531 210.656C353.661 210.885 353.828 211.065 354.031 211.195C354.24 211.32 354.492 211.383 354.789 211.383C355.174 211.383 355.492 211.297 355.742 211.125C355.992 210.948 356.182 210.706 356.312 210.398C356.448 210.091 356.526 209.737 356.547 209.336V208.312C356.531 207.984 356.484 207.69 356.406 207.43C356.333 207.164 356.224 206.938 356.078 206.75C355.938 206.562 355.76 206.417 355.547 206.312C355.339 206.208 355.091 206.156 354.805 206.156C354.513 206.156 354.263 206.224 354.055 206.359C353.846 206.49 353.677 206.669 353.547 206.898C353.422 207.128 353.328 207.398 353.266 207.711C353.208 208.018 353.18 208.352 353.18 208.711ZM363.789 211.398C364.065 211.398 364.31 211.346 364.523 211.242C364.737 211.133 364.904 210.982 365.023 210.789C365.148 210.591 365.214 210.359 365.219 210.094H367.336C367.331 210.688 367.172 211.216 366.859 211.68C366.547 212.138 366.128 212.5 365.602 212.766C365.076 213.026 364.487 213.156 363.836 213.156C363.18 213.156 362.607 213.047 362.117 212.828C361.633 212.609 361.229 212.307 360.906 211.922C360.583 211.531 360.341 211.078 360.18 210.562C360.018 210.042 359.938 209.484 359.938 208.891V208.664C359.938 208.065 360.018 207.508 360.18 206.992C360.341 206.471 360.583 206.018 360.906 205.633C361.229 205.242 361.633 204.938 362.117 204.719C362.602 204.5 363.169 204.391 363.82 204.391C364.513 204.391 365.12 204.523 365.641 204.789C366.167 205.055 366.578 205.435 366.875 205.93C367.177 206.419 367.331 207 367.336 207.672H365.219C365.214 207.391 365.154 207.135 365.039 206.906C364.93 206.677 364.768 206.495 364.555 206.359C364.346 206.219 364.089 206.148 363.781 206.148C363.453 206.148 363.185 206.219 362.977 206.359C362.768 206.495 362.607 206.682 362.492 206.922C362.378 207.156 362.297 207.424 362.25 207.727C362.208 208.023 362.188 208.336 362.188 208.664V208.891C362.188 209.219 362.208 209.534 362.25 209.836C362.292 210.138 362.37 210.406 362.484 210.641C362.604 210.875 362.768 211.06 362.977 211.195C363.185 211.331 363.456 211.398 363.789 211.398ZM373.203 211.094V207.328C373.203 207.057 373.159 206.826 373.07 206.633C372.982 206.435 372.844 206.281 372.656 206.172C372.474 206.062 372.237 206.008 371.945 206.008C371.695 206.008 371.479 206.052 371.297 206.141C371.115 206.224 370.974 206.346 370.875 206.508C370.776 206.664 370.727 206.849 370.727 207.062H368.477C368.477 206.703 368.56 206.362 368.727 206.039C368.893 205.716 369.135 205.432 369.453 205.188C369.771 204.938 370.148 204.742 370.586 204.602C371.029 204.461 371.523 204.391 372.07 204.391C372.727 204.391 373.31 204.5 373.82 204.719C374.331 204.938 374.732 205.266 375.023 205.703C375.32 206.141 375.469 206.688 375.469 207.344V210.961C375.469 211.424 375.497 211.805 375.555 212.102C375.612 212.393 375.695 212.648 375.805 212.867V213H373.531C373.422 212.771 373.339 212.484 373.281 212.141C373.229 211.792 373.203 211.443 373.203 211.094ZM373.5 207.852L373.516 209.125H372.258C371.961 209.125 371.703 209.159 371.484 209.227C371.266 209.294 371.086 209.391 370.945 209.516C370.805 209.635 370.701 209.776 370.633 209.938C370.57 210.099 370.539 210.276 370.539 210.469C370.539 210.661 370.583 210.836 370.672 210.992C370.76 211.143 370.888 211.263 371.055 211.352C371.221 211.435 371.417 211.477 371.641 211.477C371.979 211.477 372.273 211.409 372.523 211.273C372.773 211.138 372.966 210.971 373.102 210.773C373.242 210.576 373.315 210.388 373.32 210.211L373.914 211.164C373.831 211.378 373.716 211.599 373.57 211.828C373.43 212.057 373.25 212.273 373.031 212.477C372.812 212.674 372.549 212.839 372.242 212.969C371.935 213.094 371.57 213.156 371.148 213.156C370.612 213.156 370.125 213.049 369.688 212.836C369.255 212.617 368.911 212.318 368.656 211.938C368.406 211.552 368.281 211.115 368.281 210.625C368.281 210.182 368.365 209.789 368.531 209.445C368.698 209.102 368.943 208.812 369.266 208.578C369.594 208.339 370.003 208.159 370.492 208.039C370.982 207.914 371.549 207.852 372.195 207.852H373.5ZM379.453 206.391V213H377.203V204.547H379.32L379.453 206.391ZM382 204.492L381.961 206.578C381.852 206.562 381.719 206.549 381.562 206.539C381.411 206.523 381.273 206.516 381.148 206.516C380.831 206.516 380.555 206.557 380.32 206.641C380.091 206.719 379.898 206.836 379.742 206.992C379.591 207.148 379.477 207.339 379.398 207.562C379.326 207.786 379.284 208.042 379.273 208.328L378.82 208.188C378.82 207.641 378.875 207.138 378.984 206.68C379.094 206.216 379.253 205.812 379.461 205.469C379.674 205.125 379.935 204.859 380.242 204.672C380.549 204.484 380.901 204.391 381.297 204.391C381.422 204.391 381.549 204.401 381.68 204.422C381.81 204.438 381.917 204.461 382 204.492ZM386.797 213.156C386.141 213.156 385.552 213.052 385.031 212.844C384.51 212.63 384.068 212.336 383.703 211.961C383.344 211.586 383.068 211.151 382.875 210.656C382.682 210.156 382.586 209.625 382.586 209.062V208.75C382.586 208.109 382.677 207.523 382.859 206.992C383.042 206.461 383.302 206 383.641 205.609C383.984 205.219 384.401 204.919 384.891 204.711C385.38 204.497 385.932 204.391 386.547 204.391C387.146 204.391 387.677 204.49 388.141 204.688C388.604 204.885 388.992 205.167 389.305 205.531C389.622 205.896 389.862 206.333 390.023 206.844C390.185 207.349 390.266 207.911 390.266 208.531V209.469H383.547V207.969H388.055V207.797C388.055 207.484 387.997 207.206 387.883 206.961C387.773 206.711 387.607 206.513 387.383 206.367C387.159 206.221 386.872 206.148 386.523 206.148C386.227 206.148 385.971 206.214 385.758 206.344C385.544 206.474 385.37 206.656 385.234 206.891C385.104 207.125 385.005 207.401 384.938 207.719C384.875 208.031 384.844 208.375 384.844 208.75V209.062C384.844 209.401 384.891 209.714 384.984 210C385.083 210.286 385.221 210.534 385.398 210.742C385.581 210.951 385.799 211.112 386.055 211.227C386.315 211.341 386.609 211.398 386.938 211.398C387.344 211.398 387.721 211.32 388.07 211.164C388.424 211.003 388.729 210.76 388.984 210.438L390.078 211.625C389.901 211.88 389.659 212.125 389.352 212.359C389.049 212.594 388.685 212.786 388.258 212.938C387.831 213.083 387.344 213.156 386.797 213.156Z" fill="#6D5C3F"/>
<path d="M309 234.5L322 217.5" stroke="#6D5C3F"/>
</g>
<defs>
<clipPath id="clip0_975_15685">
<rect width="556" height="656" fill="white"/>
</clipPath>
</defs>
</svg>
