<svg width="556" height="680" viewBox="0 0 556 680" fill="none" xmlns="http://www.w3.org/2000/svg">
<g clip-path="url(#clip0_975_15685)">
<path d="M0 680H556C553 678.5 508 677 473 665.5C437 653.671 370.034 639.887 303.738 633.901C264.5 630.358 210 632.335 155 644.5C135.362 648.844 73.5974 666.207 55.4999 671.5C35.5862 677.325 10.5 677.835 0 680Z" fill="#AAD07C"/>
<path d="M79.0896 245.447C74.5692 135.569 132.026 99.0284 168.606 112.902C147.887 58.4753 188.472 -12.2792 266.747 18.4558C345.022 49.1908 354.382 112.902 354.382 112.902C354.382 112.902 552.01 76.3401 499.906 173.411C477.548 215.065 467.497 234.235 462.446 242.547C538.729 225.96 608.736 291.052 499.906 361.983C504.632 378.174 511.943 383.214 523.601 463.381C535.259 543.548 436.761 558.681 383.527 532.534C364.992 593.044 291.632 593.684 254.457 542.779C227.691 606.17 152.45 587.601 118.844 556.546C90.8847 530.709 84.6457 460.549 99.0256 443.51C53.4686 485.267 -15.603 408.772 3.15677 352.286C16.1366 313.204 23.7309 296.095 79.0896 245.447Z" fill="#BFD58D" stroke="#BFD58D"/>
<path d="M365.5 427.5C364.893 432.477 355.5 440.435 358 439.755C370.324 436.403 373.756 435.265 383.474 433.148C379.534 430.277 379 425.42 379 412.5C379 395.584 388.025 370.595 384.648 356.5C381.291 342.485 413.76 278.551 420 255.5C426.24 232.449 391.973 299.513 384.648 320.5C377.014 342.376 372.371 357.864 374.5 373.5C376.629 389.136 369.758 392.63 365.5 427.5Z" fill="#6D5C3F" stroke="#6D5C3F" stroke-width="0.146821"/>
<path d="M323.568 503.558H284.312L284.313 502.648C284.331 476.26 284.339 464.459 286.691 447.364C296.208 375.231 286.989 343.081 284.312 308.5C281.635 273.919 309.001 132 311 145C313 158 300.026 260.605 303 286C307.904 327.872 316 355.476 316 396C313.866 417.636 314.052 436.558 323.568 503.558Z" fill="#6D5C3F" stroke="#6D5C3F"/>
<path d="M174.379 310.291C156.761 282.541 136.963 266.4 145.165 281.082C157.072 302.395 175.187 328.812 179.165 344.582C182.106 356.243 186.933 372.5 187.633 389C188.215 402.715 190.717 412.024 190.5 416.5C190.283 420.976 186.933 425.362 186.933 425.362L187.633 425.406C194.413 425.834 201.485 426.28 208.368 426.28C208.368 426.28 203.4 412.8 200.165 402.082C195.499 386.624 196.497 375.336 192.952 359.582C188.519 339.88 183.297 324.336 174.379 310.291Z" fill="#6D5C3F"/>
<path d="M186.933 425.362C186.933 425.362 190.283 420.976 190.5 416.5C190.717 412.024 188.215 402.715 187.633 389C186.933 372.5 182.106 356.243 179.165 344.582C175.187 328.812 157.072 302.395 145.165 281.082C136.963 266.4 156.761 282.541 174.379 310.291C183.297 324.336 188.519 339.88 192.952 359.582C196.497 375.336 195.499 386.624 200.165 402.082C203.4 412.8 208.368 426.28 208.368 426.28C201.485 426.28 194.413 425.834 187.633 425.406M186.933 425.362L187.633 425.406M186.933 425.362C187.166 425.377 187.399 425.391 187.633 425.406" stroke="#6D5C3F" stroke-width="0.146821"/>
<path d="M246.5 225C242.999 209 239.499 153.5 243 162.5C246.5 171.5 250 222.5 261 241C268.075 252.899 275.785 270.504 282.832 276.523C286.062 279.282 289.679 282.881 292.574 281.001C292.318 287.03 292.154 292.553 292.087 297.333C294.813 299.959 292.064 300.65 292.053 301.965C292.053 300.514 292.064 298.967 292.087 297.333C290.98 296.266 288.967 294.878 285.499 293C273.5 286.5 250 241 246.5 225Z" fill="#6D5C3F" stroke="#6D5C3F" stroke-width="0.146821"/>
<path d="M284.198 585.04C284.198 640.363 272.6 650.032 243.752 653.874C214.905 657.715 183.678 667 206.578 667C229.477 667 246.726 663.158 265.759 661.237C284.793 659.316 304.718 642.988 316.912 644.909C329.105 646.83 404.049 662.358 379.365 650.032C361.883 641.302 337.612 630.257 329.105 610.012C323.455 596.566 323.455 504.041 323.455 504.041H284.198V585.04Z" fill="#6D5C3F" stroke="#6D5C3F"/>
<path d="M323.271 503.375H284.015C270.731 479.684 232.445 433.453 185.575 438.063C138.705 442.673 96.6536 416.292 81.4863 402.526C87.4343 402.526 111.226 418.79 142.155 423.656C180.817 429.739 192.415 420.134 220.965 428.458C243.805 435.118 280.346 460.581 298.288 476.162C304.336 462.822 330.918 439.6 349 438.063C371.602 436.142 397.398 420.454 420 402.526C442.602 384.597 480.73 296.342 469 333C457 370.5 432.117 421.735 405.351 438.063C391.346 446.607 345.277 449.589 335.76 464.956C328.147 477.25 325.352 494.304 323.271 503.375Z" fill="#6D5C3F" stroke="#6D5C3F"/>
<path d="M350.641 501.57L347.547 511H345.055L349.281 499.625H350.867L350.641 501.57ZM353.211 511L350.109 501.57L349.859 499.625H351.461L355.711 511H353.211ZM353.07 506.766V508.602H347.062V506.766H353.07ZM361.617 509.156V499H363.883V511H361.844L361.617 509.156ZM356.273 506.875V506.711C356.273 506.065 356.346 505.479 356.492 504.953C356.638 504.422 356.852 503.966 357.133 503.586C357.414 503.206 357.76 502.911 358.172 502.703C358.583 502.495 359.052 502.391 359.578 502.391C360.073 502.391 360.505 502.495 360.875 502.703C361.25 502.911 361.568 503.208 361.828 503.594C362.094 503.974 362.307 504.424 362.469 504.945C362.63 505.461 362.747 506.026 362.82 506.641V507C362.747 507.589 362.63 508.135 362.469 508.641C362.307 509.146 362.094 509.589 361.828 509.969C361.568 510.344 361.25 510.635 360.875 510.844C360.5 511.052 360.062 511.156 359.562 511.156C359.036 511.156 358.568 511.049 358.156 510.836C357.75 510.622 357.406 510.323 357.125 509.938C356.849 509.552 356.638 509.099 356.492 508.578C356.346 508.057 356.273 507.49 356.273 506.875ZM358.523 506.711V506.875C358.523 507.224 358.549 507.549 358.602 507.852C358.659 508.154 358.75 508.422 358.875 508.656C359.005 508.885 359.172 509.065 359.375 509.195C359.583 509.32 359.836 509.383 360.133 509.383C360.518 509.383 360.836 509.297 361.086 509.125C361.336 508.948 361.526 508.706 361.656 508.398C361.792 508.091 361.87 507.737 361.891 507.336V506.312C361.875 505.984 361.828 505.69 361.75 505.43C361.677 505.164 361.568 504.938 361.422 504.75C361.281 504.562 361.104 504.417 360.891 504.312C360.682 504.208 360.435 504.156 360.148 504.156C359.857 504.156 359.607 504.224 359.398 504.359C359.19 504.49 359.021 504.669 358.891 504.898C358.766 505.128 358.672 505.398 358.609 505.711C358.552 506.018 358.523 506.352 358.523 506.711ZM367.891 504.297V511H365.633V502.547H367.75L367.891 504.297ZM367.578 506.477H366.953C366.953 505.888 367.023 505.346 367.164 504.852C367.31 504.352 367.521 503.919 367.797 503.555C368.078 503.185 368.424 502.898 368.836 502.695C369.247 502.492 369.724 502.391 370.266 502.391C370.641 502.391 370.984 502.448 371.297 502.562C371.609 502.672 371.878 502.846 372.102 503.086C372.331 503.32 372.508 503.628 372.633 504.008C372.758 504.383 372.82 504.833 372.82 505.359V511H370.57V505.609C370.57 505.224 370.518 504.927 370.414 504.719C370.31 504.51 370.161 504.365 369.969 504.281C369.781 504.198 369.555 504.156 369.289 504.156C368.997 504.156 368.742 504.216 368.523 504.336C368.31 504.456 368.133 504.622 367.992 504.836C367.852 505.044 367.747 505.289 367.68 505.57C367.612 505.852 367.578 506.154 367.578 506.477ZM372.609 506.219L371.805 506.32C371.805 505.768 371.872 505.255 372.008 504.781C372.148 504.307 372.354 503.891 372.625 503.531C372.901 503.172 373.242 502.893 373.648 502.695C374.055 502.492 374.523 502.391 375.055 502.391C375.461 502.391 375.831 502.451 376.164 502.57C376.497 502.685 376.781 502.87 377.016 503.125C377.255 503.375 377.438 503.703 377.562 504.109C377.693 504.516 377.758 505.013 377.758 505.602V511H375.5V505.602C375.5 505.211 375.448 504.914 375.344 504.711C375.245 504.503 375.099 504.359 374.906 504.281C374.719 504.198 374.495 504.156 374.234 504.156C373.964 504.156 373.727 504.211 373.523 504.32C373.32 504.424 373.151 504.57 373.016 504.758C372.88 504.945 372.779 505.164 372.711 505.414C372.643 505.659 372.609 505.927 372.609 506.219ZM381.875 502.547V511H379.617V502.547H381.875ZM379.477 500.344C379.477 500.016 379.591 499.745 379.82 499.531C380.049 499.318 380.357 499.211 380.742 499.211C381.122 499.211 381.427 499.318 381.656 499.531C381.891 499.745 382.008 500.016 382.008 500.344C382.008 500.672 381.891 500.943 381.656 501.156C381.427 501.37 381.122 501.477 380.742 501.477C380.357 501.477 380.049 501.37 379.82 501.156C379.591 500.943 379.477 500.672 379.477 500.344ZM385.938 504.352V511H383.688V502.547H385.797L385.938 504.352ZM385.609 506.477H385C385 505.852 385.081 505.289 385.242 504.789C385.404 504.284 385.63 503.854 385.922 503.5C386.214 503.141 386.56 502.867 386.961 502.68C387.367 502.487 387.82 502.391 388.32 502.391C388.716 502.391 389.078 502.448 389.406 502.562C389.734 502.677 390.016 502.859 390.25 503.109C390.49 503.359 390.672 503.69 390.797 504.102C390.927 504.513 390.992 505.016 390.992 505.609V511H388.727V505.602C388.727 505.227 388.674 504.935 388.57 504.727C388.466 504.518 388.312 504.372 388.109 504.289C387.911 504.201 387.667 504.156 387.375 504.156C387.073 504.156 386.81 504.216 386.586 504.336C386.367 504.456 386.185 504.622 386.039 504.836C385.898 505.044 385.792 505.289 385.719 505.57C385.646 505.852 385.609 506.154 385.609 506.477Z" fill="#6D5C3F"/>
<path d="M349 464L369.5 496" stroke="#6D5C3F"/>
<path d="M411.359 323.047V323.586C411.359 324.451 411.242 325.227 411.008 325.914C410.773 326.602 410.443 327.188 410.016 327.672C409.589 328.151 409.078 328.518 408.484 328.773C407.896 329.029 407.242 329.156 406.523 329.156C405.81 329.156 405.156 329.029 404.562 328.773C403.974 328.518 403.464 328.151 403.031 327.672C402.599 327.188 402.263 326.602 402.023 325.914C401.789 325.227 401.672 324.451 401.672 323.586V323.047C401.672 322.177 401.789 321.401 402.023 320.719C402.258 320.031 402.589 319.445 403.016 318.961C403.448 318.477 403.958 318.107 404.547 317.852C405.141 317.596 405.794 317.469 406.508 317.469C407.227 317.469 407.88 317.596 408.469 317.852C409.062 318.107 409.573 318.477 410 318.961C410.432 319.445 410.766 320.031 411 320.719C411.24 321.401 411.359 322.177 411.359 323.047ZM408.992 323.586V323.031C408.992 322.427 408.938 321.896 408.828 321.438C408.719 320.979 408.557 320.594 408.344 320.281C408.13 319.969 407.87 319.734 407.562 319.578C407.255 319.417 406.904 319.336 406.508 319.336C406.112 319.336 405.76 319.417 405.453 319.578C405.151 319.734 404.893 319.969 404.68 320.281C404.471 320.594 404.312 320.979 404.203 321.438C404.094 321.896 404.039 322.427 404.039 323.031V323.586C404.039 324.185 404.094 324.716 404.203 325.18C404.312 325.638 404.474 326.026 404.688 326.344C404.901 326.656 405.161 326.893 405.469 327.055C405.776 327.216 406.128 327.297 406.523 327.297C406.919 327.297 407.271 327.216 407.578 327.055C407.885 326.893 408.143 326.656 408.352 326.344C408.56 326.026 408.719 325.638 408.828 325.18C408.938 324.716 408.992 324.185 408.992 323.586ZM417.906 326.977V320.547H420.156V329H418.039L417.906 326.977ZM418.156 325.242L418.82 325.227C418.82 325.789 418.755 326.312 418.625 326.797C418.495 327.276 418.299 327.693 418.039 328.047C417.779 328.396 417.451 328.669 417.055 328.867C416.659 329.06 416.193 329.156 415.656 329.156C415.245 329.156 414.865 329.099 414.516 328.984C414.172 328.865 413.875 328.68 413.625 328.43C413.38 328.174 413.188 327.849 413.047 327.453C412.911 327.052 412.844 326.57 412.844 326.008V320.547H415.094V326.023C415.094 326.273 415.122 326.484 415.18 326.656C415.242 326.828 415.328 326.969 415.438 327.078C415.547 327.188 415.674 327.266 415.82 327.312C415.971 327.359 416.138 327.383 416.32 327.383C416.784 327.383 417.148 327.289 417.414 327.102C417.685 326.914 417.875 326.659 417.984 326.336C418.099 326.008 418.156 325.643 418.156 325.242ZM426.016 320.547V322.141H421.094V320.547H426.016ZM422.312 318.461H424.562V326.453C424.562 326.698 424.594 326.885 424.656 327.016C424.724 327.146 424.823 327.237 424.953 327.289C425.083 327.336 425.247 327.359 425.445 327.359C425.586 327.359 425.711 327.354 425.82 327.344C425.935 327.328 426.031 327.312 426.109 327.297L426.117 328.953C425.924 329.016 425.716 329.065 425.492 329.102C425.268 329.138 425.021 329.156 424.75 329.156C424.255 329.156 423.823 329.076 423.453 328.914C423.089 328.747 422.807 328.482 422.609 328.117C422.411 327.753 422.312 327.273 422.312 326.68V318.461ZM432.289 327.156V317H434.555V329H432.516L432.289 327.156ZM426.945 324.875V324.711C426.945 324.065 427.018 323.479 427.164 322.953C427.31 322.422 427.523 321.966 427.805 321.586C428.086 321.206 428.432 320.911 428.844 320.703C429.255 320.495 429.724 320.391 430.25 320.391C430.745 320.391 431.177 320.495 431.547 320.703C431.922 320.911 432.24 321.208 432.5 321.594C432.766 321.974 432.979 322.424 433.141 322.945C433.302 323.461 433.419 324.026 433.492 324.641V325C433.419 325.589 433.302 326.135 433.141 326.641C432.979 327.146 432.766 327.589 432.5 327.969C432.24 328.344 431.922 328.635 431.547 328.844C431.172 329.052 430.734 329.156 430.234 329.156C429.708 329.156 429.24 329.049 428.828 328.836C428.422 328.622 428.078 328.323 427.797 327.938C427.521 327.552 427.31 327.099 427.164 326.578C427.018 326.057 426.945 325.49 426.945 324.875ZM429.195 324.711V324.875C429.195 325.224 429.221 325.549 429.273 325.852C429.331 326.154 429.422 326.422 429.547 326.656C429.677 326.885 429.844 327.065 430.047 327.195C430.255 327.32 430.508 327.383 430.805 327.383C431.19 327.383 431.508 327.297 431.758 327.125C432.008 326.948 432.198 326.706 432.328 326.398C432.464 326.091 432.542 325.737 432.562 325.336V324.312C432.547 323.984 432.5 323.69 432.422 323.43C432.349 323.164 432.24 322.938 432.094 322.75C431.953 322.562 431.776 322.417 431.562 322.312C431.354 322.208 431.107 322.156 430.82 322.156C430.529 322.156 430.279 322.224 430.07 322.359C429.862 322.49 429.693 322.669 429.562 322.898C429.438 323.128 429.344 323.398 429.281 323.711C429.224 324.018 429.195 324.352 429.195 324.711ZM435.953 324.859V324.695C435.953 324.076 436.042 323.505 436.219 322.984C436.396 322.458 436.654 322.003 436.992 321.617C437.331 321.232 437.747 320.932 438.242 320.719C438.737 320.5 439.305 320.391 439.945 320.391C440.586 320.391 441.156 320.5 441.656 320.719C442.156 320.932 442.576 321.232 442.914 321.617C443.258 322.003 443.518 322.458 443.695 322.984C443.872 323.505 443.961 324.076 443.961 324.695V324.859C443.961 325.474 443.872 326.044 443.695 326.57C443.518 327.091 443.258 327.547 442.914 327.938C442.576 328.323 442.159 328.622 441.664 328.836C441.169 329.049 440.602 329.156 439.961 329.156C439.32 329.156 438.75 329.049 438.25 328.836C437.755 328.622 437.336 328.323 436.992 327.938C436.654 327.547 436.396 327.091 436.219 326.57C436.042 326.044 435.953 325.474 435.953 324.859ZM438.203 324.695V324.859C438.203 325.214 438.234 325.544 438.297 325.852C438.359 326.159 438.458 326.43 438.594 326.664C438.734 326.893 438.917 327.073 439.141 327.203C439.365 327.333 439.638 327.398 439.961 327.398C440.273 327.398 440.542 327.333 440.766 327.203C440.99 327.073 441.169 326.893 441.305 326.664C441.44 326.43 441.539 326.159 441.602 325.852C441.669 325.544 441.703 325.214 441.703 324.859V324.695C441.703 324.352 441.669 324.029 441.602 323.727C441.539 323.419 441.438 323.148 441.297 322.914C441.161 322.674 440.982 322.487 440.758 322.352C440.534 322.216 440.263 322.148 439.945 322.148C439.628 322.148 439.357 322.216 439.133 322.352C438.914 322.487 438.734 322.674 438.594 322.914C438.458 323.148 438.359 323.419 438.297 323.727C438.234 324.029 438.203 324.352 438.203 324.695ZM444.984 324.859V324.695C444.984 324.076 445.073 323.505 445.25 322.984C445.427 322.458 445.685 322.003 446.023 321.617C446.362 321.232 446.779 320.932 447.273 320.719C447.768 320.5 448.336 320.391 448.977 320.391C449.617 320.391 450.188 320.5 450.688 320.719C451.188 320.932 451.607 321.232 451.945 321.617C452.289 322.003 452.549 322.458 452.727 322.984C452.904 323.505 452.992 324.076 452.992 324.695V324.859C452.992 325.474 452.904 326.044 452.727 326.57C452.549 327.091 452.289 327.547 451.945 327.938C451.607 328.323 451.19 328.622 450.695 328.836C450.201 329.049 449.633 329.156 448.992 329.156C448.352 329.156 447.781 329.049 447.281 328.836C446.786 328.622 446.367 328.323 446.023 327.938C445.685 327.547 445.427 327.091 445.25 326.57C445.073 326.044 444.984 325.474 444.984 324.859ZM447.234 324.695V324.859C447.234 325.214 447.266 325.544 447.328 325.852C447.391 326.159 447.49 326.43 447.625 326.664C447.766 326.893 447.948 327.073 448.172 327.203C448.396 327.333 448.669 327.398 448.992 327.398C449.305 327.398 449.573 327.333 449.797 327.203C450.021 327.073 450.201 326.893 450.336 326.664C450.471 326.43 450.57 326.159 450.633 325.852C450.701 325.544 450.734 325.214 450.734 324.859V324.695C450.734 324.352 450.701 324.029 450.633 323.727C450.57 323.419 450.469 323.148 450.328 322.914C450.193 322.674 450.013 322.487 449.789 322.352C449.565 322.216 449.294 322.148 448.977 322.148C448.659 322.148 448.388 322.216 448.164 322.352C447.945 322.487 447.766 322.674 447.625 322.914C447.49 323.148 447.391 323.419 447.328 323.727C447.266 324.029 447.234 324.352 447.234 324.695ZM456.625 322.391V329H454.375V320.547H456.492L456.625 322.391ZM459.172 320.492L459.133 322.578C459.023 322.562 458.891 322.549 458.734 322.539C458.583 322.523 458.445 322.516 458.32 322.516C458.003 322.516 457.727 322.557 457.492 322.641C457.263 322.719 457.07 322.836 456.914 322.992C456.763 323.148 456.648 323.339 456.57 323.562C456.497 323.786 456.456 324.042 456.445 324.328L455.992 324.188C455.992 323.641 456.047 323.138 456.156 322.68C456.266 322.216 456.424 321.812 456.633 321.469C456.846 321.125 457.107 320.859 457.414 320.672C457.721 320.484 458.073 320.391 458.469 320.391C458.594 320.391 458.721 320.401 458.852 320.422C458.982 320.438 459.089 320.461 459.172 320.492Z" fill="#6D5C3F"/>
<path d="M392 356L426.5 333" stroke="#6D5C3F"/>
<path d="M195.609 507.727H197.945C197.898 508.492 197.688 509.172 197.312 509.766C196.943 510.359 196.424 510.823 195.758 511.156C195.096 511.49 194.299 511.656 193.367 511.656C192.638 511.656 191.984 511.531 191.406 511.281C190.828 511.026 190.333 510.661 189.922 510.188C189.516 509.714 189.206 509.141 188.992 508.469C188.779 507.797 188.672 507.044 188.672 506.211V505.422C188.672 504.589 188.781 503.836 189 503.164C189.224 502.487 189.542 501.911 189.953 501.438C190.37 500.964 190.867 500.599 191.445 500.344C192.023 500.089 192.669 499.961 193.383 499.961C194.331 499.961 195.13 500.133 195.781 500.477C196.438 500.82 196.945 501.294 197.305 501.898C197.669 502.503 197.888 503.19 197.961 503.961H195.617C195.591 503.503 195.5 503.115 195.344 502.797C195.188 502.474 194.951 502.232 194.633 502.07C194.32 501.904 193.904 501.82 193.383 501.82C192.992 501.82 192.651 501.893 192.359 502.039C192.068 502.185 191.823 502.406 191.625 502.703C191.427 503 191.279 503.375 191.18 503.828C191.086 504.276 191.039 504.802 191.039 505.406V506.211C191.039 506.799 191.083 507.318 191.172 507.766C191.26 508.208 191.396 508.583 191.578 508.891C191.766 509.193 192.005 509.422 192.297 509.578C192.594 509.729 192.951 509.805 193.367 509.805C193.857 509.805 194.26 509.727 194.578 509.57C194.896 509.414 195.138 509.182 195.305 508.875C195.477 508.568 195.578 508.185 195.609 507.727ZM201.719 499.5V511.5H199.461V499.5H201.719ZM207.469 511.656C206.812 511.656 206.224 511.552 205.703 511.344C205.182 511.13 204.74 510.836 204.375 510.461C204.016 510.086 203.74 509.651 203.547 509.156C203.354 508.656 203.258 508.125 203.258 507.562V507.25C203.258 506.609 203.349 506.023 203.531 505.492C203.714 504.961 203.974 504.5 204.312 504.109C204.656 503.719 205.073 503.419 205.562 503.211C206.052 502.997 206.604 502.891 207.219 502.891C207.818 502.891 208.349 502.99 208.812 503.188C209.276 503.385 209.664 503.667 209.977 504.031C210.294 504.396 210.534 504.833 210.695 505.344C210.857 505.849 210.938 506.411 210.938 507.031V507.969H204.219V506.469H208.727V506.297C208.727 505.984 208.669 505.706 208.555 505.461C208.445 505.211 208.279 505.013 208.055 504.867C207.831 504.721 207.544 504.648 207.195 504.648C206.898 504.648 206.643 504.714 206.43 504.844C206.216 504.974 206.042 505.156 205.906 505.391C205.776 505.625 205.677 505.901 205.609 506.219C205.547 506.531 205.516 506.875 205.516 507.25V507.562C205.516 507.901 205.562 508.214 205.656 508.5C205.755 508.786 205.893 509.034 206.07 509.242C206.253 509.451 206.471 509.612 206.727 509.727C206.987 509.841 207.281 509.898 207.609 509.898C208.016 509.898 208.393 509.82 208.742 509.664C209.096 509.503 209.401 509.26 209.656 508.938L210.75 510.125C210.573 510.38 210.331 510.625 210.023 510.859C209.721 511.094 209.357 511.286 208.93 511.438C208.503 511.583 208.016 511.656 207.469 511.656ZM216.781 509.594V505.828C216.781 505.557 216.737 505.326 216.648 505.133C216.56 504.935 216.422 504.781 216.234 504.672C216.052 504.562 215.815 504.508 215.523 504.508C215.273 504.508 215.057 504.552 214.875 504.641C214.693 504.724 214.552 504.846 214.453 505.008C214.354 505.164 214.305 505.349 214.305 505.562H212.055C212.055 505.203 212.138 504.862 212.305 504.539C212.471 504.216 212.714 503.932 213.031 503.688C213.349 503.438 213.727 503.242 214.164 503.102C214.607 502.961 215.102 502.891 215.648 502.891C216.305 502.891 216.888 503 217.398 503.219C217.909 503.438 218.31 503.766 218.602 504.203C218.898 504.641 219.047 505.188 219.047 505.844V509.461C219.047 509.924 219.076 510.305 219.133 510.602C219.19 510.893 219.273 511.148 219.383 511.367V511.5H217.109C217 511.271 216.917 510.984 216.859 510.641C216.807 510.292 216.781 509.943 216.781 509.594ZM217.078 506.352L217.094 507.625H215.836C215.539 507.625 215.281 507.659 215.062 507.727C214.844 507.794 214.664 507.891 214.523 508.016C214.383 508.135 214.279 508.276 214.211 508.438C214.148 508.599 214.117 508.776 214.117 508.969C214.117 509.161 214.161 509.336 214.25 509.492C214.339 509.643 214.466 509.763 214.633 509.852C214.799 509.935 214.995 509.977 215.219 509.977C215.557 509.977 215.852 509.909 216.102 509.773C216.352 509.638 216.544 509.471 216.68 509.273C216.82 509.076 216.893 508.888 216.898 508.711L217.492 509.664C217.409 509.878 217.294 510.099 217.148 510.328C217.008 510.557 216.828 510.773 216.609 510.977C216.391 511.174 216.128 511.339 215.82 511.469C215.513 511.594 215.148 511.656 214.727 511.656C214.19 511.656 213.703 511.549 213.266 511.336C212.833 511.117 212.49 510.818 212.234 510.438C211.984 510.052 211.859 509.615 211.859 509.125C211.859 508.682 211.943 508.289 212.109 507.945C212.276 507.602 212.521 507.312 212.844 507.078C213.172 506.839 213.581 506.659 214.07 506.539C214.56 506.414 215.128 506.352 215.773 506.352H217.078ZM222.984 504.852V511.5H220.734V503.047H222.844L222.984 504.852ZM222.656 506.977H222.047C222.047 506.352 222.128 505.789 222.289 505.289C222.451 504.784 222.677 504.354 222.969 504C223.26 503.641 223.607 503.367 224.008 503.18C224.414 502.987 224.867 502.891 225.367 502.891C225.763 502.891 226.125 502.948 226.453 503.062C226.781 503.177 227.062 503.359 227.297 503.609C227.536 503.859 227.719 504.19 227.844 504.602C227.974 505.013 228.039 505.516 228.039 506.109V511.5H225.773V506.102C225.773 505.727 225.721 505.435 225.617 505.227C225.513 505.018 225.359 504.872 225.156 504.789C224.958 504.701 224.714 504.656 224.422 504.656C224.12 504.656 223.857 504.716 223.633 504.836C223.414 504.956 223.232 505.122 223.086 505.336C222.945 505.544 222.839 505.789 222.766 506.07C222.693 506.352 222.656 506.654 222.656 506.977ZM232.125 503.047V511.5H229.867V503.047H232.125ZM229.727 500.844C229.727 500.516 229.841 500.245 230.07 500.031C230.299 499.818 230.607 499.711 230.992 499.711C231.372 499.711 231.677 499.818 231.906 500.031C232.141 500.245 232.258 500.516 232.258 500.844C232.258 501.172 232.141 501.443 231.906 501.656C231.677 501.87 231.372 501.977 230.992 501.977C230.607 501.977 230.299 501.87 230.07 501.656C229.841 501.443 229.727 501.172 229.727 500.844ZM236.188 504.852V511.5H233.938V503.047H236.047L236.188 504.852ZM235.859 506.977H235.25C235.25 506.352 235.331 505.789 235.492 505.289C235.654 504.784 235.88 504.354 236.172 504C236.464 503.641 236.81 503.367 237.211 503.18C237.617 502.987 238.07 502.891 238.57 502.891C238.966 502.891 239.328 502.948 239.656 503.062C239.984 503.177 240.266 503.359 240.5 503.609C240.74 503.859 240.922 504.19 241.047 504.602C241.177 505.013 241.242 505.516 241.242 506.109V511.5H238.977V506.102C238.977 505.727 238.924 505.435 238.82 505.227C238.716 505.018 238.562 504.872 238.359 504.789C238.161 504.701 237.917 504.656 237.625 504.656C237.323 504.656 237.06 504.716 236.836 504.836C236.617 504.956 236.435 505.122 236.289 505.336C236.148 505.544 236.042 505.789 235.969 506.07C235.896 506.352 235.859 506.654 235.859 506.977ZM248.305 503.047H250.344V511.219C250.344 511.99 250.172 512.643 249.828 513.18C249.49 513.721 249.016 514.13 248.406 514.406C247.797 514.688 247.089 514.828 246.281 514.828C245.927 514.828 245.552 514.781 245.156 514.688C244.766 514.594 244.391 514.448 244.031 514.25C243.677 514.052 243.38 513.802 243.141 513.5L244.133 512.172C244.393 512.474 244.695 512.708 245.039 512.875C245.383 513.047 245.763 513.133 246.18 513.133C246.586 513.133 246.93 513.057 247.211 512.906C247.492 512.76 247.708 512.544 247.859 512.258C248.01 511.977 248.086 511.635 248.086 511.234V505L248.305 503.047ZM242.617 507.375V507.211C242.617 506.565 242.695 505.979 242.852 505.453C243.013 504.922 243.24 504.466 243.531 504.086C243.828 503.706 244.188 503.411 244.609 503.203C245.031 502.995 245.508 502.891 246.039 502.891C246.602 502.891 247.073 502.995 247.453 503.203C247.833 503.411 248.146 503.708 248.391 504.094C248.635 504.474 248.826 504.924 248.961 505.445C249.102 505.961 249.211 506.526 249.289 507.141V507.5C249.211 508.089 249.094 508.635 248.938 509.141C248.781 509.646 248.576 510.089 248.32 510.469C248.065 510.844 247.747 511.135 247.367 511.344C246.992 511.552 246.544 511.656 246.023 511.656C245.503 511.656 245.031 511.549 244.609 511.336C244.193 511.122 243.836 510.823 243.539 510.438C243.242 510.052 243.013 509.599 242.852 509.078C242.695 508.557 242.617 507.99 242.617 507.375ZM244.867 507.211V507.375C244.867 507.724 244.901 508.049 244.969 508.352C245.036 508.654 245.141 508.922 245.281 509.156C245.427 509.385 245.607 509.565 245.82 509.695C246.039 509.82 246.297 509.883 246.594 509.883C247.005 509.883 247.341 509.797 247.602 509.625C247.862 509.448 248.057 509.206 248.188 508.898C248.318 508.591 248.393 508.237 248.414 507.836V506.812C248.404 506.484 248.359 506.19 248.281 505.93C248.203 505.664 248.094 505.438 247.953 505.25C247.812 505.062 247.63 504.917 247.406 504.812C247.182 504.708 246.917 504.656 246.609 504.656C246.312 504.656 246.055 504.724 245.836 504.859C245.622 504.99 245.443 505.169 245.297 505.398C245.156 505.628 245.049 505.898 244.977 506.211C244.904 506.518 244.867 506.852 244.867 507.211Z" fill="#6D5C3F"/>
<path d="M238 456.5L220.5 497" stroke="#6D5C3F"/>
<path d="M81.3281 370.172V372H75.6016V370.172H81.3281ZM76.3594 360.625V372H74.0156V360.625H76.3594ZM87.0938 370.094V366.328C87.0938 366.057 87.0495 365.826 86.9609 365.633C86.8724 365.435 86.7344 365.281 86.5469 365.172C86.3646 365.062 86.1276 365.008 85.8359 365.008C85.5859 365.008 85.3698 365.052 85.1875 365.141C85.0052 365.224 84.8646 365.346 84.7656 365.508C84.6667 365.664 84.6172 365.849 84.6172 366.062H82.3672C82.3672 365.703 82.4505 365.362 82.6172 365.039C82.7839 364.716 83.026 364.432 83.3438 364.188C83.6615 363.938 84.0391 363.742 84.4766 363.602C84.9193 363.461 85.4141 363.391 85.9609 363.391C86.6172 363.391 87.2005 363.5 87.7109 363.719C88.2214 363.938 88.6224 364.266 88.9141 364.703C89.2109 365.141 89.3594 365.688 89.3594 366.344V369.961C89.3594 370.424 89.388 370.805 89.4453 371.102C89.5026 371.393 89.5859 371.648 89.6953 371.867V372H87.4219C87.3125 371.771 87.2292 371.484 87.1719 371.141C87.1198 370.792 87.0938 370.443 87.0938 370.094ZM87.3906 366.852L87.4062 368.125H86.1484C85.8516 368.125 85.5938 368.159 85.375 368.227C85.1562 368.294 84.9766 368.391 84.8359 368.516C84.6953 368.635 84.5911 368.776 84.5234 368.938C84.4609 369.099 84.4297 369.276 84.4297 369.469C84.4297 369.661 84.474 369.836 84.5625 369.992C84.651 370.143 84.7786 370.263 84.9453 370.352C85.112 370.435 85.3073 370.477 85.5312 370.477C85.8698 370.477 86.1641 370.409 86.4141 370.273C86.6641 370.138 86.8568 369.971 86.9922 369.773C87.1328 369.576 87.2057 369.388 87.2109 369.211L87.8047 370.164C87.7214 370.378 87.6068 370.599 87.4609 370.828C87.3203 371.057 87.1406 371.273 86.9219 371.477C86.7031 371.674 86.4401 371.839 86.1328 371.969C85.8255 372.094 85.4609 372.156 85.0391 372.156C84.5026 372.156 84.0156 372.049 83.5781 371.836C83.1458 371.617 82.8021 371.318 82.5469 370.938C82.2969 370.552 82.1719 370.115 82.1719 369.625C82.1719 369.182 82.2552 368.789 82.4219 368.445C82.5885 368.102 82.8333 367.812 83.1562 367.578C83.4844 367.339 83.8932 367.159 84.3828 367.039C84.8724 366.914 85.4401 366.852 86.0859 366.852H87.3906ZM96.0938 369.977V363.547H98.3438V372H96.2266L96.0938 369.977ZM96.3438 368.242L97.0078 368.227C97.0078 368.789 96.9427 369.312 96.8125 369.797C96.6823 370.276 96.487 370.693 96.2266 371.047C95.9661 371.396 95.638 371.669 95.2422 371.867C94.8464 372.06 94.3802 372.156 93.8438 372.156C93.4323 372.156 93.0521 372.099 92.7031 371.984C92.3594 371.865 92.0625 371.68 91.8125 371.43C91.5677 371.174 91.375 370.849 91.2344 370.453C91.099 370.052 91.0312 369.57 91.0312 369.008V363.547H93.2812V369.023C93.2812 369.273 93.3099 369.484 93.3672 369.656C93.4297 369.828 93.5156 369.969 93.625 370.078C93.7344 370.188 93.862 370.266 94.0078 370.312C94.1589 370.359 94.3255 370.383 94.5078 370.383C94.9714 370.383 95.3359 370.289 95.6016 370.102C95.8724 369.914 96.0625 369.659 96.1719 369.336C96.2865 369.008 96.3438 368.643 96.3438 368.242ZM102.266 365.352V372H100.016V363.547H102.125L102.266 365.352ZM101.938 367.477H101.328C101.328 366.852 101.409 366.289 101.57 365.789C101.732 365.284 101.958 364.854 102.25 364.5C102.542 364.141 102.888 363.867 103.289 363.68C103.695 363.487 104.148 363.391 104.648 363.391C105.044 363.391 105.406 363.448 105.734 363.562C106.062 363.677 106.344 363.859 106.578 364.109C106.818 364.359 107 364.69 107.125 365.102C107.255 365.513 107.32 366.016 107.32 366.609V372H105.055V366.602C105.055 366.227 105.003 365.935 104.898 365.727C104.794 365.518 104.641 365.372 104.438 365.289C104.24 365.201 103.995 365.156 103.703 365.156C103.401 365.156 103.138 365.216 102.914 365.336C102.695 365.456 102.513 365.622 102.367 365.836C102.227 366.044 102.12 366.289 102.047 366.57C101.974 366.852 101.938 367.154 101.938 367.477ZM114.023 370.156V360H116.289V372H114.25L114.023 370.156ZM108.68 367.875V367.711C108.68 367.065 108.753 366.479 108.898 365.953C109.044 365.422 109.258 364.966 109.539 364.586C109.82 364.206 110.167 363.911 110.578 363.703C110.99 363.495 111.458 363.391 111.984 363.391C112.479 363.391 112.911 363.495 113.281 363.703C113.656 363.911 113.974 364.208 114.234 364.594C114.5 364.974 114.714 365.424 114.875 365.945C115.036 366.461 115.154 367.026 115.227 367.641V368C115.154 368.589 115.036 369.135 114.875 369.641C114.714 370.146 114.5 370.589 114.234 370.969C113.974 371.344 113.656 371.635 113.281 371.844C112.906 372.052 112.469 372.156 111.969 372.156C111.443 372.156 110.974 372.049 110.562 371.836C110.156 371.622 109.812 371.323 109.531 370.938C109.255 370.552 109.044 370.099 108.898 369.578C108.753 369.057 108.68 368.49 108.68 367.875ZM110.93 367.711V367.875C110.93 368.224 110.956 368.549 111.008 368.852C111.065 369.154 111.156 369.422 111.281 369.656C111.411 369.885 111.578 370.065 111.781 370.195C111.99 370.32 112.242 370.383 112.539 370.383C112.924 370.383 113.242 370.297 113.492 370.125C113.742 369.948 113.932 369.706 114.062 369.398C114.198 369.091 114.276 368.737 114.297 368.336V367.312C114.281 366.984 114.234 366.69 114.156 366.43C114.083 366.164 113.974 365.938 113.828 365.75C113.688 365.562 113.51 365.417 113.297 365.312C113.089 365.208 112.841 365.156 112.555 365.156C112.263 365.156 112.013 365.224 111.805 365.359C111.596 365.49 111.427 365.669 111.297 365.898C111.172 366.128 111.078 366.398 111.016 366.711C110.958 367.018 110.93 367.352 110.93 367.711ZM120.297 365.391V372H118.047V363.547H120.164L120.297 365.391ZM122.844 363.492L122.805 365.578C122.695 365.562 122.562 365.549 122.406 365.539C122.255 365.523 122.117 365.516 121.992 365.516C121.674 365.516 121.398 365.557 121.164 365.641C120.935 365.719 120.742 365.836 120.586 365.992C120.435 366.148 120.32 366.339 120.242 366.562C120.169 366.786 120.128 367.042 120.117 367.328L119.664 367.188C119.664 366.641 119.719 366.138 119.828 365.68C119.938 365.216 120.096 364.812 120.305 364.469C120.518 364.125 120.779 363.859 121.086 363.672C121.393 363.484 121.745 363.391 122.141 363.391C122.266 363.391 122.393 363.401 122.523 363.422C122.654 363.438 122.76 363.461 122.844 363.492ZM126.555 371.047L128.797 363.547H131.211L127.812 373.273C127.74 373.487 127.641 373.716 127.516 373.961C127.396 374.206 127.232 374.438 127.023 374.656C126.82 374.88 126.562 375.062 126.25 375.203C125.943 375.344 125.565 375.414 125.117 375.414C124.904 375.414 124.729 375.401 124.594 375.375C124.458 375.349 124.297 375.312 124.109 375.266V373.617C124.167 373.617 124.227 373.617 124.289 373.617C124.352 373.622 124.411 373.625 124.469 373.625C124.766 373.625 125.008 373.591 125.195 373.523C125.383 373.456 125.534 373.352 125.648 373.211C125.763 373.076 125.854 372.898 125.922 372.68L126.555 371.047ZM125.617 363.547L127.453 369.672L127.773 372.055L126.242 372.219L123.203 363.547H125.617Z" fill="#6D5C3F"/>
<path d="M167.5 329.5L122 356.5" stroke="#6D5C3F"/>
<path d="M192.609 278.727H194.945C194.898 279.492 194.688 280.172 194.312 280.766C193.943 281.359 193.424 281.823 192.758 282.156C192.096 282.49 191.299 282.656 190.367 282.656C189.638 282.656 188.984 282.531 188.406 282.281C187.828 282.026 187.333 281.661 186.922 281.188C186.516 280.714 186.206 280.141 185.992 279.469C185.779 278.797 185.672 278.044 185.672 277.211V276.422C185.672 275.589 185.781 274.836 186 274.164C186.224 273.487 186.542 272.911 186.953 272.438C187.37 271.964 187.867 271.599 188.445 271.344C189.023 271.089 189.669 270.961 190.383 270.961C191.331 270.961 192.13 271.133 192.781 271.477C193.438 271.82 193.945 272.294 194.305 272.898C194.669 273.503 194.888 274.19 194.961 274.961H192.617C192.591 274.503 192.5 274.115 192.344 273.797C192.188 273.474 191.951 273.232 191.633 273.07C191.32 272.904 190.904 272.82 190.383 272.82C189.992 272.82 189.651 272.893 189.359 273.039C189.068 273.185 188.823 273.406 188.625 273.703C188.427 274 188.279 274.375 188.18 274.828C188.086 275.276 188.039 275.802 188.039 276.406V277.211C188.039 277.799 188.083 278.318 188.172 278.766C188.26 279.208 188.396 279.583 188.578 279.891C188.766 280.193 189.005 280.422 189.297 280.578C189.594 280.729 189.951 280.805 190.367 280.805C190.857 280.805 191.26 280.727 191.578 280.57C191.896 280.414 192.138 280.182 192.305 279.875C192.477 279.568 192.578 279.185 192.609 278.727ZM195.984 278.359V278.195C195.984 277.576 196.073 277.005 196.25 276.484C196.427 275.958 196.685 275.503 197.023 275.117C197.362 274.732 197.779 274.432 198.273 274.219C198.768 274 199.336 273.891 199.977 273.891C200.617 273.891 201.188 274 201.688 274.219C202.188 274.432 202.607 274.732 202.945 275.117C203.289 275.503 203.549 275.958 203.727 276.484C203.904 277.005 203.992 277.576 203.992 278.195V278.359C203.992 278.974 203.904 279.544 203.727 280.07C203.549 280.591 203.289 281.047 202.945 281.438C202.607 281.823 202.19 282.122 201.695 282.336C201.201 282.549 200.633 282.656 199.992 282.656C199.352 282.656 198.781 282.549 198.281 282.336C197.786 282.122 197.367 281.823 197.023 281.438C196.685 281.047 196.427 280.591 196.25 280.07C196.073 279.544 195.984 278.974 195.984 278.359ZM198.234 278.195V278.359C198.234 278.714 198.266 279.044 198.328 279.352C198.391 279.659 198.49 279.93 198.625 280.164C198.766 280.393 198.948 280.573 199.172 280.703C199.396 280.833 199.669 280.898 199.992 280.898C200.305 280.898 200.573 280.833 200.797 280.703C201.021 280.573 201.201 280.393 201.336 280.164C201.471 279.93 201.57 279.659 201.633 279.352C201.701 279.044 201.734 278.714 201.734 278.359V278.195C201.734 277.852 201.701 277.529 201.633 277.227C201.57 276.919 201.469 276.648 201.328 276.414C201.193 276.174 201.013 275.987 200.789 275.852C200.565 275.716 200.294 275.648 199.977 275.648C199.659 275.648 199.388 275.716 199.164 275.852C198.945 275.987 198.766 276.174 198.625 276.414C198.49 276.648 198.391 276.919 198.328 277.227C198.266 277.529 198.234 277.852 198.234 278.195ZM205.016 278.359V278.195C205.016 277.576 205.104 277.005 205.281 276.484C205.458 275.958 205.716 275.503 206.055 275.117C206.393 274.732 206.81 274.432 207.305 274.219C207.799 274 208.367 273.891 209.008 273.891C209.648 273.891 210.219 274 210.719 274.219C211.219 274.432 211.638 274.732 211.977 275.117C212.32 275.503 212.581 275.958 212.758 276.484C212.935 277.005 213.023 277.576 213.023 278.195V278.359C213.023 278.974 212.935 279.544 212.758 280.07C212.581 280.591 212.32 281.047 211.977 281.438C211.638 281.823 211.221 282.122 210.727 282.336C210.232 282.549 209.664 282.656 209.023 282.656C208.383 282.656 207.812 282.549 207.312 282.336C206.818 282.122 206.398 281.823 206.055 281.438C205.716 281.047 205.458 280.591 205.281 280.07C205.104 279.544 205.016 278.974 205.016 278.359ZM207.266 278.195V278.359C207.266 278.714 207.297 279.044 207.359 279.352C207.422 279.659 207.521 279.93 207.656 280.164C207.797 280.393 207.979 280.573 208.203 280.703C208.427 280.833 208.701 280.898 209.023 280.898C209.336 280.898 209.604 280.833 209.828 280.703C210.052 280.573 210.232 280.393 210.367 280.164C210.503 279.93 210.602 279.659 210.664 279.352C210.732 279.044 210.766 278.714 210.766 278.359V278.195C210.766 277.852 210.732 277.529 210.664 277.227C210.602 276.919 210.5 276.648 210.359 276.414C210.224 276.174 210.044 275.987 209.82 275.852C209.596 275.716 209.326 275.648 209.008 275.648C208.69 275.648 208.419 275.716 208.195 275.852C207.977 275.987 207.797 276.174 207.656 276.414C207.521 276.648 207.422 276.919 207.359 277.227C207.297 277.529 207.266 277.852 207.266 278.195ZM216.656 270.492V282.5H214.406V270.492H216.656ZM221.984 274.047L218.312 278.234L216.344 280.227L215.523 278.602L217.086 276.617L219.281 274.047H221.984ZM219.648 282.5L217.148 278.594L218.703 277.234L222.242 282.5H219.648ZM225.328 274.047V282.5H223.07V274.047H225.328ZM222.93 271.844C222.93 271.516 223.044 271.245 223.273 271.031C223.503 270.818 223.81 270.711 224.195 270.711C224.576 270.711 224.88 270.818 225.109 271.031C225.344 271.245 225.461 271.516 225.461 271.844C225.461 272.172 225.344 272.443 225.109 272.656C224.88 272.87 224.576 272.977 224.195 272.977C223.81 272.977 223.503 272.87 223.273 272.656C223.044 272.443 222.93 272.172 222.93 271.844ZM229.391 275.852V282.5H227.141V274.047H229.25L229.391 275.852ZM229.062 277.977H228.453C228.453 277.352 228.534 276.789 228.695 276.289C228.857 275.784 229.083 275.354 229.375 275C229.667 274.641 230.013 274.367 230.414 274.18C230.82 273.987 231.273 273.891 231.773 273.891C232.169 273.891 232.531 273.948 232.859 274.062C233.188 274.177 233.469 274.359 233.703 274.609C233.943 274.859 234.125 275.19 234.25 275.602C234.38 276.013 234.445 276.516 234.445 277.109V282.5H232.18V277.102C232.18 276.727 232.128 276.435 232.023 276.227C231.919 276.018 231.766 275.872 231.562 275.789C231.365 275.701 231.12 275.656 230.828 275.656C230.526 275.656 230.263 275.716 230.039 275.836C229.82 275.956 229.638 276.122 229.492 276.336C229.352 276.544 229.245 276.789 229.172 277.07C229.099 277.352 229.062 277.654 229.062 277.977ZM241.508 274.047H243.547V282.219C243.547 282.99 243.375 283.643 243.031 284.18C242.693 284.721 242.219 285.13 241.609 285.406C241 285.688 240.292 285.828 239.484 285.828C239.13 285.828 238.755 285.781 238.359 285.688C237.969 285.594 237.594 285.448 237.234 285.25C236.88 285.052 236.583 284.802 236.344 284.5L237.336 283.172C237.596 283.474 237.898 283.708 238.242 283.875C238.586 284.047 238.966 284.133 239.383 284.133C239.789 284.133 240.133 284.057 240.414 283.906C240.695 283.76 240.911 283.544 241.062 283.258C241.214 282.977 241.289 282.635 241.289 282.234V276L241.508 274.047ZM235.82 278.375V278.211C235.82 277.565 235.898 276.979 236.055 276.453C236.216 275.922 236.443 275.466 236.734 275.086C237.031 274.706 237.391 274.411 237.812 274.203C238.234 273.995 238.711 273.891 239.242 273.891C239.805 273.891 240.276 273.995 240.656 274.203C241.036 274.411 241.349 274.708 241.594 275.094C241.839 275.474 242.029 275.924 242.164 276.445C242.305 276.961 242.414 277.526 242.492 278.141V278.5C242.414 279.089 242.297 279.635 242.141 280.141C241.984 280.646 241.779 281.089 241.523 281.469C241.268 281.844 240.951 282.135 240.57 282.344C240.195 282.552 239.747 282.656 239.227 282.656C238.706 282.656 238.234 282.549 237.812 282.336C237.396 282.122 237.039 281.823 236.742 281.438C236.445 281.052 236.216 280.599 236.055 280.078C235.898 279.557 235.82 278.99 235.82 278.375ZM238.07 278.211V278.375C238.07 278.724 238.104 279.049 238.172 279.352C238.24 279.654 238.344 279.922 238.484 280.156C238.63 280.385 238.81 280.565 239.023 280.695C239.242 280.82 239.5 280.883 239.797 280.883C240.208 280.883 240.544 280.797 240.805 280.625C241.065 280.448 241.26 280.206 241.391 279.898C241.521 279.591 241.596 279.237 241.617 278.836V277.812C241.607 277.484 241.562 277.19 241.484 276.93C241.406 276.664 241.297 276.438 241.156 276.25C241.016 276.062 240.833 275.917 240.609 275.812C240.385 275.708 240.12 275.656 239.812 275.656C239.516 275.656 239.258 275.724 239.039 275.859C238.826 275.99 238.646 276.169 238.5 276.398C238.359 276.628 238.253 276.898 238.18 277.211C238.107 277.518 238.07 277.852 238.07 278.211Z" fill="#6D5C3F"/>
<path d="M230 268L249 243" stroke="#6D5C3F"/>
<path d="M350.109 218.227H352.445C352.398 218.992 352.188 219.672 351.812 220.266C351.443 220.859 350.924 221.323 350.258 221.656C349.596 221.99 348.799 222.156 347.867 222.156C347.138 222.156 346.484 222.031 345.906 221.781C345.328 221.526 344.833 221.161 344.422 220.688C344.016 220.214 343.706 219.641 343.492 218.969C343.279 218.297 343.172 217.544 343.172 216.711V215.922C343.172 215.089 343.281 214.336 343.5 213.664C343.724 212.987 344.042 212.411 344.453 211.938C344.87 211.464 345.367 211.099 345.945 210.844C346.523 210.589 347.169 210.461 347.883 210.461C348.831 210.461 349.63 210.633 350.281 210.977C350.938 211.32 351.445 211.794 351.805 212.398C352.169 213.003 352.388 213.69 352.461 214.461H350.117C350.091 214.003 350 213.615 349.844 213.297C349.688 212.974 349.451 212.732 349.133 212.57C348.82 212.404 348.404 212.32 347.883 212.32C347.492 212.32 347.151 212.393 346.859 212.539C346.568 212.685 346.323 212.906 346.125 213.203C345.927 213.5 345.779 213.875 345.68 214.328C345.586 214.776 345.539 215.302 345.539 215.906V216.711C345.539 217.299 345.583 217.818 345.672 218.266C345.76 218.708 345.896 219.083 346.078 219.391C346.266 219.693 346.505 219.922 346.797 220.078C347.094 220.229 347.451 220.305 347.867 220.305C348.357 220.305 348.76 220.227 349.078 220.07C349.396 219.914 349.638 219.682 349.805 219.375C349.977 219.068 350.078 218.685 350.109 218.227ZM356.039 210V222H353.789V210H356.039ZM355.719 217.477H355.102C355.107 216.888 355.185 216.346 355.336 215.852C355.487 215.352 355.703 214.919 355.984 214.555C356.266 214.185 356.602 213.898 356.992 213.695C357.388 213.492 357.826 213.391 358.305 213.391C358.721 213.391 359.099 213.451 359.438 213.57C359.781 213.685 360.076 213.872 360.32 214.133C360.57 214.388 360.763 214.724 360.898 215.141C361.034 215.557 361.102 216.062 361.102 216.656V222H358.836V216.641C358.836 216.266 358.781 215.971 358.672 215.758C358.568 215.539 358.414 215.385 358.211 215.297C358.013 215.203 357.768 215.156 357.477 215.156C357.154 215.156 356.878 215.216 356.648 215.336C356.424 215.456 356.245 215.622 356.109 215.836C355.974 216.044 355.875 216.289 355.812 216.57C355.75 216.852 355.719 217.154 355.719 217.477ZM365.188 213.547V222H362.93V213.547H365.188ZM362.789 211.344C362.789 211.016 362.904 210.745 363.133 210.531C363.362 210.318 363.669 210.211 364.055 210.211C364.435 210.211 364.74 210.318 364.969 210.531C365.203 210.745 365.32 211.016 365.32 211.344C365.32 211.672 365.203 211.943 364.969 212.156C364.74 212.37 364.435 212.477 364.055 212.477C363.669 212.477 363.362 212.37 363.133 212.156C362.904 211.943 362.789 211.672 362.789 211.344ZM369.422 210V222H367.164V210H369.422ZM376.273 220.156V210H378.539V222H376.5L376.273 220.156ZM370.93 217.875V217.711C370.93 217.065 371.003 216.479 371.148 215.953C371.294 215.422 371.508 214.966 371.789 214.586C372.07 214.206 372.417 213.911 372.828 213.703C373.24 213.495 373.708 213.391 374.234 213.391C374.729 213.391 375.161 213.495 375.531 213.703C375.906 213.911 376.224 214.208 376.484 214.594C376.75 214.974 376.964 215.424 377.125 215.945C377.286 216.461 377.404 217.026 377.477 217.641V218C377.404 218.589 377.286 219.135 377.125 219.641C376.964 220.146 376.75 220.589 376.484 220.969C376.224 221.344 375.906 221.635 375.531 221.844C375.156 222.052 374.719 222.156 374.219 222.156C373.693 222.156 373.224 222.049 372.812 221.836C372.406 221.622 372.062 221.323 371.781 220.938C371.505 220.552 371.294 220.099 371.148 219.578C371.003 219.057 370.93 218.49 370.93 217.875ZM373.18 217.711V217.875C373.18 218.224 373.206 218.549 373.258 218.852C373.315 219.154 373.406 219.422 373.531 219.656C373.661 219.885 373.828 220.065 374.031 220.195C374.24 220.32 374.492 220.383 374.789 220.383C375.174 220.383 375.492 220.297 375.742 220.125C375.992 219.948 376.182 219.706 376.312 219.398C376.448 219.091 376.526 218.737 376.547 218.336V217.312C376.531 216.984 376.484 216.69 376.406 216.43C376.333 216.164 376.224 215.938 376.078 215.75C375.938 215.562 375.76 215.417 375.547 215.312C375.339 215.208 375.091 215.156 374.805 215.156C374.513 215.156 374.263 215.224 374.055 215.359C373.846 215.49 373.677 215.669 373.547 215.898C373.422 216.128 373.328 216.398 373.266 216.711C373.208 217.018 373.18 217.352 373.18 217.711ZM383.789 220.398C384.065 220.398 384.31 220.346 384.523 220.242C384.737 220.133 384.904 219.982 385.023 219.789C385.148 219.591 385.214 219.359 385.219 219.094H387.336C387.331 219.688 387.172 220.216 386.859 220.68C386.547 221.138 386.128 221.5 385.602 221.766C385.076 222.026 384.487 222.156 383.836 222.156C383.18 222.156 382.607 222.047 382.117 221.828C381.633 221.609 381.229 221.307 380.906 220.922C380.583 220.531 380.341 220.078 380.18 219.562C380.018 219.042 379.938 218.484 379.938 217.891V217.664C379.938 217.065 380.018 216.508 380.18 215.992C380.341 215.471 380.583 215.018 380.906 214.633C381.229 214.242 381.633 213.938 382.117 213.719C382.602 213.5 383.169 213.391 383.82 213.391C384.513 213.391 385.12 213.523 385.641 213.789C386.167 214.055 386.578 214.435 386.875 214.93C387.177 215.419 387.331 216 387.336 216.672H385.219C385.214 216.391 385.154 216.135 385.039 215.906C384.93 215.677 384.768 215.495 384.555 215.359C384.346 215.219 384.089 215.148 383.781 215.148C383.453 215.148 383.185 215.219 382.977 215.359C382.768 215.495 382.607 215.682 382.492 215.922C382.378 216.156 382.297 216.424 382.25 216.727C382.208 217.023 382.188 217.336 382.188 217.664V217.891C382.188 218.219 382.208 218.534 382.25 218.836C382.292 219.138 382.37 219.406 382.484 219.641C382.604 219.875 382.768 220.06 382.977 220.195C383.185 220.331 383.456 220.398 383.789 220.398ZM393.203 220.094V216.328C393.203 216.057 393.159 215.826 393.07 215.633C392.982 215.435 392.844 215.281 392.656 215.172C392.474 215.062 392.237 215.008 391.945 215.008C391.695 215.008 391.479 215.052 391.297 215.141C391.115 215.224 390.974 215.346 390.875 215.508C390.776 215.664 390.727 215.849 390.727 216.062H388.477C388.477 215.703 388.56 215.362 388.727 215.039C388.893 214.716 389.135 214.432 389.453 214.188C389.771 213.938 390.148 213.742 390.586 213.602C391.029 213.461 391.523 213.391 392.07 213.391C392.727 213.391 393.31 213.5 393.82 213.719C394.331 213.938 394.732 214.266 395.023 214.703C395.32 215.141 395.469 215.688 395.469 216.344V219.961C395.469 220.424 395.497 220.805 395.555 221.102C395.612 221.393 395.695 221.648 395.805 221.867V222H393.531C393.422 221.771 393.339 221.484 393.281 221.141C393.229 220.792 393.203 220.443 393.203 220.094ZM393.5 216.852L393.516 218.125H392.258C391.961 218.125 391.703 218.159 391.484 218.227C391.266 218.294 391.086 218.391 390.945 218.516C390.805 218.635 390.701 218.776 390.633 218.938C390.57 219.099 390.539 219.276 390.539 219.469C390.539 219.661 390.583 219.836 390.672 219.992C390.76 220.143 390.888 220.263 391.055 220.352C391.221 220.435 391.417 220.477 391.641 220.477C391.979 220.477 392.273 220.409 392.523 220.273C392.773 220.138 392.966 219.971 393.102 219.773C393.242 219.576 393.315 219.388 393.32 219.211L393.914 220.164C393.831 220.378 393.716 220.599 393.57 220.828C393.43 221.057 393.25 221.273 393.031 221.477C392.812 221.674 392.549 221.839 392.242 221.969C391.935 222.094 391.57 222.156 391.148 222.156C390.612 222.156 390.125 222.049 389.688 221.836C389.255 221.617 388.911 221.318 388.656 220.938C388.406 220.552 388.281 220.115 388.281 219.625C388.281 219.182 388.365 218.789 388.531 218.445C388.698 218.102 388.943 217.812 389.266 217.578C389.594 217.339 390.003 217.159 390.492 217.039C390.982 216.914 391.549 216.852 392.195 216.852H393.5ZM399.453 215.391V222H397.203V213.547H399.32L399.453 215.391ZM402 213.492L401.961 215.578C401.852 215.562 401.719 215.549 401.562 215.539C401.411 215.523 401.273 215.516 401.148 215.516C400.831 215.516 400.555 215.557 400.32 215.641C400.091 215.719 399.898 215.836 399.742 215.992C399.591 216.148 399.477 216.339 399.398 216.562C399.326 216.786 399.284 217.042 399.273 217.328L398.82 217.188C398.82 216.641 398.875 216.138 398.984 215.68C399.094 215.216 399.253 214.812 399.461 214.469C399.674 214.125 399.935 213.859 400.242 213.672C400.549 213.484 400.901 213.391 401.297 213.391C401.422 213.391 401.549 213.401 401.68 213.422C401.81 213.438 401.917 213.461 402 213.492ZM406.797 222.156C406.141 222.156 405.552 222.052 405.031 221.844C404.51 221.63 404.068 221.336 403.703 220.961C403.344 220.586 403.068 220.151 402.875 219.656C402.682 219.156 402.586 218.625 402.586 218.062V217.75C402.586 217.109 402.677 216.523 402.859 215.992C403.042 215.461 403.302 215 403.641 214.609C403.984 214.219 404.401 213.919 404.891 213.711C405.38 213.497 405.932 213.391 406.547 213.391C407.146 213.391 407.677 213.49 408.141 213.688C408.604 213.885 408.992 214.167 409.305 214.531C409.622 214.896 409.862 215.333 410.023 215.844C410.185 216.349 410.266 216.911 410.266 217.531V218.469H403.547V216.969H408.055V216.797C408.055 216.484 407.997 216.206 407.883 215.961C407.773 215.711 407.607 215.513 407.383 215.367C407.159 215.221 406.872 215.148 406.523 215.148C406.227 215.148 405.971 215.214 405.758 215.344C405.544 215.474 405.37 215.656 405.234 215.891C405.104 216.125 405.005 216.401 404.938 216.719C404.875 217.031 404.844 217.375 404.844 217.75V218.062C404.844 218.401 404.891 218.714 404.984 219C405.083 219.286 405.221 219.534 405.398 219.742C405.581 219.951 405.799 220.112 406.055 220.227C406.315 220.341 406.609 220.398 406.938 220.398C407.344 220.398 407.721 220.32 408.07 220.164C408.424 220.003 408.729 219.76 408.984 219.438L410.078 220.625C409.901 220.88 409.659 221.125 409.352 221.359C409.049 221.594 408.685 221.786 408.258 221.938C407.831 222.083 407.344 222.156 406.797 222.156Z" fill="#6D5C3F"/>
<path d="M309 246L340 226" stroke="#6D5C3F"/>
</g>
<defs>
<clipPath id="clip0_975_15685">
<rect width="556" height="680" fill="white"/>
</clipPath>
</defs>
</svg>
